<svg width="101" height="100" viewBox="0 0 101 100" fill="none" xmlns="http://www.w3.org/2000/svg">
<path d="M48.9801 8.45394C25.8601 8.45394 7.12012 27.1939 7.12012 50.3139C7.12012 71.854 23.3801 89.5806 44.2868 91.9139C45.5068 92.0473 46.7468 92.114 47.9934 92.134C48.0668 92.1406 48.1334 92.1539 48.2068 92.1539C48.4668 92.1606 48.7268 92.1806 48.9801 92.1806C49.8868 92.1806 50.7868 92.1406 51.6801 92.0806C52.2068 92.0473 52.7268 91.9739 53.2468 91.9139C54.5201 91.7873 55.7668 91.5806 57.0001 91.3406C57.7068 91.2006 58.4001 91.0339 59.0934 90.8606C72.4734 87.5473 83.2735 77.814 88.0868 65.094C88.2868 64.5606 88.5001 64.034 88.6801 63.4873C88.8335 63.0273 89.0001 62.574 89.1468 62.1073C89.3201 61.4873 89.4468 60.8606 89.5934 60.2339C89.6134 60.1673 89.6201 60.114 89.6334 60.0539C89.8001 59.3606 90.0068 58.674 90.1334 57.9606C90.3468 56.794 90.5201 55.6206 90.6401 54.4273C90.7735 53.0739 90.8401 51.7006 90.8401 50.3073C90.8401 27.1873 72.1001 8.44728 48.9801 8.44728V8.45394Z" fill="#0293A7"/>
<path style="mix-blend-mode:multiply" opacity="0.37" d="M67.3941 46.8739C68.0208 47.3605 68.9741 47.2739 69.1541 48.0472C69.3941 49.0472 68.2674 49.6139 68.2274 50.5672C68.2074 51.1339 68.9408 51.1472 68.4808 51.7405C67.9208 51.9805 67.7208 51.3139 67.3874 51.0672C67.3408 53.4939 66.3008 55.7205 65.0008 57.2605C65.0008 57.2605 65.0008 57.2605 65.0008 57.2739C64.9408 57.3672 64.8941 57.4672 64.8474 57.5605C64.4008 58.4539 64.4008 59.2339 64.4008 59.2339C64.3874 60.6939 63.1474 62.0939 62.9541 63.5405C62.8941 63.9739 63.0408 64.5805 62.9541 64.8805C62.7541 65.5739 61.5674 65.8139 61.5274 66.4739H59.6808C59.4674 66.2605 59.7741 66.1472 59.7674 65.8872C59.7674 65.8872 59.7541 65.8872 59.7474 65.8872C59.9274 65.3005 60.5208 64.9339 60.8474 64.4205C61.1941 63.8672 61.2541 63.1805 61.2541 62.5405C61.2541 61.8072 61.1074 62.3005 60.9274 61.5805C60.7008 60.6872 60.4141 59.8005 60.2541 58.9139C60.2408 58.8405 60.2008 58.8005 60.1541 58.7805C60.1074 58.7805 60.0608 58.7805 60.0074 58.7805C59.1808 58.7739 57.7741 59.0605 57.7741 59.0605C56.0074 59.1405 54.3474 59.4605 52.6408 59.3872C50.4741 59.2939 48.3941 58.7872 46.2608 58.6339C45.2808 58.5605 45.1541 58.3739 44.4541 58.8005C44.2474 58.9272 43.9741 59.1205 43.7008 59.3539C43.5741 60.7339 42.4541 62.0605 42.2674 63.4272C42.2074 63.8605 42.3541 64.4672 42.2674 64.7739C42.0674 65.4672 40.6274 65.7672 40.5874 66.4339H40.2274C40.2274 66.4339 40.2274 66.4339 40.2208 66.4405C40.1674 66.4405 40.1141 66.4405 40.0541 66.4339H39.8274C39.4274 66.4405 39.0008 66.4805 38.6874 66.4072C38.6341 66.3939 38.5874 66.3805 38.5408 66.3539C38.5408 65.9939 38.7541 65.8472 38.8874 65.6139C38.9008 65.6139 38.9208 65.6139 38.9341 65.6139C38.9474 65.6139 38.9608 65.6139 38.9674 65.6139C38.9808 65.6139 38.9941 65.6139 39.0074 65.6005C39.0208 65.6005 39.0274 65.6005 39.0408 65.5939C39.0541 65.5939 39.0674 65.5739 39.0808 65.5672C39.0874 65.5672 39.1008 65.5539 39.1074 65.5472C39.1274 65.5272 39.1408 65.5005 39.1541 65.4739C39.1874 65.3805 39.2274 65.2939 39.2741 65.2072C39.2808 65.1939 39.2941 65.1805 39.3008 65.1605C39.3474 65.0805 39.3941 65.0005 39.4474 64.9272C39.4474 64.9272 39.4474 64.9205 39.4541 64.9139C39.6208 64.6672 39.8008 64.4272 39.9141 64.1539C39.9341 64.1005 39.9474 64.0539 39.9674 64.0005C40.0408 63.7939 40.1074 63.5805 40.1608 63.3605C40.1941 63.2272 40.2208 63.0939 40.2474 62.9539C40.2474 62.9405 40.2474 62.9339 40.2541 62.9205C40.2808 62.7739 40.3141 62.6339 40.3408 62.4872C40.4008 62.2139 40.4474 61.9405 40.4874 61.6672C40.5341 61.3672 40.5608 61.0672 40.5808 60.7672C40.5808 60.7539 40.5808 60.7405 40.5808 60.7272C40.5141 60.5405 40.3874 60.3139 40.1474 60.0939C39.9808 59.9405 39.7608 59.7872 39.4674 59.6472C39.3274 59.5805 39.1674 59.5139 38.9941 59.4472C38.4808 59.2672 37.8141 59.1205 36.9474 59.0339C35.3208 58.9072 33.7474 58.6939 31.6608 58.5472C29.9341 58.4205 28.2274 57.5272 25.9541 57.7072L59.1208 90.8739C72.5008 87.5605 83.3008 77.8272 88.1141 65.1072L67.7274 44.7205C68.0541 45.2672 68.0608 46.0872 67.4274 46.8805L67.3941 46.8739Z" fill="url(#paint0_linear_1041_49256)"/>
<path d="M69.1596 48.0471C68.9729 47.2671 68.0263 47.3538 67.3996 46.8738C68.0329 46.0805 68.0263 45.2605 67.6996 44.7138C67.2596 43.9738 66.2329 43.7271 65.3863 44.6871C63.3796 42.5605 60.7529 41.6605 57.0729 41.5005C47.6129 41.0871 39.1596 42.5271 33.8196 46.2005C32.9929 46.7738 30.6729 49.2405 29.5396 49.1405C28.9929 49.0938 28.7129 48.2738 27.9463 48.2138C27.3929 48.1738 26.9196 48.3671 26.8529 49.0538C27.7663 49.4271 28.6396 49.8405 28.4463 51.3205C27.5796 51.5671 27.8996 52.4671 27.6063 53.2538C27.2929 54.1005 26.3929 54.4138 25.8463 55.0138C25.3663 54.9871 24.9329 54.9938 24.7529 55.2671C24.8863 56.3338 25.4396 56.9871 25.9263 57.7005C28.1996 57.5205 29.9063 58.4138 31.6329 58.5405C33.7196 58.6871 35.2929 58.9071 36.9196 59.0271C37.7929 59.1138 38.4529 59.2605 38.9663 59.4405C39.1396 59.5005 39.2996 59.5671 39.4396 59.6405C39.7329 59.7805 39.9529 59.9338 40.1196 60.0871C40.3596 60.3071 40.4863 60.5338 40.5529 60.7205C40.5529 60.7338 40.5529 60.7471 40.5529 60.7605C40.5329 61.0605 40.4996 61.3671 40.4596 61.6605C40.4196 61.9338 40.3729 62.2071 40.3129 62.4805C40.2796 62.6205 40.2529 62.7671 40.2263 62.9138C40.2263 62.9271 40.2263 62.9338 40.2196 62.9471C40.1929 63.0805 40.1596 63.2138 40.1329 63.3538C40.0796 63.5738 40.0196 63.7871 39.9396 63.9938C39.9196 64.0471 39.9063 64.0938 39.8863 64.1471C39.7729 64.4205 39.5929 64.6605 39.4263 64.9071C39.4263 64.9071 39.4263 64.9138 39.4196 64.9205C39.3663 65.0005 39.3196 65.0738 39.2729 65.1538C39.2663 65.1738 39.2529 65.1871 39.2463 65.2005C39.1996 65.2871 39.1596 65.3738 39.1263 65.4671C39.1129 65.4938 39.0996 65.5205 39.0796 65.5405C39.0729 65.5471 39.0663 65.5538 39.0529 65.5605C39.0396 65.5738 39.0263 65.5805 39.0129 65.5871C38.9996 65.5871 38.9929 65.5871 38.9796 65.5938C38.9663 65.5938 38.9529 65.6005 38.9396 65.6071C38.9263 65.6071 38.9129 65.6071 38.9063 65.6071C38.8863 65.6071 38.8729 65.6071 38.8596 65.6071C38.7329 65.8405 38.5196 65.9938 38.5129 66.3471C38.5596 66.3671 38.6063 66.3805 38.6596 66.3938C38.9729 66.4671 39.3996 66.4338 39.7996 66.4205H40.0263C40.0796 66.4205 40.1396 66.4205 40.1929 66.4271C40.1929 66.4271 40.1929 66.4271 40.1996 66.4205H40.5596C40.5996 65.7538 42.0396 65.4538 42.2396 64.7605C42.3263 64.4605 42.1796 63.8538 42.2396 63.4138C42.4263 62.0471 43.5463 60.7138 43.6729 59.3405C43.9463 59.1071 44.2129 58.9138 44.4263 58.7871C45.1263 58.3605 45.2529 58.5471 46.2329 58.6205C48.3663 58.7738 50.4396 59.2805 52.6129 59.3738C54.3196 59.4471 55.9863 59.1271 57.7463 59.0471C57.7463 59.0471 59.1529 58.7605 59.9796 58.7671C60.0329 58.7671 60.0796 58.7671 60.1263 58.7671C60.1729 58.7871 60.2129 58.8338 60.2263 58.9005C60.3929 59.7871 60.6796 60.6738 60.8996 61.5671C61.0796 62.2871 61.2196 61.7938 61.2263 62.5271C61.2263 63.1671 61.1729 63.8538 60.8196 64.4071C60.4996 64.9205 59.8996 65.2938 59.7196 65.8738C59.7196 65.8738 59.7329 65.8738 59.7396 65.8738C59.7529 66.1338 59.4463 66.2471 59.6529 66.4605H61.4996C61.5396 65.8005 62.7263 65.5605 62.9263 64.8671C63.0129 64.5671 62.8663 63.9605 62.9263 63.5271C63.1263 62.0871 64.3663 60.6805 64.3729 59.2205C64.3729 59.2205 64.3729 58.4405 64.8196 57.5471C64.8663 57.4538 64.9129 57.3605 64.9729 57.2605C64.9729 57.2605 64.9729 57.2538 64.9729 57.2471C66.2729 55.7071 67.3196 53.4871 67.3596 51.0538C67.6929 51.3005 67.8929 51.9671 68.4529 51.7271C68.9129 51.1338 68.1796 51.1138 68.1996 50.5538C68.2396 49.6071 69.3596 49.0405 69.1263 48.0338L69.1596 48.0471ZM66.6596 46.5738L65.8529 45.3738C66.0396 45.2938 66.6063 43.9605 67.0929 44.8271C67.0996 44.8471 67.1129 44.8605 67.1196 44.8805C67.5329 45.7271 66.6596 46.5671 66.6596 46.5671V46.5738ZM67.5863 49.6405L67.3396 47.7138C67.5463 47.7138 68.3863 47.6738 68.6929 48.2271C68.6996 48.2471 68.6929 48.2671 68.6929 48.2871C68.7263 49.2338 67.5796 49.6405 67.5796 49.6405H67.5863Z" fill="#F0EFEE"/>
<defs>
<linearGradient id="paint0_linear_1041_49256" x1="79.9608" y1="89.2805" x2="40.9008" y2="41.8472" gradientUnits="userSpaceOnUse">
<stop stop-color="white"/>
<stop offset="0.09" stop-color="#F7F7F7"/>
<stop offset="0.22" stop-color="#E4E4E4"/>
<stop offset="0.37" stop-color="#C3C3C3"/>
<stop offset="0.54" stop-color="#969696"/>
<stop offset="0.73" stop-color="#5C5C5C"/>
<stop offset="0.94" stop-color="#171717"/>
<stop offset="1"/>
</linearGradient>
</defs>
</svg>
