<svg width="100" height="100" viewBox="0 0 52 53" fill="none" xmlns="http://www.w3.org/2000/svg">
<path d="M25.2106 4.89604C13.1882 4.89604 3.44336 14.6408 3.44336 26.6632C3.44336 37.864 11.8986 47.0819 22.77 48.2952C23.4044 48.3646 24.0492 48.3992 24.6975 48.4096C24.7356 48.4131 24.7703 48.42 24.8084 48.42C24.9436 48.4235 25.0788 48.4339 25.2106 48.4339C25.682 48.4339 26.15 48.4131 26.6146 48.3819C26.8884 48.3646 27.1588 48.3264 27.4292 48.2952C28.0914 48.2294 28.7396 48.1219 29.381 47.9971C29.7484 47.9243 30.109 47.8376 30.4695 47.7475C37.4271 46.0246 43.0431 40.9632 45.546 34.3488C45.65 34.0715 45.761 33.7976 45.8546 33.5134C45.9343 33.2742 46.021 33.0384 46.0972 32.7958C46.1874 32.4734 46.2532 32.1475 46.3295 31.8216C46.3399 31.787 46.3434 31.7592 46.3503 31.728C46.437 31.3675 46.5444 31.0104 46.6103 30.6395C46.7212 30.0328 46.8114 29.4227 46.8738 28.8022C46.9431 28.0984 46.9778 27.3843 46.9778 26.6598C46.9778 14.6374 37.233 4.89258 25.2106 4.89258V4.89604Z" fill="#FFFDFC"/>
<path style="mix-blend-mode:multiply" opacity="0.37" d="M34.7851 24.8744C35.111 25.1274 35.6067 25.0824 35.7003 25.4845C35.8251 26.0045 35.2393 26.2992 35.2185 26.7949C35.2081 27.0896 35.5894 27.0965 35.3502 27.405C35.059 27.5298 34.955 27.1832 34.7817 27.0549C34.7574 28.3168 34.2166 29.4746 33.5406 30.2754C33.5406 30.2754 33.5406 30.2754 33.5406 30.2824C33.5094 30.3309 33.4851 30.3829 33.4609 30.4314C33.2286 30.896 33.2286 31.3016 33.2286 31.3016C33.2217 32.0608 32.5769 32.7888 32.4763 33.541C32.4451 33.7664 32.5214 34.0818 32.4763 34.2378C32.3723 34.5984 31.7553 34.7232 31.7345 35.0664H30.7742C30.6633 34.9554 30.8227 34.8965 30.8193 34.7613C30.8193 34.7613 30.8123 34.7613 30.8089 34.7613C30.9025 34.4562 31.211 34.2656 31.3809 33.9986C31.5611 33.7109 31.5923 33.3538 31.5923 33.021C31.5923 32.6397 31.5161 32.8962 31.4225 32.5218C31.3046 32.0573 31.1555 31.5962 31.0723 31.1352C31.0654 31.097 31.0446 31.0762 31.0203 31.0658C30.9961 31.0658 30.9718 31.0658 30.9441 31.0658C30.5142 31.0624 29.7827 31.2114 29.7827 31.2114C28.8641 31.253 28.0009 31.4194 27.1134 31.3813C25.9867 31.3328 24.9051 31.0693 23.7958 30.9896C23.2862 30.9514 23.2203 30.8544 22.8563 31.0762C22.7489 31.1421 22.6067 31.2426 22.4646 31.364C22.3987 32.0816 21.8163 32.7714 21.7193 33.4821C21.6881 33.7074 21.7643 34.0229 21.7193 34.1824C21.6153 34.5429 20.8665 34.6989 20.8457 35.0456H20.6585C20.6585 35.0456 20.6585 35.0456 20.655 35.049C20.6273 35.049 20.5995 35.049 20.5683 35.0456H20.4505C20.2425 35.049 20.0206 35.0698 19.8577 35.0317C19.8299 35.0248 19.8057 35.0178 19.7814 35.004C19.7814 34.8168 19.8923 34.7405 19.9617 34.6192C19.9686 34.6192 19.979 34.6192 19.9859 34.6192C19.9929 34.6192 19.9998 34.6192 20.0033 34.6192C20.0102 34.6192 20.0171 34.6192 20.0241 34.6122C20.031 34.6122 20.0345 34.6122 20.0414 34.6088C20.0483 34.6088 20.0553 34.5984 20.0622 34.5949C20.0657 34.5949 20.0726 34.588 20.0761 34.5845C20.0865 34.5741 20.0934 34.5602 20.1003 34.5464C20.1177 34.4978 20.1385 34.4528 20.1627 34.4077C20.1662 34.4008 20.1731 34.3938 20.1766 34.3834C20.2009 34.3418 20.2251 34.3002 20.2529 34.2621C20.2529 34.2621 20.2529 34.2586 20.2563 34.2552C20.343 34.1269 20.4366 34.0021 20.4955 33.86C20.5059 33.8322 20.5129 33.808 20.5233 33.7802C20.5614 33.6728 20.5961 33.5618 20.6238 33.4474C20.6411 33.3781 20.655 33.3088 20.6689 33.236C20.6689 33.229 20.6689 33.2256 20.6723 33.2186C20.6862 33.1424 20.7035 33.0696 20.7174 32.9933C20.7486 32.8512 20.7729 32.709 20.7937 32.5669C20.8179 32.4109 20.8318 32.2549 20.8422 32.0989C20.8422 32.092 20.8422 32.085 20.8422 32.0781C20.8075 31.981 20.7417 31.8632 20.6169 31.7488C20.5302 31.669 20.4158 31.5893 20.2633 31.5165C20.1905 31.4818 20.1073 31.4472 20.0171 31.4125C19.7502 31.3189 19.4035 31.2426 18.9529 31.1976C18.107 31.1317 17.2889 31.0208 16.2038 30.9445C15.3059 30.8786 14.4185 30.4141 13.2363 30.5077L30.483 47.7544C37.4406 46.0314 43.0566 40.9701 45.5595 34.3557L34.9585 23.7546C35.1283 24.0389 35.1318 24.4653 34.8025 24.8778L34.7851 24.8744Z" fill="url(#paint0_linear_1208_36285)"/>
<path d="M35.7047 25.4845C35.6077 25.0789 35.1154 25.124 34.7895 24.8744C35.1189 24.4618 35.1154 24.0354 34.9455 23.7512C34.7167 23.3664 34.1829 23.2381 33.7426 23.7373C32.6991 22.6314 31.3333 22.1634 29.4197 22.0802C24.5005 21.8653 20.1047 22.6141 17.3279 24.5242C16.8981 24.8224 15.6917 26.105 15.1023 26.053C14.8181 26.0288 14.6725 25.6024 14.2738 25.5712C13.9861 25.5504 13.7399 25.6509 13.7053 26.008C14.1802 26.2021 14.6343 26.417 14.5338 27.1866C14.0831 27.3149 14.2495 27.7829 14.097 28.192C13.9341 28.6322 13.4661 28.7952 13.1818 29.1072C12.9322 29.0933 12.7069 29.0968 12.6133 29.2389C12.6826 29.7936 12.9703 30.1333 13.2234 30.5042C14.4055 30.4106 15.293 30.8752 16.1909 30.941C17.2759 31.0173 18.0941 31.1317 18.9399 31.1941C19.3941 31.2392 19.7373 31.3154 20.0042 31.409C20.0943 31.4402 20.1775 31.4749 20.2503 31.513C20.4029 31.5858 20.5173 31.6656 20.6039 31.7453C20.7287 31.8597 20.7946 31.9776 20.8293 32.0746C20.8293 32.0816 20.8293 32.0885 20.8293 32.0954C20.8189 32.2514 20.8015 32.4109 20.7807 32.5634C20.7599 32.7056 20.7357 32.8477 20.7045 32.9898C20.6871 33.0626 20.6733 33.1389 20.6594 33.2152C20.6594 33.2221 20.6594 33.2256 20.6559 33.2325C20.6421 33.3018 20.6247 33.3712 20.6109 33.444C20.5831 33.5584 20.5519 33.6693 20.5103 33.7768C20.4999 33.8045 20.493 33.8288 20.4826 33.8565C20.4237 33.9986 20.3301 34.1234 20.2434 34.2517C20.2434 34.2517 20.2434 34.2552 20.2399 34.2586C20.2122 34.3002 20.1879 34.3384 20.1637 34.38C20.1602 34.3904 20.1533 34.3973 20.1498 34.4042C20.1255 34.4493 20.1047 34.4944 20.0874 34.5429C20.0805 34.5568 20.0735 34.5706 20.0631 34.581C20.0597 34.5845 20.0562 34.588 20.0493 34.5914C20.0423 34.5984 20.0354 34.6018 20.0285 34.6053C20.0215 34.6053 20.0181 34.6053 20.0111 34.6088C20.0042 34.6088 19.9973 34.6122 19.9903 34.6157C19.9834 34.6157 19.9765 34.6157 19.973 34.6157C19.9626 34.6157 19.9557 34.6157 19.9487 34.6157C19.8829 34.737 19.7719 34.8168 19.7685 35.0005C19.7927 35.0109 19.817 35.0178 19.8447 35.0248C20.0077 35.0629 20.2295 35.0456 20.4375 35.0386H20.5554C20.5831 35.0386 20.6143 35.0386 20.6421 35.0421C20.6421 35.0421 20.6421 35.0421 20.6455 35.0386H20.8327C20.8535 34.692 21.6023 34.536 21.7063 34.1754C21.7514 34.0194 21.6751 33.704 21.7063 33.4752C21.8034 32.7645 22.3858 32.0712 22.4517 31.357C22.5938 31.2357 22.7325 31.1352 22.8434 31.0693C23.2074 30.8474 23.2733 30.9445 23.7829 30.9826C24.8922 31.0624 25.9703 31.3258 27.1005 31.3744C27.9879 31.4125 28.8546 31.2461 29.7698 31.2045C29.7698 31.2045 30.5013 31.0554 30.9311 31.0589C30.9589 31.0589 30.9831 31.0589 31.0074 31.0589C31.0317 31.0693 31.0525 31.0936 31.0594 31.1282C31.1461 31.5893 31.2951 32.0504 31.4095 32.5149C31.5031 32.8893 31.5759 32.6328 31.5794 33.0141C31.5794 33.3469 31.5517 33.704 31.3679 33.9917C31.2015 34.2586 30.8895 34.4528 30.7959 34.7544C30.7959 34.7544 30.8029 34.7544 30.8063 34.7544C30.8133 34.8896 30.6538 34.9485 30.7613 35.0594H31.7215C31.7423 34.7162 32.3594 34.5914 32.4634 34.2309C32.5085 34.0749 32.4322 33.7594 32.4634 33.5341C32.5674 32.7853 33.2122 32.0538 33.2157 31.2946C33.2157 31.2946 33.2157 30.889 33.4479 30.4245C33.4722 30.376 33.4965 30.3274 33.5277 30.2754C33.5277 30.2754 33.5277 30.272 33.5277 30.2685C34.2037 29.4677 34.7479 28.3133 34.7687 27.048C34.9421 27.1762 35.0461 27.5229 35.3373 27.3981C35.5765 27.0896 35.1951 27.0792 35.2055 26.788C35.2263 26.2957 35.8087 26.001 35.6874 25.4776L35.7047 25.4845ZM34.4047 24.7184L33.9853 24.0944C34.0823 24.0528 34.377 23.3594 34.6301 23.8101C34.6335 23.8205 34.6405 23.8274 34.6439 23.8378C34.8589 24.2781 34.4047 24.7149 34.4047 24.7149V24.7184ZM34.8866 26.313L34.7583 25.3112C34.8658 25.3112 35.3026 25.2904 35.4621 25.5781C35.4655 25.5885 35.4621 25.5989 35.4621 25.6093C35.4794 26.1016 34.8831 26.313 34.8831 26.313H34.8866Z" fill="#0293A7"/>
<defs>
<linearGradient id="paint0_linear_1208_36285" x1="41.3198" y1="46.9258" x2="21.0086" y2="22.2605" gradientUnits="userSpaceOnUse">
<stop stop-color="white"/>
<stop offset="0.09" stop-color="#F7F7F7"/>
<stop offset="0.22" stop-color="#E4E4E4"/>
<stop offset="0.37" stop-color="#C3C3C3"/>
<stop offset="0.54" stop-color="#969696"/>
<stop offset="0.73" stop-color="#5C5C5C"/>
<stop offset="0.94" stop-color="#171717"/>
<stop offset="1"/>
</linearGradient>
</defs>
</svg>
