<svg width="32" height="32" viewBox="0 0 32 32" fill="none" xmlns="http://www.w3.org/2000/svg">
<path fill-rule="evenodd" clip-rule="evenodd" d="M22.7078 3.2919C22.801 3.38479 22.8748 3.49514 22.9253 3.61663C22.9757 3.73812 23.0016 3.86836 23.0016 3.9999C23.0016 4.13143 22.9757 4.26167 22.9253 4.38316C22.8748 4.50465 22.801 4.615 22.7078 4.7079L11.4138 15.9999L22.7078 27.2919C22.8956 27.4797 23.0011 27.7343 23.0011 27.9999C23.0011 28.2654 22.8956 28.5201 22.7078 28.7079C22.5201 28.8957 22.2654 29.0012 21.9998 29.0012C21.7343 29.0012 21.4796 28.8957 21.2918 28.7079L9.29183 16.7079C9.19871 16.615 9.12482 16.5047 9.07441 16.3832C9.024 16.2617 8.99805 16.1314 8.99805 15.9999C8.99805 15.8684 9.024 15.7381 9.07441 15.6166C9.12482 15.4951 9.19871 15.3848 9.29183 15.2919L21.2918 3.2919C21.3847 3.19877 21.4951 3.12488 21.6166 3.07447C21.7381 3.02406 21.8683 2.99811 21.9998 2.99811C22.1314 2.99811 22.2616 3.02406 22.3831 3.07447C22.5046 3.12488 22.6149 3.19877 22.7078 3.2919Z" fill="#0F0500"/>
</svg>
