<svg width="33" height="32" viewBox="0 0 33 32" fill="none" xmlns="http://www.w3.org/2000/svg">
<path fill-rule="evenodd" clip-rule="evenodd" d="M9.79217 3.2919C9.69904 3.38479 9.62515 3.49514 9.57474 3.61663C9.52433 3.73812 9.49838 3.86836 9.49838 3.9999C9.49838 4.13143 9.52433 4.26167 9.57474 4.38316C9.62515 4.50465 9.69904 4.615 9.79217 4.7079L21.0862 15.9999L9.79217 27.2919C9.60439 27.4797 9.4989 27.7343 9.4989 27.9999C9.4989 28.2654 9.60439 28.5201 9.79217 28.7079C9.97994 28.8957 10.2346 29.0012 10.5002 29.0012C10.7657 29.0012 11.0204 28.8957 11.2082 28.7079L23.2082 16.7079C23.3013 16.615 23.3752 16.5047 23.4256 16.3832C23.476 16.2617 23.502 16.1314 23.502 15.9999C23.502 15.8684 23.476 15.7381 23.4256 15.6166C23.3752 15.4951 23.3013 15.3848 23.2082 15.2919L11.2082 3.2919C11.1153 3.19877 11.0049 3.12488 10.8834 3.07447C10.7619 3.02406 10.6317 2.99811 10.5002 2.99811C10.3686 2.99811 10.2384 3.02406 10.1169 3.07447C9.99541 3.12488 9.88506 3.19877 9.79217 3.2919Z" fill="#0F0500"/>
</svg>
