<svg width="16" height="17" viewBox="0 0 16 17" fill="none" xmlns="http://www.w3.org/2000/svg">
<path fill-rule="evenodd" clip-rule="evenodd" d="M4.64511 2.14595C4.59854 2.19239 4.5616 2.24757 4.53639 2.30831C4.51119 2.36906 4.49821 2.43418 4.49821 2.49995C4.49821 2.56572 4.51119 2.63084 4.53639 2.69158C4.5616 2.75233 4.59854 2.8075 4.64511 2.85395L10.2921 8.49995L4.64511 14.1459C4.55122 14.2398 4.49848 14.3672 4.49848 14.4999C4.49848 14.6327 4.55122 14.7601 4.64511 14.8539C4.73899 14.9478 4.86633 15.0006 4.99911 15.0006C5.13188 15.0006 5.25922 14.9478 5.35311 14.8539L11.3531 8.85395C11.3997 8.8075 11.4366 8.75233 11.4618 8.69158C11.487 8.63084 11.5 8.56571 11.5 8.49995C11.5 8.43418 11.487 8.36906 11.4618 8.30831C11.4366 8.24757 11.3997 8.19239 11.3531 8.14595L5.35311 2.14595C5.30666 2.09938 5.25148 2.06244 5.19074 2.03724C5.12999 2.01203 5.06487 1.99905 4.99911 1.99905C4.93334 1.99905 4.86822 2.01203 4.80747 2.03724C4.74673 2.06244 4.69155 2.09938 4.64511 2.14595Z" fill="#94390F"/>
</svg>
