<?xml version="1.0" encoding="UTF-8"?>
<svg id="Layer_2" data-name="Layer 2" xmlns="http://www.w3.org/2000/svg" viewBox="0 0 129.9 147.52">
  <defs>
    <style>
      .cls-1, .cls-2, .cls-3 {
        fill: #fff;
      }

      .cls-2 {
        stroke-width: 3px;
      }

      .cls-2, .cls-3 {
        stroke: #fff;
        stroke-miterlimit: 10;
      }

      .cls-3 {
        stroke-width: 2px;
      }

      .cls-4 {
        fill: #de6b35;
      }

      .cls-5 {
        fill: #00b9d3;
      }

      .cls-6 {
        opacity: .17;
      }
    </style>
  </defs>
  <ellipse class="cls-6" cx="64.95" cy="139.59" rx="50.93" ry="7.93"/>
  <g>
    <path class="cls-4" d="m103.92,24.33C82.39,2.81,47.6,2.81,26.08,24.33c-21.72,21.72-21.72,56.51-.2,78.03l25.18,25.06c7.64,7.6,20,7.59,27.62-.03l25.22-25.22c21.52-21.52,21.72-56.31,0-77.83h0Z"/>
    <g>
      <circle class="cls-3" cx="88.84" cy="58.22" r="6.28"/>
      <circle class="cls-3" cx="75.5" cy="44.08" r="6.28"/>
      <circle class="cls-3" cx="54.39" cy="44.08" r="6.28"/>
      <circle class="cls-3" cx="41.06" cy="58.22" r="6.28"/>
      <path class="cls-1" d="m80.48,70.46c-1.91-.72-2.82-2.13-3.86-5.13,0,0,0,0,0,0-1.38-5.16-6.08-8.96-11.67-8.96s-9.96,3.53-11.51,8.41c0,.03-.02.06-.03.08-1.25,3.89-2.49,4.89-3.77,5.5l-.2.09c-3.82,1.81-6.45,5.71-6.45,10.21,0,6.24,5.06,11.3,11.3,11.3,2.47,0,4.76-.8,6.62-2.14,3.28-2.04,6.01-1.1,8.06,0,2.1,1.25,4.16,2.08,6.62,2.15,6.24.17,11.3-5.06,11.3-11.3,0-4.5-2.48-8.71-6.42-10.2Z"/>
    </g>
    <path class="cls-5" d="m109.02,18.25c-24.34-24.34-63.7-24.34-88.03,0-24.57,24.57-24.57,63.92-.23,88.26l28.48,28.34c8.64,8.6,22.62,8.58,31.24-.04l28.53-28.53c24.33-24.34,24.56-63.69,0-88.03h0Z"/>
    <g>
      <circle class="cls-2" cx="91.97" cy="56.59" r="7.11"/>
      <circle class="cls-2" cx="76.89" cy="40.59" r="7.11"/>
      <circle class="cls-2" cx="53.01" cy="40.59" r="7.11"/>
      <circle class="cls-2" cx="37.93" cy="56.59" r="7.11"/>
      <path class="cls-1" d="m82.52,70.44c-2.16-.82-3.19-2.41-4.36-5.8,0,0,0,0,0,0-1.56-5.84-6.88-10.13-13.2-10.13s-11.26,3.99-13.02,9.51c0,.03-.02.06-.03.09-1.42,4.41-2.82,5.53-4.26,6.22l-.22.11c-4.32,2.05-7.3,6.45-7.3,11.55,0,7.06,5.73,12.78,12.78,12.78,2.8,0,5.39-.9,7.49-2.42,3.71-2.31,6.8-1.24,9.12,0,2.38,1.41,4.71,2.35,7.49,2.43,7.06.19,12.78-5.73,12.78-12.78,0-5.08-2.81-9.85-7.26-11.54Z"/>
    </g>
  </g>
</svg>