<svg width="32" height="32" viewBox="0 0 32 32" fill="none" xmlns="http://www.w3.org/2000/svg">
<path d="M4 8H6.66667H28" stroke="#FFFDFC" stroke-width="2" stroke-linecap="round" stroke-linejoin="round"/>
<path d="M25.3327 7.99984V26.6665C25.3327 27.3737 25.0517 28.052 24.5516 28.5521C24.0515 29.0522 23.3733 29.3332 22.666 29.3332H9.33268C8.62544 29.3332 7.94716 29.0522 7.44706 28.5521C6.94697 28.052 6.66602 27.3737 6.66602 26.6665V7.99984M10.666 7.99984V5.33317C10.666 4.62593 10.947 3.94765 11.4471 3.44755C11.9472 2.94746 12.6254 2.6665 13.3327 2.6665H18.666C19.3733 2.6665 20.0515 2.94746 20.5516 3.44755C21.0517 3.94765 21.3327 4.62593 21.3327 5.33317V7.99984" stroke="#FFFDFC" stroke-width="2" stroke-linecap="round" stroke-linejoin="round"/>
<path d="M13.334 14.6665V22.6665" stroke="#FFFDFC" stroke-width="2" stroke-linecap="round" stroke-linejoin="round"/>
<path d="M18.666 14.6665V22.6665" stroke="#FFFDFC" stroke-width="2" stroke-linecap="round" stroke-linejoin="round"/>
</svg>
