<svg width="100" height="100" viewBox="0 0 52 52" fill="none" xmlns="http://www.w3.org/2000/svg">
<path d="M26.039 3.25842C13.8155 3.25842 3.9043 13.1696 3.9043 25.3966C3.9043 36.7846 12.4982 46.1584 23.5568 47.3926C23.803 47.4203 24.0526 47.4376 24.2987 47.455C24.739 47.4862 25.1827 47.5139 25.6264 47.5208C25.7616 47.5208 25.9003 47.5312 26.0355 47.5312C26.3163 47.5312 26.6006 47.5174 26.8779 47.5035C27.0096 47.4966 27.1414 47.4966 27.2696 47.4896C27.3355 47.4862 27.3979 47.4862 27.4638 47.4827C36.7856 46.8934 44.5267 40.5216 47.1787 31.9174C47.2099 31.8238 47.2446 31.7336 47.2758 31.6366C47.2896 31.5742 47.307 31.5083 47.3243 31.4459C47.508 30.7872 47.6744 30.1251 47.7992 29.4456C47.9136 28.832 48.0038 28.208 48.0696 27.5771C48.0696 27.5702 48.0696 27.5632 48.0696 27.5563C48.139 26.8456 48.1736 26.128 48.1736 25.3966C48.1736 13.1731 38.2659 3.25842 26.0355 3.25842H26.039Z" fill="#FFFDFC"/>
<path style="mix-blend-mode:multiply" opacity="0.37" d="M26.039 47.5346C26.3198 47.5346 26.604 47.5208 26.8814 47.5069C27.0131 47.5 27.1448 47.5 27.2731 47.493C27.339 47.4896 27.4014 47.4896 27.4672 47.4861C36.7891 46.8968 44.5302 40.525 47.1822 31.9208C47.2134 31.8272 47.248 31.737 47.2792 31.64C47.2931 31.5776 47.3104 31.5117 47.3278 31.4493C47.5115 30.7906 47.6779 30.1285 47.8027 29.449C47.9171 28.8354 48.0072 28.2114 48.0731 27.5805C48.0731 27.5736 48.0731 27.5666 48.0731 27.5597L39.2088 18.6954L31.5752 21.4549L17.615 26.3914L16.159 25.92L14.5608 29.0226L12.1758 32.8984L13.9195 34.6421L13.7427 36.9024L24.2987 47.4584C24.739 47.4896 25.1827 47.5173 25.6264 47.5242C25.7616 47.5242 25.9003 47.5346 26.0355 47.5346H26.039Z" fill="url(#paint0_linear_1208_36230)"/>
<path d="M39.2086 19.0249C39.2086 19.0249 39.732 18.5431 38.3939 18.6055C37.3297 18.654 37.3886 18.2935 37.2361 18.0092V17.9156C37.2361 17.7527 37.1043 17.6244 36.9449 17.6244C36.9171 17.6244 36.8894 17.6313 36.8617 17.6383C36.4457 17.302 35.4022 16.6433 34.0883 17.2049C34.0883 17.2049 32.9374 17.5828 31.1 19.5692C31.1 19.5692 30.3894 20.6785 28.611 21.722C28.611 21.722 27.3976 21.722 25.3072 22.7447C25.3072 22.7447 17.5315 24.0204 16.7758 24.7727C16.7758 24.7727 15.5832 25.1713 14.727 27.5529C14.727 27.5529 15.0806 27.8649 12.1755 32.486C12.1755 32.486 11.6104 33.8449 13.4512 31.6089C13.4512 31.6089 14.9315 30.1703 15.3024 28.3537C15.3059 28.3364 15.3094 28.3225 15.3128 28.3052C15.663 26.4956 16.2974 26.7487 16.5955 26.3985C16.4776 26.5372 15.6734 27.5841 15.9819 29.3729C16.3875 30.5308 15.1672 32.1116 15.1672 32.1116C15.1672 32.1116 14.4358 33.6161 13.5379 34.1396L13.7459 36.8991H15.0633C15.0633 36.8991 16.1067 36.9199 14.9176 35.9804C14.9176 35.9804 13.8742 36.022 14.9384 34.8745C14.9384 34.8745 16.8 32.3855 18.1382 31.3836C18.1382 31.3836 19.4555 30.5065 19.9582 28.7905C19.9582 28.7905 22.5339 28.5548 24.2569 28.7281C24.5931 28.7697 24.9086 28.8252 25.2032 28.898C25.8758 29.0609 26.4374 29.2897 26.9054 29.5428C27.3976 29.8132 27.7859 30.1113 28.0841 30.3887C28.3614 30.7076 28.7843 31.446 28.7704 33.0025C28.7635 33.5433 28.812 34.2852 29.027 35.1484C29.1657 35.71 29.2627 36.0844 29.3321 36.334C29.3321 36.334 29.4083 36.2889 29.3528 36.4935C29.332 36.5732 29.2731 37.0516 29.5955 36.8228H30.3339L30.8643 36.906L30.8955 36.8228C30.9718 36.8401 30.9024 37.0447 30.899 37.0551C30.8608 37.3047 31.8766 36.8575 32.2441 37.0863C32.3134 37.1209 32.4035 37.1417 32.504 37.1417C32.6531 37.1417 32.7848 37.0932 32.8576 37.0239C32.8576 37.0239 32.8195 36.9927 32.8195 36.9961C32.8195 36.9892 32.8715 37.0135 32.8715 37.0065C32.8993 36.9753 32.9166 36.9372 32.9166 36.8991C32.9166 36.8783 32.9097 36.8575 32.9027 36.8401C32.9998 36.0463 32.3654 36.1815 32.3654 36.1815C32.0742 36.2647 31.6928 36.0359 31.6547 35.9527C31.5854 35.7828 31.5195 35.5991 31.471 35.4015C31.2422 34.462 31.2214 29.5497 31.7414 29.0679C31.7414 29.0679 32.9755 27.6881 33.2251 24.4884C33.2251 24.4884 33.7937 21.9751 34.9689 21.4204C35.007 21.4308 36.7161 21.8225 37.711 21.5071C37.8531 21.6076 37.9848 21.6423 37.9848 21.6423C39.3715 22.0617 39.0734 20.0823 39.0145 19.7321C39.0145 19.7321 39.0145 19.7252 39.0145 19.7217C39.0145 19.7217 39.4339 19.3681 39.2017 19.0319L39.2086 19.0249ZM30.2334 35.9041C30.164 35.7343 30.0982 35.5505 30.0497 35.3529C29.8694 34.6145 29.8174 31.4252 30.0566 29.8583C30.2056 30.4441 30.4656 31.6228 30.2784 32.07C30.2784 32.07 29.9838 33.3457 30.4448 35.1831C30.5454 35.5817 30.6217 35.8937 30.684 36.1364C30.4622 36.0948 30.2576 35.9596 30.2299 35.9007L30.2334 35.9041Z" fill="#0293A7"/>
<defs>
<linearGradient id="paint0_linear_1208_36230" x1="48.0176" y1="47.2712" x2="18.7832" y2="21.7496" gradientUnits="userSpaceOnUse">
<stop stop-color="white"/>
<stop offset="0.09" stop-color="#F7F7F7"/>
<stop offset="0.22" stop-color="#E4E4E4"/>
<stop offset="0.37" stop-color="#C3C3C3"/>
<stop offset="0.54" stop-color="#969696"/>
<stop offset="0.73" stop-color="#5C5C5C"/>
<stop offset="0.94" stop-color="#171717"/>
<stop offset="1"/>
</linearGradient>
</defs>
</svg>
