<svg width="50" height="50" viewBox="0 0 50 50" fill="none" xmlns="http://www.w3.org/2000/svg">
<g clip-path="url(#clip0_1593_36842)">
<path d="M25 50C38.8071 50 50 38.8071 50 25C50 11.1929 38.8071 0 25 0C11.1929 0 0 11.1929 0 25C0 38.8071 11.1929 50 25 50Z" fill="#0293A7"/>
<path d="M41.9603 14.7337L32.419 8.37286C32.2661 8.24915 31.2249 7.48111 28.9499 7.48111C28.0255 7.48111 26.9001 7.60826 25.5462 7.95534L20.5135 9.42784C20.4963 9.433 20.4792 9.43987 20.462 9.44846C20.419 9.46908 19.3778 9.96908 18.4414 9.34537L17.0462 8.42956V7.94675C17.0462 7.77836 16.9087 7.6409 16.7403 7.6409H12.5754C12.407 7.6409 12.2695 7.77836 12.2695 7.94675V18.2371C12.2695 18.4055 12.407 18.543 12.5754 18.543H16.7403C16.9087 18.543 17.0462 18.4055 17.0462 18.2371V16.6718C18.1939 17.2904 21.2403 18.5636 24.5943 16.8866C25.1836 16.5911 25.8658 16.4244 26.5651 16.4055L30.6888 16.2904C31.3881 16.2715 32.053 16.0825 32.6132 15.7457C33.1458 15.4261 33.7609 14.8763 34.0616 13.9656C37.0118 15.9553 39.2764 16.7114 40.797 16.2148C41.797 15.8866 42.0719 15.1237 42.0822 15.0911C42.1286 14.9588 42.0788 14.8127 41.962 14.7354L41.9603 14.7337ZM40.5822 15.6375C39.6407 15.9347 37.7712 15.7698 34.206 13.3213C34.2231 13.189 34.2352 13.0516 34.2403 12.9072C34.2455 12.744 34.1871 12.5911 34.0719 12.4725C33.9585 12.3557 33.8005 12.2887 33.6372 12.2887H27.0908C26.9225 12.2887 26.785 12.4261 26.785 12.5945C26.785 12.7629 26.9225 12.9004 27.0908 12.9004H33.6269C33.5874 13.9313 33.1407 14.7096 32.2953 15.2165C31.8245 15.4983 31.2627 15.6564 30.6699 15.6735L26.5462 15.7887C25.7472 15.811 24.9981 15.9949 24.3176 16.3333C20.895 18.0447 17.7231 16.366 17.0444 15.9605V9.1598L18.1011 9.85396C19.2541 10.622 20.5015 10.1031 20.706 10.0069L25.7042 8.54297C30.2231 7.38489 32.017 8.83506 32.0341 8.84881C32.0427 8.85568 32.053 8.86427 32.0633 8.87114L41.3846 15.0842C41.2592 15.256 41.017 15.4966 40.5805 15.634L40.5822 15.6375Z" fill="white" stroke="white" stroke-miterlimit="10"/>
<path d="M41.1749 26.2114C41.0959 25.4107 40.4223 24.8076 39.6096 24.8076H34.0495C33.888 23.9777 33.424 23.2732 32.668 22.7114C30.0031 20.732 24.7642 21.1856 24.7179 21.1942C23.3965 21.4193 22.1783 21.933 21.0976 22.7199C20.3794 23.2423 19.7711 23.9055 19.2866 24.6942L11.3398 37.6289L24.9086 45.7045L24.9326 45.6633L25.0014 45.7045L25.7935 44.1718L29.2247 38.2337L29.2333 38.2165C30.5701 35.433 31.9429 34.8059 32.6423 34.6804C33.1938 34.5808 33.6457 34.4725 34.0649 34.3368L36.5993 33.5155C37.412 33.2526 38.1113 32.7457 38.6199 32.0498C40.4498 29.5516 41.3089 27.5876 41.1732 26.2114H41.1749ZM38.2041 31.744C37.7591 32.3505 37.1491 32.7921 36.4412 33.0224L33.9069 33.8437C33.5117 33.9725 33.0804 34.0756 32.5529 34.1701C31.7574 34.3127 30.2075 34.9983 28.7728 37.9811L26.1663 42.4914L13.3278 35.3763L19.7264 24.9622C20.1749 24.2337 20.7385 23.6186 21.4 23.1358C22.4154 22.3952 23.5615 21.9124 24.8038 21.7011C24.9704 21.6736 26.2883 21.5911 27.833 21.7354C29.2196 21.866 31.1319 22.2114 32.3605 23.1237C33.0666 23.6478 33.4756 24.311 33.5735 25.0945L33.601 25.3213H38.333C38.5203 25.8368 39.1457 27.2698 40.4292 27.7973C40.1216 28.7337 39.4704 30.0138 38.2041 31.7406V31.744Z" fill="white" stroke="white" stroke-miterlimit="10"/>
<path d="M24.5233 23.0224L24.0233 23.1512L25.6435 29.4657C25.8051 30.0911 25.7105 30.7457 25.3858 31.2612C24.9459 31.9588 24.2776 32.1925 23.3961 31.9536L18.7157 29.3471L18.4648 29.799L23.1727 32.4193L23.1985 32.4347L23.2277 32.4433C23.525 32.5258 23.793 32.5636 24.037 32.5636C24.9563 32.5636 25.5078 32.0378 25.8222 31.5378C26.2226 30.9021 26.3394 30.1014 26.1435 29.3385L24.5233 23.0241V23.0224Z" fill="white"/>
<path d="M28.6678 25.5499C29.0236 25.5499 29.3121 25.2614 29.3121 24.9055C29.3121 24.5497 29.0236 24.2612 28.6678 24.2612C28.3119 24.2612 28.0234 24.5497 28.0234 24.9055C28.0234 25.2614 28.3119 25.5499 28.6678 25.5499Z" fill="white" stroke="white" stroke-miterlimit="10"/>
</g>
<defs>
<clipPath id="clip0_1593_36842">
<rect width="50" height="50" fill="white"/>
</clipPath>
</defs>
</svg>
