<svg width="50" height="50" viewBox="0 0 50 50" fill="none" xmlns="http://www.w3.org/2000/svg">
<g clip-path="url(#clip0_1593_36862)">
<path d="M25 50C38.8071 50 50 38.8071 50 25C50 11.1929 38.8071 0 25 0C11.1929 0 0 11.1929 0 25C0 38.8071 11.1929 50 25 50Z" fill="#0293A7"/>
<path d="M42.7457 32.5893C42.7337 32.5533 42.4227 31.6873 41.2904 31.3179C39.5704 30.7543 37.0052 31.6117 33.6667 33.8642C33.3282 32.8333 32.6306 32.2113 32.0275 31.8505C31.3935 31.4691 30.6409 31.2577 29.8488 31.2354L25.1821 31.1048C24.39 31.0825 23.6186 30.8935 22.9519 30.5601C19.1564 28.6615 15.7079 30.1014 14.4089 30.8024V29.0309C14.4089 28.8402 14.2543 28.6838 14.0619 28.6838H9.34708C9.15636 28.6838 9 28.8385 9 29.0309V40.6787C9 40.8694 9.15464 41.0258 9.34708 41.0258H14.0619C14.2526 41.0258 14.4089 40.8711 14.4089 40.6787V40.1323L15.988 39.0945C17.0481 38.3883 18.2268 38.9536 18.2749 38.9777C18.2938 38.9862 18.3127 38.9948 18.3333 39L24.0292 40.6667C25.5619 41.0601 26.8368 41.2027 27.8832 41.2027C30.4588 41.2027 31.6375 40.335 31.811 40.1941L42.6117 32.9931C42.7423 32.9055 42.799 32.7405 42.7474 32.5911L42.7457 32.5893ZM31.4107 39.6237C31.4003 39.6306 31.3883 39.6409 31.378 39.6478C31.3574 39.6649 29.3282 41.3058 24.2131 39.9948L18.555 38.3385C18.323 38.2302 16.9124 37.6426 15.6065 38.512L14.4107 39.2972V31.5962C15.1804 31.1374 18.7698 29.2371 22.6443 31.1735C23.4124 31.5584 24.2612 31.7663 25.1667 31.7904L29.8333 31.921C30.5052 31.9399 31.1426 32.1185 31.6735 32.4381C32.6289 33.012 33.1357 33.8935 33.1804 35.0601H25.7818C25.5911 35.0601 25.4347 35.2148 25.4347 35.4072C25.4347 35.5996 25.5893 35.7543 25.7818 35.7543H33.1924C33.3763 35.7543 33.5567 35.6787 33.6856 35.5447C33.8144 35.4124 33.8814 35.2371 33.8746 35.0533C33.8694 34.89 33.8557 34.7337 33.835 34.5842C37.8711 31.8144 39.988 31.6271 41.0533 31.9639C41.5464 32.1203 41.823 32.3917 41.9639 32.5859L31.4141 39.6203L31.4107 39.6237Z" fill="white" stroke="white" stroke-miterlimit="10"/>
<path d="M21.648 26.9622C21.0277 26.9622 20.4281 26.8557 19.9092 26.6065C18.8232 26.0825 18.1067 25.1323 17.8387 23.8574C17.4796 22.1495 18.0191 20.0309 19.1531 18.7027C19.4641 18.3368 19.8164 18.0137 20.1583 17.701C20.4573 17.4261 20.739 17.1684 20.9968 16.8814C21.3215 16.5223 21.6171 16.1082 21.9023 15.7096C22.4538 14.9364 23.026 14.1375 23.8662 13.6134C25.5672 12.5533 28.0294 13.0893 29.1325 14.7629C29.3593 15.1065 29.5243 15.4777 29.6841 15.8351C29.8215 16.1409 29.9504 16.4313 30.1136 16.701C30.4298 17.2216 30.8645 17.6546 31.3267 18.1134C31.6428 18.4278 31.9693 18.7526 32.2579 19.11C32.959 19.9811 33.2889 21.0326 33.2098 22.1512C33.0999 23.7199 32.2012 25.2079 30.8645 26.0344C29.6806 26.7663 28.3164 26.8746 27.0226 26.3368C26.8903 26.2818 26.7614 26.2199 26.636 26.1615C26.2734 25.9897 25.9315 25.8265 25.6033 25.8608C25.3782 25.8832 25.1514 26 24.9126 26.1237L24.8439 26.1581C23.9366 26.622 22.7579 26.9622 21.648 26.9622Z" fill="white"/>
<path d="M29.2369 12.768C28.9173 12.768 28.6046 12.6993 28.328 12.5601C27.7025 12.244 27.273 11.6924 27.0822 10.9656C26.7558 9.7182 27.1922 8.15979 27.7919 7.2646C28.2953 6.51202 29.0788 6.12886 29.8847 6.23711C30.7094 6.34879 31.3778 6.94157 31.6733 7.82302C31.8829 8.45188 31.9603 9.23023 31.8847 9.95532C31.7902 10.8746 31.4104 11.6615 30.8176 12.1752C30.3692 12.5618 29.7936 12.768 29.2386 12.768H29.2369Z" fill="white"/>
<path d="M33.4126 17.701C32.8971 17.701 32.3954 17.5137 31.9865 17.1546C31.3336 16.579 31.0552 15.6976 31.2631 14.8539C31.5191 13.8127 32.4813 12.7972 33.3009 12.3299C33.8576 12.0137 34.7202 11.9089 35.3009 12.4278C35.6153 12.7096 35.8336 13.0945 35.9452 13.5704C36.2373 14.811 35.7391 16.4588 34.8559 17.1701C34.6514 17.335 34.4349 17.4622 34.2133 17.5481C33.9487 17.6495 33.6789 17.6993 33.4126 17.6993V17.701Z" fill="white"/>
<path d="M22.7478 12.8453C22.4712 12.8453 22.1894 12.7955 21.9231 12.6907C21.1224 12.3745 20.5571 11.7491 20.2873 10.8814C19.9334 9.74396 20.1567 8.29551 20.8423 7.27833C20.9609 7.10307 21.1499 6.84878 21.4179 6.6718C21.8062 6.41407 22.3114 6.3419 22.8062 6.47077C23.2083 6.57558 23.588 6.8041 23.9368 7.14946C24.1653 7.37455 24.3629 7.65634 24.5279 7.98451C25.1602 9.25084 25.1533 10.9175 24.509 11.945C24.1516 12.5172 23.4626 12.8471 22.7495 12.8471L22.7478 12.8453Z" fill="white"/>
<path d="M17.9763 17.2199C17.1928 17.2199 16.5519 16.8247 16.1567 16.0928C15.5279 14.9278 15.631 13.0481 16.3767 12.0704C16.4866 11.9261 16.6275 11.7663 16.8371 11.6752C17.0107 11.5996 17.1894 11.591 17.3268 11.5927C18.1963 11.5996 19.0262 12.0137 19.6018 12.7285C20.1945 13.4639 20.4282 14.3934 20.2426 15.2766C20.198 15.4931 20.1207 15.7062 20.0158 15.9106C19.6258 16.6615 18.9093 17.1615 18.1447 17.2147C18.088 17.2182 18.0313 17.2199 17.9763 17.2199Z" fill="white"/>
<path d="M27.8796 21.0137C27.8796 20.3419 27.6064 19.799 26.316 19.4381V18.067C26.5995 18.201 26.7129 18.4433 26.7576 18.6924H27.7473C27.6837 18.0601 27.2765 17.4295 26.316 17.2629V16.5653H25.4242V17.244C24.4552 17.3608 23.9449 17.9381 23.9449 18.7062C23.9449 19.3746 24.2748 19.8402 25.4242 20.1615V21.768C25.0634 21.6581 24.8332 21.4106 24.7438 21.0103H23.7559C23.8624 21.8075 24.3882 22.4278 25.426 22.5584V23.4828H26.3177V22.5567C27.3521 22.4192 27.8813 21.8179 27.8813 21.0154L27.8796 21.0137ZM24.95 18.5979C24.95 18.2869 25.1218 18.0842 25.426 18.0017V19.1838C25.0669 19.0412 24.95 18.878 24.95 18.5962V18.5979ZM26.3177 21.7938V20.4175C26.7438 20.5911 26.8779 20.7972 26.8779 21.1289C26.8779 21.4605 26.7077 21.6993 26.3177 21.7938Z" fill="#0293A7"/>
</g>
<defs>
<clipPath id="clip0_1593_36862">
<rect width="50" height="50" fill="white"/>
</clipPath>
</defs>
</svg>
