<svg width="100" height="100" viewBox="0 0 52 52" fill="none" xmlns="http://www.w3.org/2000/svg">
<path d="M48.4559 25.622C48.4559 27.0884 48.3172 28.5236 48.0399 29.9103C48.0295 29.9831 48.0122 30.0524 47.9983 30.1252C47.9844 30.2084 47.9671 30.2847 47.9498 30.3644C47.9359 30.4476 47.9186 30.5169 47.9012 30.5932C47.8874 30.6556 47.8735 30.7111 47.8596 30.7735C47.8284 30.9052 47.7972 31.0439 47.7591 31.1791C47.714 31.3628 47.6655 31.55 47.6135 31.7303C45.9876 37.478 42.1154 42.2793 37.0159 45.1393C36.3226 45.5345 35.605 45.8847 34.8735 46.1932C34.8146 46.2209 34.7522 46.2452 34.6932 46.2695C34.246 46.4567 33.7954 46.63 33.3343 46.7825C32.9911 46.9073 32.641 47.0148 32.2874 47.1153C32.1903 47.1431 32.0967 47.1708 31.9996 47.1951C31.4068 47.3615 30.8002 47.5001 30.19 47.6111C28.8623 47.8572 27.4964 47.9855 26.0959 47.9855C13.7476 47.9855 3.73242 37.9737 3.73242 25.6255C3.73242 13.2772 13.7442 3.25854 26.0924 3.25854C38.4407 3.25854 48.4559 13.2703 48.4559 25.622Z" fill="#FFFDFC"/>
<path style="mix-blend-mode:multiply" opacity="0.18" d="M48.0403 29.9103C48.0299 29.9831 48.0125 30.0524 47.9987 30.1252C47.9848 30.2084 47.9675 30.2847 47.9501 30.3644C47.9363 30.4476 47.9189 30.5169 47.9016 30.5932C47.8877 30.6556 47.8739 30.7111 47.86 30.7735C47.8288 30.9052 47.7976 31.0439 47.7595 31.1791C47.7144 31.3628 47.6659 31.55 47.6139 31.7303C45.988 37.478 42.1157 42.2793 37.0163 45.1393C36.3229 45.5345 35.6053 45.8847 34.8739 46.1932C34.8149 46.2209 34.7525 46.2452 34.6936 46.2695C34.2464 46.4567 33.7957 46.63 33.3347 46.7825C32.9915 46.9073 32.6413 47.0148 32.2877 47.1153C32.1907 47.1431 32.0971 47.1708 32 47.1951L13.8555 29.0505L19.0277 23.8505L28.5299 21.93L32.3085 25.7087L37.6992 19.5623L48.0472 29.9103H48.0403Z" fill="url(#paint0_linear_1208_36277)"/>
<path d="M24.5506 31.1237C24.5506 31.1237 22.5711 30.7112 23.3407 32.7877C23.573 33.4083 23.4898 34.1224 23.0703 34.6355C23.0634 34.6424 23.0564 34.6528 23.0495 34.6597C22.5711 35.2248 21.6455 35.0445 21.4063 34.3443C21.018 33.2176 20.186 31.3699 18.938 31.5848C18.5671 31.6472 18.1927 31.668 17.8252 31.5848C16.9898 31.4011 15.7036 30.9504 15.3847 29.8688C15.3847 29.8688 12.49 29.5776 14.2268 26.8771C14.2268 26.8771 17.4127 23.0187 19.5343 22.9216C19.5343 22.9216 18.9346 20.9421 19.3367 19.3995C19.7007 17.9989 21.597 17.7147 22.3631 18.9419C22.9871 19.9403 24.3564 21.1432 27.3412 21.1883C27.8474 21.1952 28.3188 21.4691 28.5303 21.9301C28.8111 22.5507 28.6135 23.3653 25.906 23.5941C25.906 23.5941 26.7762 23.7987 27.5666 24.2077C28.2252 24.5475 29.033 24.3984 29.4906 23.8125C30.482 22.5472 32.2882 20.6232 34.6836 19.6387C34.6836 19.6387 35.1482 19.4203 35.7791 18.9869C36.4551 18.5224 37.405 18.7928 37.6962 19.5624C37.769 19.7565 37.8591 19.9611 37.97 20.1621C38.5282 21.1917 38.081 22.4813 36.9924 22.9077C36.722 23.0152 36.4482 23.1296 36.1847 23.2544C34.6247 23.9893 34.2988 26.0693 35.5676 27.2376C36.521 28.1147 37.7828 29.0819 38.9858 29.4043C39.7554 29.6123 39.9842 30.5933 39.4087 31.148C39.374 31.1827 39.3394 31.2139 39.3012 31.2485C37.6338 32.7877 35.065 32.7981 33.3178 31.3525C32.5932 30.7528 31.7716 29.8827 30.9154 28.6104C30.9154 28.6104 29.3242 26.4437 28.4679 27.1856C28.0554 27.5427 28.2495 28.2256 28.7764 28.3677C29.7367 28.6312 31.1996 29.3453 30.5306 31.2173C30.5306 31.2173 28.5026 33.436 24.5471 31.1203L24.5506 31.1237Z" fill="#0293A7"/>
<defs>
<linearGradient id="paint0_linear_1208_36277" x1="36.1669" y1="38.2476" x2="27.9683" y2="24.4815" gradientUnits="userSpaceOnUse">
<stop stop-color="white"/>
<stop offset="1"/>
</linearGradient>
</defs>
</svg>
