<svg width="100" height="100" viewBox="0 0 52 52" fill="none" xmlns="http://www.w3.org/2000/svg">
<path d="M26.0668 3.25854C13.6319 3.25854 3.55078 13.3396 3.55078 25.778C3.55078 37.3601 12.2972 46.8935 23.543 48.1519C24.375 48.2455 25.2174 48.294 26.0702 48.294C26.559 48.294 27.0409 48.2732 27.5193 48.242C28.8886 48.1553 30.2233 47.9404 31.5164 47.6215C38.7513 45.8223 44.6031 40.5287 47.1719 33.63C47.619 32.4305 47.9692 31.1825 48.2049 29.8929C48.3228 29.2689 48.4129 28.6345 48.4788 27.9897C48.5481 27.2617 48.5862 26.5233 48.5862 25.7745C48.5862 13.3396 38.5052 3.25854 26.0702 3.25854H26.0668Z" fill="#FFFDFC"/>
<path style="mix-blend-mode:multiply" opacity="0.37" d="M47.168 33.6301L37.392 23.8541L29.0928 27.6847L18.0549 16.6469L18.6858 18.4079L17.008 16.73V17.6002L18.464 19.2295L19.0221 20.429L14.3906 21.9751L21.7885 29.373L22.3709 34.4967L21.7261 36.3895L21.0189 37.1279L31.5125 47.6215C38.7474 45.8223 44.5992 40.5287 47.168 33.6301Z" fill="url(#paint0_linear_1208_36242)"/>
<path d="M24.3334 36.9511C24.2953 36.9441 24.2676 36.9407 24.2676 36.9407C24.2676 36.9407 24.3265 36.9649 24.3334 36.9511Z" fill="#0293A7"/>
<path d="M16.9839 16.7508C16.9839 16.7508 16.9596 16.775 16.9492 16.7924C16.9735 16.7612 16.9978 16.7404 17.0116 16.73C17.0047 16.7334 16.9978 16.7404 16.9839 16.7508Z" fill="#0293A7"/>
<path d="M14.4808 22.0688C14.4357 22.0306 14.408 21.9994 14.3906 21.9786C14.4253 22.0272 14.512 22.1416 14.4808 22.0688Z" fill="#0293A7"/>
<path d="M14.3908 21.9749L14.377 21.9541C14.377 21.9541 14.3804 21.961 14.3908 21.9749Z" fill="#0293A7"/>
<path d="M38.4323 25.5388C37.6281 23.0255 35.7907 23.334 35.7907 23.334C35.399 22.9943 34.7195 22.5818 33.5305 22.2455C33.5305 22.2455 32.5078 21.7706 28.8955 22.9388C28.8817 22.9423 28.8678 22.9493 28.8539 22.9527C28.8539 22.9527 26.8745 23.0914 26.0043 22.3599C25.6958 22.0999 24.8603 21.9162 24.4443 21.9335C24.4443 21.9335 20.4022 18.5813 18.5926 18.0509L18.0553 16.6469L17.8577 17.7007H17.511C17.511 17.7007 16.8593 17.0178 16.9529 16.7959C16.8177 16.9554 16.5785 17.3679 17.0395 17.9538C17.0395 17.9538 16.5334 18.7234 16.0723 18.7823C16.0723 18.7823 16.0238 19.1914 16.0169 19.2781C16.0099 19.3647 14.4569 20.7757 14.4569 20.7757C14.4673 20.8207 14.1345 21.4655 14.3841 21.885C14.443 21.9855 14.4742 22.041 14.4846 22.0687C14.6371 22.1935 14.9561 22.3564 15.5107 22.1588C15.5107 22.1588 15.6355 21.7914 16.2006 21.8295L17.0673 21.6666C17.0673 21.6666 18.1489 21.9855 18.6203 21.41C18.6203 21.41 20.5027 23.8679 20.3086 25.0431C20.3086 25.0431 20.3225 28.3781 21.2897 28.8599C21.2897 28.8599 21.203 29.5047 21.5358 30.6279C21.5358 30.6279 21.9657 31.5847 21.8825 32.6213C21.8825 32.6213 21.9795 33.1205 22.0454 33.4567C22.0454 33.4567 22.1529 35.3599 21.8929 35.7933C21.8929 35.7933 21.3174 36.8263 21.0539 37.0725C20.7905 37.3151 21.0227 37.1279 21.0227 37.1279C21.0227 37.1279 21.5393 37.641 22.4891 37.0933C22.4891 37.0933 21.9969 36.1919 22.5585 36.0255C22.5585 36.0255 22.9329 35.8175 22.7526 35.4882C22.7526 35.4882 22.6555 33.3181 22.7699 32.9887C22.7734 32.9749 22.7803 32.9645 22.7873 32.9575C22.8185 32.9228 22.8393 32.8986 22.8497 32.8847L23.1617 29.9831C23.1617 29.9831 23.7995 31.2207 23.8134 31.6783C23.8134 31.6783 23.8966 32.7287 24.2606 33.1655C24.2606 33.1655 25.4081 35.5436 24.5657 36.1642C24.5657 36.1642 24.0318 36.6495 24.2398 36.8402C24.323 36.9164 24.3438 36.9511 24.3403 36.9615C24.5795 36.9962 25.4185 37.0794 25.4497 36.6149C25.4497 36.6149 24.9123 36.1677 25.519 35.5333C25.519 35.5333 24.8257 33.5087 24.999 32.5207C24.999 32.5207 24.5553 30.5239 24.8083 29.5914C25.9419 29.5221 27.4083 29.3834 28.2854 29.106C28.2854 29.106 29.3843 28.9327 30.1193 28.5583C30.8542 28.1874 31.9774 27.6362 32.8198 28.9397C32.8198 28.9397 33.6657 29.9658 33.6137 30.7597C33.6033 30.9399 33.6553 31.1271 33.7454 31.3247C33.8113 31.8725 33.8737 32.5207 33.8425 32.8292C33.7835 33.4186 33.6275 35.4293 32.4281 36.1538C32.4281 36.1538 31.6307 36.7154 32.3067 36.6807C32.9827 36.646 33.215 37.1002 33.3883 36.7501C33.5651 36.3999 33.0417 36.1052 33.6587 35.6442C33.6587 35.6442 33.9534 35.4258 33.9673 35.2525C33.9742 35.1346 34.2966 33.7757 34.6779 32.9194C34.7542 33.0962 34.8062 33.273 34.8131 33.4429C34.8547 34.3442 35.0142 35.4916 34.8166 35.8279C34.8166 35.8279 33.8633 36.9269 33.891 37.3325C33.891 37.3325 34.8686 37.5612 35.2257 37.4226C35.2361 37.4087 35.243 37.3948 35.2499 37.3775C35.5654 36.7466 34.6814 36.9927 35.3227 36.2509L35.503 35.9423C35.503 35.9423 35.9329 33.3423 35.7561 33.1863C35.5758 33.0303 35.9294 32.7634 35.9294 32.7634C35.9294 32.7634 34.9275 30.1322 35.4891 29.5463C35.4891 29.5463 37.9401 27.338 36.7753 24.8074C37.4374 25.31 37.3993 27.0573 37.1289 27.8788C36.7753 28.9431 37.3265 30.8463 37.3265 30.8463C37.4235 31.6783 37.6246 30.6799 37.6246 30.6799C38.4358 29.6781 39.247 28.0591 38.4393 25.5458L38.4323 25.5388Z" fill="#0293A7"/>
<defs>
<linearGradient id="paint0_linear_1208_36242" x1="47.8994" y1="50.114" x2="4.58343" y2="3.88258" gradientUnits="userSpaceOnUse">
<stop stop-color="white"/>
<stop offset="0.09" stop-color="#F7F7F7"/>
<stop offset="0.22" stop-color="#E4E4E4"/>
<stop offset="0.37" stop-color="#C3C3C3"/>
<stop offset="0.54" stop-color="#969696"/>
<stop offset="0.73" stop-color="#5C5C5C"/>
<stop offset="0.94" stop-color="#171717"/>
<stop offset="1"/>
</linearGradient>
</defs>
</svg>
