<svg width="100" height="100" viewBox="0 0 100 100" fill="none" xmlns="http://www.w3.org/2000/svg">
<path d="M50.1272 6.26649C26.2138 6.26649 6.82715 25.6532 6.82715 49.5732C6.82715 71.8465 23.6472 90.1798 45.2738 92.5998C46.8738 92.7798 48.4938 92.8732 50.1338 92.8732C51.0738 92.8732 52.0005 92.8332 52.9205 92.7732C55.5538 92.6065 58.1205 92.1932 60.6072 91.5798C74.5205 88.1198 85.7738 77.9398 90.7138 64.6732C91.5738 62.3665 92.2471 59.9665 92.7005 57.4865C92.9271 56.2865 93.1005 55.0665 93.2271 53.8265C93.3605 52.4265 93.4338 51.0065 93.4338 49.5665C93.4338 25.6532 74.0471 6.26649 50.1338 6.26649H50.1272Z" fill="#0293A7"/>
<path style="mix-blend-mode:multiply" opacity="0.37" d="M90.7072 64.6733L71.9072 45.8733L55.9472 53.24L34.7205 32.0133L35.9338 35.4L32.7072 32.1733V33.8467L35.5072 36.98L36.5805 39.2867L27.6738 42.26L41.9005 56.4867L43.0205 66.34L41.7805 69.98L40.4205 71.4L60.6005 91.58C74.5138 88.12 85.7672 77.94 90.7072 64.6733Z" fill="url(#paint0_linear_1041_49251)"/>
<path d="M46.7937 71.0599C46.7203 71.0466 46.667 71.0399 46.667 71.0399C46.667 71.0399 46.7803 71.0866 46.7937 71.0599Z" fill="#F0EFEE"/>
<path d="M32.6604 32.2132C32.6604 32.2132 32.6137 32.2599 32.5938 32.2932C32.6404 32.2332 32.6871 32.1932 32.7138 32.1732C32.7004 32.1799 32.6871 32.1932 32.6604 32.2132Z" fill="#F0EFEE"/>
<path d="M27.8472 42.44C27.7605 42.3667 27.7072 42.3067 27.6738 42.2667C27.7405 42.36 27.9072 42.58 27.8472 42.44Z" fill="#F0EFEE"/>
<path d="M27.6731 42.2597L27.6465 42.2197C27.6465 42.2197 27.6531 42.233 27.6731 42.2597Z" fill="#F0EFEE"/>
<path d="M73.907 49.1133C72.3604 44.28 68.827 44.8733 68.827 44.8733C68.0737 44.22 66.767 43.4267 64.4804 42.78C64.4804 42.78 62.5137 41.8667 55.567 44.1133C55.5404 44.12 55.5137 44.1333 55.487 44.14C55.487 44.14 51.6804 44.4067 50.007 43C49.4137 42.5 47.807 42.1467 47.007 42.18C47.007 42.18 39.2337 35.7333 35.7537 34.7133L34.7204 32.0133L34.3404 34.04H33.6737C33.6737 34.04 32.4204 32.7267 32.6004 32.3C32.3404 32.6067 31.8804 33.4 32.767 34.5267C32.767 34.5267 31.7937 36.0067 30.907 36.12C30.907 36.12 30.8137 36.9067 30.8004 37.0733C30.787 37.24 27.8004 39.9533 27.8004 39.9533C27.8204 40.04 27.1804 41.28 27.6604 42.0867C27.7737 42.28 27.8337 42.3867 27.8537 42.44C28.147 42.68 28.7604 42.9933 29.827 42.6133C29.827 42.6133 30.067 41.9067 31.1537 41.98L32.8204 41.6667C32.8204 41.6667 34.9004 42.28 35.807 41.1733C35.807 41.1733 39.427 45.9 39.0537 48.16C39.0537 48.16 39.0804 54.5733 40.9404 55.5C40.9404 55.5 40.7737 56.74 41.4137 58.9C41.4137 58.9 42.2404 60.74 42.0804 62.7333C42.0804 62.7333 42.267 63.6933 42.3937 64.34C42.3937 64.34 42.6004 68 42.1004 68.8333C42.1004 68.8333 40.9937 70.82 40.487 71.2933C39.9804 71.76 40.427 71.4 40.427 71.4C40.427 71.4 41.4204 72.3867 43.247 71.3333C43.247 71.3333 42.3004 69.6 43.3804 69.28C43.3804 69.28 44.1004 68.88 43.7537 68.2467C43.7537 68.2467 43.567 64.0733 43.787 63.44C43.7937 63.4133 43.807 63.3933 43.8204 63.38C43.8804 63.3133 43.9204 63.2667 43.9404 63.24L44.5404 57.66C44.5404 57.66 45.767 60.04 45.7937 60.92C45.7937 60.92 45.9537 62.94 46.6537 63.78C46.6537 63.78 48.8604 68.3533 47.2404 69.5467C47.2404 69.5467 46.2137 70.48 46.6137 70.8467C46.7737 70.9933 46.8137 71.06 46.807 71.08C47.267 71.1467 48.8804 71.3067 48.9404 70.4133C48.9404 70.4133 47.907 69.5533 49.0737 68.3333C49.0737 68.3333 47.7404 64.44 48.0737 62.54C48.0737 62.54 47.2204 58.7 47.707 56.9067C49.887 56.7733 52.707 56.5067 54.3937 55.9733C54.3937 55.9733 56.507 55.64 57.9204 54.92C59.3337 54.2067 61.4937 53.1467 63.1137 55.6533C63.1137 55.6533 64.7404 57.6267 64.6404 59.1533C64.6204 59.5 64.7204 59.86 64.8937 60.24C65.0204 61.2933 65.1404 62.54 65.0804 63.1333C64.967 64.2667 64.667 68.1333 62.3604 69.5267C62.3604 69.5267 60.827 70.6067 62.127 70.54C63.427 70.4733 63.8737 71.3467 64.207 70.6733C64.547 70 63.5404 69.4333 64.727 68.5467C64.727 68.5467 65.2937 68.1267 65.3204 67.7933C65.3337 67.5667 65.9537 64.9533 66.687 63.3067C66.8337 63.6467 66.9337 63.9867 66.947 64.3133C67.027 66.0467 67.3337 68.2533 66.9537 68.9C66.9537 68.9 65.1204 71.0133 65.1737 71.7933C65.1737 71.7933 67.0537 72.2333 67.7404 71.9667C67.7604 71.94 67.7737 71.9133 67.787 71.88C68.3937 70.6667 66.6937 71.14 67.927 69.7133L68.2737 69.12C68.2737 69.12 69.1004 64.12 68.7604 63.82C68.4137 63.52 69.0937 63.0067 69.0937 63.0067C69.0937 63.0067 67.167 57.9467 68.247 56.82C68.247 56.82 72.9604 52.5733 70.7204 47.7067C71.9937 48.6733 71.9204 52.0333 71.4004 53.6133C70.7204 55.66 71.7804 59.32 71.7804 59.32C71.967 60.92 72.3537 59 72.3537 59C73.9137 57.0733 75.4737 53.96 73.9204 49.1267L73.907 49.1133Z" fill="#F0EFEE"/>
<defs>
<linearGradient id="paint0_linear_1041_49251" x1="92.1138" y1="96.3733" x2="8.81384" y2="7.46666" gradientUnits="userSpaceOnUse">
<stop stop-color="white"/>
<stop offset="0.09" stop-color="#F7F7F7"/>
<stop offset="0.22" stop-color="#E4E4E4"/>
<stop offset="0.37" stop-color="#C3C3C3"/>
<stop offset="0.54" stop-color="#969696"/>
<stop offset="0.73" stop-color="#5C5C5C"/>
<stop offset="0.94" stop-color="#171717"/>
<stop offset="1"/>
</linearGradient>
</defs>
</svg>
