<svg width="44" height="44" viewBox="0 0 44 44" fill="none" xmlns="http://www.w3.org/2000/svg">
<path d="M26.3151 18C24.3629 18 22.6537 18.983 21.5882 20.6447C20.5228 18.983 18.8135 18 16.8613 18C15.3074 18.0021 13.8175 18.7258 12.7187 20.0126C11.6198 21.2993 11.0018 23.0439 11 24.8636C11 32.6128 20.8121 38.8853 21.2299 39.1443C21.3401 39.2137 21.4632 39.25 21.5882 39.25C21.7133 39.25 21.8364 39.2137 21.9465 39.1443C22.3644 38.8853 32.1765 32.6128 32.1765 24.8636C32.1747 23.0439 31.5566 21.2993 30.4578 20.0126C29.359 18.7258 27.8691 18.0021 26.3151 18ZM21.5882 37.3509C19.862 36.173 12.5126 30.8073 12.5126 24.8636C12.5141 23.5136 12.9728 22.2193 13.788 21.2647C14.6032 20.3101 15.7084 19.773 16.8613 19.7713C18.7001 19.7713 20.2439 20.9181 20.8887 22.7602C20.9456 22.9227 21.0426 23.0616 21.1671 23.1594C21.2917 23.2571 21.4383 23.3094 21.5882 23.3094C21.7382 23.3094 21.8848 23.2571 22.0093 23.1594C22.1339 23.0616 22.2308 22.9227 22.2878 22.7602C22.9326 20.9148 24.4764 19.7713 26.3151 19.7713C27.468 19.773 28.5733 20.3101 29.3885 21.2647C30.2037 22.2193 30.6624 23.5136 30.6639 24.8636C30.6639 30.7984 23.3126 36.1719 21.5882 37.3509Z" fill="#FFFDFC"/>
<path d="M24.2913 31.1757C24.7656 32.0955 24.9577 33.111 24.9826 33.5741C24.8192 33.5662 24.5649 33.505 24.2135 33.3979C24.0884 33.3598 23.9511 33.316 23.8074 33.2701C23.5473 33.187 23.266 33.0972 22.9978 33.0225C22.576 32.905 22.1227 32.8054 21.71 32.8054C21.2947 32.8054 20.8612 32.906 20.4668 33.025C20.1943 33.1073 19.9167 33.2063 19.6677 33.2951C19.5599 33.3336 19.4575 33.3701 19.3632 33.4026C19.0962 33.4944 18.9064 33.5483 18.7798 33.5673C18.8061 33.101 18.9986 32.091 19.4706 31.1757C19.9802 30.1876 20.749 29.425 21.881 29.425C23.013 29.425 23.7817 30.1876 24.2913 31.1757ZM18.6616 33.5734C18.6616 33.5733 18.6623 33.5734 18.6637 33.5737L18.6616 33.5734Z" stroke="#FFFDFC" stroke-width="0.85"/>
<path d="M22.675 25.875C22.675 26.3319 22.558 26.7273 22.3893 26.9962C22.2172 27.2704 22.0285 27.365 21.8835 27.365C21.7385 27.365 21.5498 27.2704 21.3777 26.9962C21.209 26.7273 21.092 26.3319 21.092 25.875C21.092 25.4181 21.209 25.0227 21.3777 24.7538C21.5498 24.4796 21.7385 24.385 21.8835 24.385C22.0285 24.385 22.2172 24.4796 22.3893 24.7538C22.558 25.0227 22.675 25.4181 22.675 25.875Z" stroke="#FFFDFC" stroke-width="0.77"/>
<path d="M26.6916 27.7293C26.5447 28.1571 26.308 28.4849 26.0634 28.6755C25.8146 28.8694 25.6054 28.8914 25.4655 28.8372C25.3255 28.7829 25.1789 28.6228 25.1061 28.3043C25.0346 27.9911 25.0523 27.5784 25.1992 27.1505C25.3462 26.7227 25.5829 26.395 25.8275 26.2044C26.0762 26.0105 26.2855 25.9884 26.4254 26.0427C26.5653 26.097 26.712 26.257 26.7847 26.5756C26.8563 26.8888 26.8386 27.3015 26.6916 27.7293Z" stroke="#FFFDFC" stroke-width="0.77"/>
<path d="M16.9646 27.7293C17.1116 28.1571 17.3483 28.4849 17.5929 28.6755C17.8416 28.8694 18.0509 28.8914 18.1908 28.8372C18.3307 28.7829 18.4774 28.6228 18.5501 28.3043C18.6217 27.9911 18.604 27.5784 18.457 27.1505C18.3101 26.7227 18.0734 26.395 17.8288 26.2044C17.58 26.0105 17.3708 25.9884 17.2309 26.0427C17.0909 26.097 16.9443 26.257 16.8715 26.5756C16.8 26.8888 16.8177 27.3015 16.9646 27.7293Z" stroke="#FFFDFC" stroke-width="0.77"/>
<path d="M6.21053 21.3103V40C6.21053 41.1046 7.10596 42 8.21053 42H34.4505C35.5296 42 36.4141 41.1441 36.4495 40.0656L37.0877 20.6207M6.21053 21.3103L20.4311 9.87597C21.1468 9.30047 22.1625 9.28639 22.8939 9.84183L37.0877 20.6207M6.21053 21.3103H5.41499C4.61953 21.3103 3.89969 20.839 3.58172 20.1098L2.63785 17.9454C2.26472 17.0898 2.53308 16.0898 3.28448 15.536L20.4831 2.85946C21.1788 2.34667 22.1252 2.33879 22.8293 2.8399L40.5137 15.425C41.3557 16.0243 41.6025 17.1664 41.083 18.0598L40.0065 19.9112C39.5321 20.7271 38.5519 21.1003 37.6549 20.8065L37.0877 20.6207" stroke="#FFFDFC" stroke-width="1.5"/>
</svg>
