<svg width="49" height="49" viewBox="0 0 49 49" fill="none" xmlns="http://www.w3.org/2000/svg">
<rect width="49" height="49" rx="24.5" fill="#0293A7"/>
<path d="M24.1918 34.4289C22.706 33.7449 21.0219 32.4978 19.2817 31.3419C18.2938 30.6861 17.3575 29.967 16.6371 29.0189C15.8932 28.0401 15.8269 27.1627 16.3918 26.2843C16.9265 25.4531 17.86 25.0884 18.9975 25.3215C20.1464 25.5572 21.2601 25.5901 22.4214 25.3126C24.3656 24.8473 26.1362 26.1947 26.2154 28.1604C26.2597 29.259 26.8775 30.0454 27.4852 30.8602C27.9689 31.5088 28.2635 32.1983 28.0562 33.0145C27.624 34.7108 26.516 35.2194 24.1918 34.4289Z" fill="white"/>
<path d="M28.0562 19.178C27.7051 20.072 27.2865 20.9218 26.512 21.5437C25.4094 22.4289 24.2468 22.2208 23.5253 21.0104C22.3008 18.9555 22.9777 16.5289 25.0561 15.5201C26.6682 14.738 27.9594 15.3952 28.2492 17.1427C28.3655 17.8407 28.2554 18.5133 28.0562 19.178Z" fill="white"/>
<path d="M27.763 21.3427C28.3619 20.1164 29.2117 18.8535 30.7991 18.3124C32.3736 17.7759 33.5243 18.5885 33.5951 20.2425C33.6985 22.651 31.6116 24.557 29.1937 24.2636C27.7905 24.0934 27.184 22.9895 27.763 21.3427Z" fill="white"/>
<path d="M22.0845 22.1311C21.6299 23.4365 20.7511 24.2901 19.3286 24.4706C17.7779 24.6671 16.5659 23.3147 17.0178 21.8485C17.4642 20.4001 18.4097 19.2887 19.7831 18.5959C20.7417 18.1123 21.4245 18.3735 21.9082 19.3411C22.359 20.2431 22.4227 21.1793 22.0845 22.1311Z" fill="white"/>
<path d="M32.756 28.6599C32.4355 29.5196 31.8275 30.5302 30.7127 31.1365C29.6545 31.7122 28.8208 31.3735 28.4562 30.2177C28.0438 28.9126 28.1638 27.6302 28.8449 26.459C29.441 25.4342 31.2465 24.9491 32.2888 25.4486C33.1268 25.8495 33.3418 26.9633 32.756 28.6599Z" fill="white"/>
</svg>
