<svg width="50" height="50" viewBox="0 0 50 50" fill="none" xmlns="http://www.w3.org/2000/svg">
<g clip-path="url(#clip0_1593_36850)">
<path d="M25 50C38.8071 50 50 38.8071 50 25C50 11.1929 38.8071 0 25 0C11.1929 0 0 11.1929 0 25C0 38.8071 11.1929 50 25 50Z" fill="#0293A7"/>
<path d="M28.0713 31.6478C28.4991 32.1787 28.6589 32.7938 28.6159 33.3918C28.5008 35.0412 26.8462 36.5567 25.0592 35.8162C24.7362 35.6821 24.4183 35.4674 24.0713 35.5034C23.8754 35.5241 23.6967 35.622 23.5214 35.7113C22.7259 36.1186 21.4854 36.3952 20.6383 35.988C18.9407 35.1701 19.1709 32.6478 20.2379 31.3986C20.585 30.9897 21.0232 30.6667 21.3823 30.268C21.9785 29.6083 22.3702 28.7406 23.1245 28.2698C24.0816 27.6735 25.4905 27.9811 26.1108 28.9227C26.3582 29.2973 26.4854 29.7388 26.7173 30.1237C27.0695 30.7062 27.6434 31.1186 28.0695 31.6478H28.0713Z" fill="white"/>
<path d="M26.363 25.6821C25.083 25.0344 25.4318 23.0653 26.0624 22.1254C26.7531 21.0945 28.095 21.311 28.485 22.4777C28.6448 22.9571 28.6758 23.5155 28.6311 23.9519C28.5727 24.5086 28.3493 25.0653 27.9266 25.4313C27.5039 25.7973 26.863 25.9347 26.3648 25.6821H26.363Z" fill="white"/>
<path d="M31.6514 26.7216C31.849 27.5601 31.4968 28.6804 30.9315 29.134C30.8078 29.2337 30.6703 29.3179 30.5226 29.3746C29.4332 29.7955 28.4092 28.7612 28.6755 27.6753C28.8404 27.0051 29.471 26.3024 30.0655 25.9639C30.4332 25.7543 30.9367 25.7234 31.2511 26.0051C31.4556 26.1873 31.5844 26.4381 31.6514 26.7199V26.7216Z" fill="white"/>
<path d="M23.194 22.6289C23.6013 23.4433 23.6391 24.6014 23.1923 25.3162C22.8727 25.8282 22.1476 25.9897 21.5858 25.768C20.1597 25.2062 20.1597 23.2371 20.9019 22.134C20.9999 21.9897 21.1133 21.8505 21.2576 21.7543C21.4947 21.5962 21.804 21.567 22.0806 21.6392C22.3573 21.7113 22.6013 21.8763 22.804 22.0773C22.9569 22.2285 23.0875 22.4175 23.194 22.6289Z" fill="white"/>
<path d="M19.9928 27.8746C19.9636 28.0155 19.9138 28.1512 19.8468 28.2801C19.6131 28.7303 19.1715 29.0739 18.6681 29.11C17.0048 29.2268 16.8451 26.6667 17.5787 25.7045C17.644 25.6186 17.7196 25.5344 17.8193 25.4897C17.9 25.4553 17.9894 25.4485 18.077 25.4502C19.2987 25.4605 20.242 26.6856 19.9928 27.8746Z" fill="white"/>
<path d="M42.2927 24.3007L24.8752 7.19931C24.6828 7.01031 24.3752 7.01031 24.1828 7.19931L6.33569 24.5533C6.13294 24.7509 6.13638 25.0756 6.34085 25.2698L8.70511 27.4948C8.89583 27.6753 9.1948 27.6753 9.38552 27.4948L9.40614 27.4742L9.73604 39.2027C9.7515 39.7509 10.1931 40.1804 10.7429 40.1804H37.6673C38.2223 40.1804 38.6742 39.7285 38.6742 39.1735V27.0412L39.114 27.4708C39.3082 27.6598 39.6175 27.6598 39.8099 27.4691L42.2927 25.0051C42.4886 24.811 42.4886 24.4931 42.291 24.299L42.2927 24.3007ZM37.6536 39.1598H10.7584L10.4216 27.3917L24.5092 14.201L37.6553 26.7955V39.1598H37.6536Z" fill="white"/>
<path d="M32.623 11.61V9.21649H36.5698V15.3763L32.623 11.61Z" fill="white"/>
</g>
<defs>
<clipPath id="clip0_1593_36850">
<rect width="50" height="50" fill="white"/>
</clipPath>
</defs>
</svg>
