<svg width="12" height="12" viewBox="0 0 12 12" fill="none" xmlns="http://www.w3.org/2000/svg">
<path d="M10.492 7.12H0.772C0.692 6.976 0.62 6.816 0.556 6.64C0.508 6.448 0.484 6.232 0.484 5.992C0.484 5.56 0.588 5.248 0.796 5.056C1.004 4.848 1.276 4.744 1.612 4.744H11.356C11.42 4.872 11.484 5.04 11.548 5.248C11.612 5.456 11.644 5.68 11.644 5.92C11.644 6.336 11.54 6.64 11.332 6.832C11.124 7.024 10.844 7.12 10.492 7.12ZM7.444 1.576V11.536C7.3 11.568 7.116 11.608 6.892 11.656C6.668 11.688 6.436 11.704 6.196 11.704C5.716 11.704 5.356 11.616 5.116 11.44C4.876 11.264 4.756 10.912 4.756 10.384V0.448C4.9 0.415999 5.084 0.375999 5.308 0.328C5.532 0.28 5.772 0.256 6.028 0.256C6.492 0.256 6.844 0.351999 7.084 0.543999C7.324 0.719999 7.444 1.064 7.444 1.576Z" fill="white"/>
</svg>
