<svg width="100" height="100" viewBox="0 0 53 53" fill="none" xmlns="http://www.w3.org/2000/svg">
<path d="M25.6969 5.17302C13.6745 5.17302 3.92969 14.9178 3.92969 26.9402C3.92969 38.141 12.3849 47.3589 23.2564 48.5722C23.8908 48.6416 24.5356 48.6762 25.1838 48.6866C25.222 48.6901 25.2566 48.697 25.2948 48.697C25.43 48.7005 25.5652 48.7109 25.6969 48.7109C26.1684 48.7109 26.6364 48.6901 27.1009 48.6589C27.3748 48.6416 27.6452 48.6034 27.9156 48.5722C28.5777 48.5064 29.226 48.3989 29.8673 48.2741C30.2348 48.2013 30.5953 48.1146 30.9558 48.0245C37.9134 46.3016 43.5294 41.2402 46.0324 34.6258C46.1364 34.3485 46.2473 34.0746 46.3409 33.7904C46.4206 33.5512 46.5073 33.3154 46.5836 33.0728C46.6737 32.7504 46.7396 32.4245 46.8158 32.0986C46.8262 32.064 46.8297 32.0362 46.8366 32.005C46.9233 31.6445 47.0308 31.2874 47.0966 30.9165C47.2076 30.3098 47.2977 29.6997 47.3601 29.0792C47.4294 28.3754 47.4641 27.6613 47.4641 26.9368C47.4641 14.9144 37.7193 5.16956 25.6969 5.16956V5.17302Z" fill="#FFFDFC"/>
<path style="mix-blend-mode:multiply" opacity="0.3" d="M36.2129 26.8707L36.4486 27.0579C36.4105 26.9886 36.3273 26.9262 36.2129 26.8707Z" fill="url(#paint0_linear_1208_36281)"/>
<path style="mix-blend-mode:multiply" opacity="0.3" d="M16.4082 31.1346C16.8866 32.3896 17.781 33.336 18.9319 34.0882C18.9423 34.0986 18.9597 34.1021 18.9701 34.109L16.4082 31.1346Z" fill="url(#paint1_linear_1208_36281)"/>
<path style="mix-blend-mode:multiply" opacity="0.3" d="M16.4362 28.2573C16.5194 28.1152 16.6338 27.9904 16.7621 27.8205C16.5783 27.8586 16.4258 27.876 16.2802 27.921C15.3026 28.2053 14.3701 28.0944 13.4688 27.72L16.4085 31.1346C16.3149 30.8885 16.2317 30.632 16.1727 30.3616C16.0133 29.6336 16.0479 28.9194 16.4362 28.2573Z" fill="url(#paint2_linear_1208_36281)"/>
<path style="mix-blend-mode:multiply" opacity="0.3" d="M36.4496 27.0579C36.5155 27.1619 36.4808 27.2797 36.3214 27.3941C35.8915 27.7027 35.6176 28.1221 35.3299 28.5485C34.9763 29.0616 34.5118 29.4741 33.9883 29.852C34.3384 30.2784 34.7336 30.6147 35.1774 30.9024C35.479 31.1 35.7806 31.3011 36.0787 31.5056C36.1688 31.568 36.252 31.6477 36.3248 31.7309C36.4878 31.9077 36.4947 31.9875 36.3664 32.1851C36.5363 32.3168 36.7096 32.4416 36.8691 32.5837C37.1291 32.8195 37.1256 32.9408 36.8968 33.1523C36.9384 33.2771 37.0355 33.4469 36.9974 33.4851C36.9142 33.5752 36.7547 33.6549 36.6403 33.6376C36.0267 33.5613 35.4062 33.4955 34.8099 33.3464C33.6278 33.0587 32.5427 32.5387 31.572 31.7933C31.52 31.7552 31.416 31.7344 31.3536 31.7552C30.2859 32.1469 29.1766 32.1989 28.0568 32.1608C27.2942 32.1331 26.5211 32.1192 25.7688 32.0083C24.9646 31.8904 24.1742 31.6755 23.3872 31.4744C23.1168 31.4051 22.8672 31.256 22.5934 31.1347C22.5344 31.2976 22.6003 31.3981 22.7424 31.4709C23.051 31.6304 23.0544 31.6304 23.0198 31.984C22.999 32.1781 23.0579 32.3307 23.2278 32.4277C23.4878 32.5803 23.6091 32.8056 23.6091 33.1003C23.6091 33.3221 23.7166 33.4712 23.9072 33.5683C24.143 33.6861 24.2435 33.8733 24.2435 34.1403C24.24 34.4627 24.403 34.7192 24.656 34.9029C25.0928 35.2253 25.3459 35.6795 25.6059 36.1336C25.6232 36.1648 25.644 36.196 25.644 36.2307C25.6544 36.3277 25.6856 36.4491 25.644 36.5184C25.6128 36.5635 25.4603 36.5669 25.3806 36.5392C25.0686 36.4387 24.76 36.3277 24.4584 36.2029C23.6611 35.8667 22.8984 35.4611 22.1774 34.9792C20.8531 34.0952 19.7784 32.9928 19.1232 31.5195C19.1094 31.4883 19.0851 31.464 19.0678 31.4328C19.047 31.4397 19.0227 31.4467 18.9984 31.4536C19.0331 31.5749 19.04 31.7205 19.1094 31.8141C19.3139 32.0984 19.3312 32.3827 19.2099 32.7051C19.1787 32.7917 19.196 32.9269 19.2376 33.0171C19.3416 33.2285 19.4838 33.4227 19.5843 33.6341C19.6502 33.7763 19.6848 33.9357 19.7056 34.0917C19.7264 34.2304 19.6363 34.3136 19.5011 34.2789C19.3208 34.2339 19.1267 34.1992 18.9707 34.1091L30.9515 48.0277C42.336 44.8731 46.028 34.6291 46.028 34.6291L36.4496 27.0579Z" fill="url(#paint3_linear_1208_36281)"/>
<path d="M34.1555 29.8488C34.5056 30.2787 34.9008 30.6115 35.3411 30.8992C35.6462 31.0968 35.9443 31.2979 36.2424 31.5059C36.3326 31.5683 36.4158 31.648 36.4886 31.7278C36.6515 31.908 36.655 31.9878 36.5302 32.1819C36.7 32.3136 36.8734 32.4384 37.0328 32.584C37.2928 32.8198 37.2859 32.9411 37.0606 33.1491C37.1022 33.2739 37.1992 33.4438 37.1611 33.4819C37.0779 33.572 36.9184 33.6518 36.8006 33.6344C36.187 33.5582 35.5664 33.4888 34.9702 33.3432C33.788 33.052 32.7064 32.532 31.7358 31.7902C31.6838 31.7486 31.5798 31.7278 31.5174 31.752C30.4496 32.1438 29.3368 32.1958 28.2206 32.1542C27.4544 32.1264 26.6848 32.116 25.9291 32.0016C25.1283 31.8838 24.3379 31.6688 23.5475 31.4678C23.2771 31.3984 23.0275 31.2494 22.7571 31.1315C22.6947 31.2944 22.764 31.395 22.9027 31.4643C23.2112 31.6238 23.2147 31.6238 23.18 31.9774C23.1592 32.1715 23.2216 32.324 23.388 32.4211C23.648 32.5736 23.7728 32.799 23.7728 33.0936C23.7728 33.3155 23.8803 33.4646 24.0675 33.5582C24.3032 33.6795 24.4038 33.8667 24.4038 34.1336C24.4038 34.456 24.5632 34.7126 24.8163 34.8963C25.2531 35.2152 25.5062 35.6728 25.7662 36.127C25.7835 36.1582 25.8043 36.1894 25.8078 36.224C25.8147 36.3211 25.8494 36.4424 25.8078 36.5118C25.78 36.5568 25.624 36.5603 25.5443 36.5326C25.2323 36.432 24.9238 36.3211 24.6222 36.1963C23.8248 35.86 23.0622 35.4544 22.3411 34.976C21.0168 34.092 19.9422 32.9896 19.2835 31.5163C19.2696 31.4851 19.2488 31.4608 19.2315 31.4331C19.2072 31.44 19.1864 31.447 19.1622 31.4539C19.1968 31.5752 19.2003 31.7174 19.2731 31.8144C19.4811 32.0987 19.495 32.383 19.3736 32.7019C19.339 32.792 19.3598 32.9238 19.4014 33.0139C19.5019 33.2254 19.6475 33.4195 19.748 33.6344C19.8139 33.7766 19.8486 33.936 19.8694 34.092C19.8867 34.2272 19.8 34.3104 19.6614 34.2792C19.4672 34.2307 19.2558 34.196 19.0928 34.0886C17.7166 33.1872 16.6974 32.012 16.3334 30.3619C16.1739 29.6339 16.2086 28.9198 16.5968 28.2576C16.68 28.1155 16.791 27.9907 16.9192 27.8208C16.739 27.8555 16.5864 27.8763 16.4374 27.9179C15.335 28.2403 14.2846 28.0566 13.2792 27.5608C12.8459 27.3494 12.5582 26.9992 12.4715 26.507C12.4611 26.4376 12.4334 26.3718 12.4126 26.3059C12.3675 26.1534 12.2878 26.0424 12.104 26.0563C12.0486 26.0598 11.9931 26.0355 11.9376 26.032C11.7331 26.0216 11.636 25.8968 11.6742 25.7131C11.7504 25.3456 11.8128 24.9712 11.9515 24.628C12.4611 23.38 13.671 22.8392 15.0334 23.224C15.6435 23.3974 16.1843 23.7163 16.7008 24.0734C17.044 24.3091 17.4115 24.4824 17.8275 24.5518C17.8656 24.5587 17.9072 24.5587 17.9627 24.5622C17.9384 24.3715 17.9003 24.1947 17.8934 24.0179C17.8864 23.7544 17.9384 23.7198 18.195 23.7718C18.5659 23.848 18.8848 23.7128 19.1726 23.5083C20.6979 22.4094 22.4208 21.7784 24.2304 21.352C26.0123 20.9326 27.7491 21.0712 29.4651 21.7056C30.7686 22.1875 32.0235 22.7491 33.0635 23.6886C33.6494 24.219 34.1936 24.8048 34.7414 25.3734C35.0811 25.7235 35.3792 26.1118 35.7259 26.455C35.9027 26.6318 36.135 26.76 36.3638 26.871C36.6619 27.0166 36.7312 27.2072 36.4712 27.3944C36.0414 27.703 35.7675 28.1224 35.4798 28.5454C35.1296 29.0584 34.6651 29.4744 34.1416 29.8488H34.1555Z" fill="#0293A7"/>
<defs>
<linearGradient id="paint0_linear_1208_36281" x1="36.466" y1="27.1238" x2="36.1574" y2="26.7459" gradientUnits="userSpaceOnUse">
<stop stop-color="white"/>
<stop offset="0.09" stop-color="#F7F7F7"/>
<stop offset="0.22" stop-color="#E4E4E4"/>
<stop offset="0.37" stop-color="#C3C3C3"/>
<stop offset="0.54" stop-color="#969696"/>
<stop offset="0.73" stop-color="#5C5C5C"/>
<stop offset="0.94" stop-color="#171717"/>
<stop offset="1"/>
</linearGradient>
<linearGradient id="paint1_linear_1208_36281" x1="19.3653" y1="34.8786" x2="15.2261" y2="29.852" gradientUnits="userSpaceOnUse">
<stop stop-color="white"/>
<stop offset="0.09" stop-color="#F7F7F7"/>
<stop offset="0.22" stop-color="#E4E4E4"/>
<stop offset="0.37" stop-color="#C3C3C3"/>
<stop offset="0.54" stop-color="#969696"/>
<stop offset="0.73" stop-color="#5C5C5C"/>
<stop offset="0.94" stop-color="#171717"/>
<stop offset="1"/>
</linearGradient>
<linearGradient id="paint2_linear_1208_36281" x1="17.9061" y1="31.1554" x2="13.1567" y2="25.3904" gradientUnits="userSpaceOnUse">
<stop stop-color="white"/>
<stop offset="0.09" stop-color="#F7F7F7"/>
<stop offset="0.22" stop-color="#E4E4E4"/>
<stop offset="0.37" stop-color="#C3C3C3"/>
<stop offset="0.54" stop-color="#969696"/>
<stop offset="0.73" stop-color="#5C5C5C"/>
<stop offset="0.94" stop-color="#171717"/>
<stop offset="1"/>
</linearGradient>
<linearGradient id="paint3_linear_1208_36281" x1="42.8768" y1="46.9704" x2="19.3208" y2="18.3635" gradientUnits="userSpaceOnUse">
<stop stop-color="white"/>
<stop offset="0.09" stop-color="#F7F7F7"/>
<stop offset="0.22" stop-color="#E4E4E4"/>
<stop offset="0.37" stop-color="#C3C3C3"/>
<stop offset="0.54" stop-color="#969696"/>
<stop offset="0.73" stop-color="#5C5C5C"/>
<stop offset="0.94" stop-color="#171717"/>
<stop offset="1"/>
</linearGradient>
</defs>
</svg>
