<svg width="26" height="26" viewBox="0 0 26 26" fill="none" xmlns="http://www.w3.org/2000/svg">
<path d="M17.8745 16.2498C17.3325 16.2497 16.796 16.3582 16.2967 16.5692C15.7974 16.7801 15.3455 17.089 14.9678 17.4777L10.2858 14.4684C10.6541 13.524 10.6541 12.4757 10.2858 11.5312L14.9678 8.52195C15.6711 9.24235 16.6168 9.67595 17.6216 9.73869C18.6264 9.80143 19.6187 9.48884 20.4061 8.86152C21.1936 8.23419 21.72 7.33683 21.8834 6.34342C22.0468 5.35 21.8355 4.3313 21.2905 3.48482C20.7455 2.63834 19.9056 2.02439 18.9336 1.76199C17.9616 1.4996 16.9268 1.60746 16.0299 2.06466C15.1329 2.52186 14.4377 3.29582 14.0789 4.2365C13.7202 5.17719 13.7235 6.21756 14.0883 7.15593L9.40623 10.1652C8.84242 9.5864 8.11881 9.18885 7.3279 9.0234C6.53698 8.85796 5.71469 8.93213 4.96615 9.23644C4.2176 9.54075 3.57681 10.0614 3.12568 10.7317C2.67456 11.4021 2.43359 12.1918 2.43359 12.9998C2.43359 13.8079 2.67456 14.5976 3.12568 15.2679C3.57681 15.9383 4.2176 16.4589 4.96615 16.7632C5.71469 17.0675 6.53698 17.1417 7.3279 16.9763C8.11881 16.8108 8.84242 16.4133 9.40623 15.8344L14.0883 18.8437C13.7746 19.6527 13.7282 20.5409 13.9558 21.3781C14.1834 22.2154 14.6732 22.9578 15.3532 23.4966C16.0333 24.0354 16.868 24.3423 17.7352 24.3724C18.6023 24.4025 19.4563 24.1542 20.1721 23.6638C20.8878 23.1734 21.4278 22.4667 21.7129 21.6473C21.998 20.8278 22.0133 19.9386 21.7565 19.1098C21.4996 18.281 20.9842 17.5563 20.2857 17.0416C19.5871 16.527 18.7422 16.2495 17.8745 16.2498ZM17.8745 3.24984C18.3566 3.24984 18.8279 3.39279 19.2287 3.66063C19.6296 3.92846 19.942 4.30915 20.1265 4.75454C20.311 5.19994 20.3592 5.69004 20.2652 6.16287C20.1711 6.6357 19.939 7.07002 19.5981 7.41091C19.2572 7.7518 18.8229 7.98395 18.35 8.078C17.8772 8.17205 17.3871 8.12378 16.9417 7.93929C16.4963 7.7548 16.1156 7.44238 15.8478 7.04154C15.58 6.64069 15.437 6.16943 15.437 5.68734C15.437 5.04087 15.6938 4.42088 16.1509 3.96376C16.6081 3.50664 17.228 3.24984 17.8745 3.24984ZM6.49951 15.4373C6.01742 15.4373 5.54615 15.2944 5.14531 15.0265C4.74446 14.7587 4.43204 14.378 4.24756 13.9326C4.06307 13.4872 4.0148 12.9971 4.10885 12.5243C4.2029 12.0515 4.43505 11.6172 4.77594 11.2763C5.11683 10.9354 5.55115 10.7032 6.02398 10.6092C6.49681 10.5151 6.98691 10.5634 7.4323 10.7479C7.8777 10.9324 8.25838 11.2448 8.52622 11.6456C8.79405 12.0465 8.93701 12.5177 8.93701 12.9998C8.93701 13.6463 8.68021 14.2663 8.22309 14.7234C7.76596 15.1805 7.14598 15.4373 6.49951 15.4373ZM17.8745 22.7498C17.3924 22.7498 16.9212 22.6069 16.5203 22.339C16.1195 22.0712 15.807 21.6905 15.6226 21.2451C15.4381 20.7997 15.3898 20.3096 15.4838 19.8368C15.5779 19.364 15.8101 18.9297 16.1509 18.5888C16.4918 18.2479 16.9262 18.0157 17.399 17.9217C17.8718 17.8276 18.3619 17.8759 18.8073 18.0604C19.2527 18.2449 19.6334 18.5573 19.9012 18.9581C20.1691 19.359 20.312 19.8302 20.312 20.3123C20.312 20.9588 20.0552 21.5788 19.5981 22.0359C19.141 22.493 18.521 22.7498 17.8745 22.7498Z" fill="#DE6B35"/>
</svg>
