<svg width="40" height="40" viewBox="0 0 40 40" fill="none" xmlns="http://www.w3.org/2000/svg">
<path fill-rule="evenodd" clip-rule="evenodd" d="M10.4564 8.57123C5.39287 12.7352 1.16486 16.3012 1.06085 16.4954C0.83891 16.9097 1.25906 17.5426 1.75586 17.5426C1.94062 17.5426 2.38906 17.3203 2.75219 17.0485L3.4123 16.5543L3.47161 27.7772L3.53091 39H19.9539H36.3769L36.4909 27.77L36.605 16.54L37.2113 17.0413C37.5445 17.317 37.9603 17.5426 38.1351 17.5426C38.5256 17.5426 39 17.0684 39 16.6781C39 16.3192 20.414 1 19.9785 1C19.805 1 15.5201 4.40705 10.4564 8.57123ZM26.9661 8.5825C30.762 11.6978 34.1244 14.4973 34.4381 14.8032L35.0083 15.3594L34.9467 26.4005L34.8854 37.4416H19.9493H5.01354V26.3054V15.1691L12.4589 9.04353C16.5537 5.67436 19.94 2.91798 19.9842 2.91798C20.0283 2.91798 23.1701 5.46698 26.9661 8.5825ZM11.6284 12.7757C10.7586 13.1375 9.37156 14.6551 8.75753 15.9164C7.82712 17.8274 8.14531 19.5222 9.58096 20.3026L10.203 20.6408L9.85673 21.7466C9.14483 24.0196 10.4185 26.8134 12.6548 27.8839C13.2805 28.1833 14.1194 28.3224 15.3238 28.326L17.0806 28.3312L16.9467 30.3238C16.8135 32.3094 16.8155 32.3194 17.5475 33.1959C20.4749 36.7003 28.0643 36.662 31.1021 33.1276C31.861 32.2449 31.9121 32.0907 31.7958 31.0322C31.7267 30.4038 31.552 29.3502 31.4073 28.6909C31.2627 28.0315 31.1729 26.7369 31.2078 25.8139C31.2595 24.4456 31.174 23.9364 30.7447 23.0568C30.0397 21.6118 29.4918 21.5512 28.1369 22.7686C27.1718 23.6355 27.0178 23.6964 26.2569 23.5104C25.8012 23.3991 25.1189 23.3054 24.741 23.3023C24.1025 23.297 24.0336 23.2083 23.7738 22.0587L23.494 20.8209L24.3758 19.9609C25.5252 18.8396 25.7188 17.9113 25.1066 16.4565C24.4116 14.8051 23.2928 13.4547 22.1986 12.9459C21.3072 12.5314 21.1578 12.5237 20.406 12.8538C19.6802 13.1727 19.4377 13.1734 18.2934 12.8601C17.0336 12.5153 16.1237 12.5539 14.6874 13.0135C14.1641 13.1809 13.8122 13.1451 13.3188 12.8749C12.5588 12.4583 12.4119 12.4496 11.6284 12.7757ZM11.7331 15.3995C11.2363 16.1753 10.9021 17.0403 10.8065 17.797C10.651 19.0307 10.5344 19.1738 10.0773 18.6934C9.39893 17.9804 10.1592 15.9835 11.5871 14.7267C12.5369 13.8907 12.5779 14.0799 11.7331 15.3995ZM18.8134 14.7186C19.5109 15.0938 20.528 16.1499 20.8866 16.8713C21.0636 17.2276 21.2084 18.1758 21.2084 18.9789C21.2084 20.117 21.3216 20.5998 21.7216 21.1685C22.098 21.7036 22.2349 22.2285 22.2349 23.1369C22.2349 25.2795 20.8182 26.653 18.6079 26.653H17.5589V25.326C17.5589 24.4969 17.7001 23.7724 17.935 23.3955C18.4386 22.5876 18.0981 22.2577 16.7605 22.2577C15.4451 22.2577 15.0941 22.5802 15.5936 23.3296C15.8297 23.684 15.9622 24.3807 15.9622 25.268V26.653H14.9098C13.4337 26.653 12.2095 25.8769 11.601 24.5554C11.0198 23.2939 11.1161 22.2721 11.9358 21.0043C12.3635 20.3428 12.4732 19.9286 12.3804 19.327C11.9377 16.4601 14.4257 13.9521 17.3308 14.3372C17.8953 14.412 18.5625 14.5836 18.8134 14.7186ZM22.7807 15.6272C23.1359 16.1425 23.5567 16.8948 23.7161 17.2992C23.968 17.9384 23.9524 18.0962 23.5982 18.5078C23.0198 19.1793 22.8053 19.0971 22.8028 18.2019C22.8006 17.3841 21.8911 15.0809 21.46 14.8008C21.3216 14.7109 21.2084 14.5321 21.2084 14.4033C21.2084 13.9632 22.1261 14.6774 22.7807 15.6272ZM13.9184 19.5689C13.4889 20.1129 13.7232 20.7792 14.3439 20.7792C15.0633 20.7792 15.4709 20.1136 15.0658 19.6006C14.6922 19.1273 14.2761 19.1158 13.9184 19.5689ZM18.7365 19.4313C18.2922 19.7274 18.5009 20.7574 19.0265 20.8629C19.6316 20.9842 20.1202 20.2508 19.823 19.6672C19.578 19.1861 19.221 19.1086 18.7365 19.4313ZM29.6802 24.9834C29.7742 25.4658 29.724 26.0891 29.557 26.5195C29.3228 27.1227 29.3399 27.4245 29.6587 28.3269C29.8695 28.9227 30.1042 29.9143 30.1804 30.5304C30.3118 31.5947 30.2771 31.6889 29.4868 32.4184C28.4523 33.3729 27.5892 33.7586 25.8167 34.0588C22.4335 34.6313 18.4672 33.0368 18.4738 31.1065C18.4781 29.8663 18.7516 28.5331 19.0176 28.4576C19.1562 28.4183 19.7158 28.2583 20.2614 28.1023C21.3218 27.7987 23.1416 26.2286 23.3913 25.4015C23.5252 24.958 23.6671 24.9266 24.9396 25.0582C25.7102 25.1378 26.6105 25.2697 26.9405 25.3512C27.407 25.4662 27.711 25.3358 28.3091 24.765C28.7318 24.3612 29.1777 24.0625 29.2999 24.1011C29.4222 24.1397 29.5933 24.5367 29.6802 24.9834ZM21.9299 28.5417C21.762 28.6537 21.6594 29.0025 21.7018 29.3173C21.7595 29.7462 21.9215 29.8896 22.3489 29.8896C22.7764 29.8896 22.9383 29.7462 22.996 29.3173C23.0619 28.828 22.7383 28.3387 22.3489 28.3387C22.2862 28.3387 22.0976 28.43 21.9299 28.5417ZM25.7795 28.6793C25.6283 28.8709 25.5402 29.2214 25.5836 29.4585C25.688 30.0286 26.667 30.027 27 29.4559C27.2026 29.1087 27.1647 28.9536 26.8103 28.6767C26.2567 28.2447 26.1223 28.2452 25.7795 28.6793ZM23.6605 30.8893C23.1057 31.048 23.1623 31.5062 23.8165 32.1523L24.3715 32.7004L24.9848 32.0557C25.3304 31.6925 25.5113 31.3216 25.3993 31.2065C25.1283 30.9287 24.1484 30.7498 23.6605 30.8893Z" fill="#0F0500"/>
</svg>
