<svg width="25" height="24" viewBox="0 0 25 24" fill="none" xmlns="http://www.w3.org/2000/svg">
<path d="M22.1484 19.8752C20.7206 17.4068 18.5203 15.6368 15.9525 14.7977C17.2226 14.0416 18.2094 12.8894 18.7614 11.5181C19.3134 10.1469 19.3999 8.63233 19.0078 7.2071C18.6157 5.78187 17.7666 4.52476 16.5909 3.62882C15.4151 2.73288 13.9778 2.24765 12.4996 2.24765C11.0215 2.24765 9.58414 2.73288 8.40842 3.62882C7.23269 4.52476 6.38358 5.78187 5.99146 7.2071C5.59935 8.63233 5.68592 10.1469 6.23788 11.5181C6.78984 12.8894 7.77668 14.0416 9.04683 14.7977C6.47902 15.6358 4.27871 17.4058 2.85089 19.8752C2.79853 19.9606 2.7638 20.0556 2.74875 20.1546C2.7337 20.2536 2.73863 20.3546 2.76326 20.4517C2.78789 20.5488 2.83171 20.64 2.89214 20.7198C2.95257 20.7997 3.02838 20.8667 3.1151 20.9167C3.20183 20.9668 3.29771 20.9991 3.39709 21.0115C3.49647 21.0239 3.59733 21.0163 3.69373 20.9892C3.79012 20.962 3.8801 20.9158 3.95835 20.8533C4.0366 20.7908 4.10154 20.7132 4.14933 20.6252C5.91558 17.5727 9.03746 15.7502 12.4996 15.7502C15.9618 15.7502 19.0837 17.5727 20.85 20.6252C20.8977 20.7132 20.9627 20.7908 21.0409 20.8533C21.1192 20.9158 21.2092 20.962 21.3056 20.9892C21.402 21.0163 21.5028 21.0239 21.6022 21.0115C21.7016 20.9991 21.7975 20.9668 21.8842 20.9167C21.9709 20.8667 22.0467 20.7997 22.1072 20.7198C22.1676 20.64 22.2114 20.5488 22.236 20.4517C22.2607 20.3546 22.2656 20.2536 22.2505 20.1546C22.2355 20.0556 22.2008 19.9606 22.1484 19.8752ZM7.24964 9.0002C7.24964 7.96185 7.55755 6.94682 8.13443 6.08346C8.71131 5.2201 9.53124 4.54719 10.4906 4.14983C11.4499 3.75247 12.5055 3.64851 13.5239 3.85108C14.5423 4.05365 15.4777 4.55366 16.212 5.28789C16.9462 6.02212 17.4462 6.95758 17.6488 7.97598C17.8513 8.99438 17.7474 10.05 17.35 11.0093C16.9527 11.9686 16.2797 12.7885 15.4164 13.3654C14.553 13.9423 13.538 14.2502 12.4996 14.2502C11.1077 14.2487 9.77322 13.6951 8.78898 12.7109C7.80473 11.7266 7.25113 10.3921 7.24964 9.0002Z" fill="#0293A7"/>
</svg>
