<svg width="100" height="100" viewBox="0 0 52 53" fill="none" xmlns="http://www.w3.org/2000/svg">
<path d="M26.1744 3.73474C13.7325 3.73474 3.64453 13.8227 3.64453 26.2646C3.64453 37.8537 12.3944 47.3974 23.6507 48.6489C24.0632 48.6974 24.4757 48.7286 24.8987 48.7563C25.3216 48.7841 25.7445 48.791 26.1744 48.791C26.3651 48.791 26.5488 48.7771 26.736 48.7737C27.0341 48.7633 27.3323 48.7598 27.6269 48.7425C27.9667 48.7217 28.2995 48.6731 28.6323 48.6385C28.8056 48.6177 28.9789 48.6003 29.1523 48.583C29.2459 48.5726 29.3395 48.5657 29.4296 48.5553C29.44 48.5553 29.4469 48.5553 29.4573 48.5553C36.668 47.5014 42.7208 43.0086 46.0141 36.8171C46.0765 36.7027 46.1528 36.5987 46.2083 36.4843C46.7144 35.4894 47.1651 34.4563 47.5256 33.3817C47.6192 33.1043 47.7197 32.8339 47.7995 32.5497C47.9451 32.0505 48.0699 31.5409 48.1808 31.0278C48.1981 30.9411 48.2224 30.8545 48.2397 30.7678C48.264 30.6395 48.3021 30.5147 48.3299 30.3865C48.4443 29.759 48.5344 29.1281 48.6003 28.4833C48.6696 27.7553 48.7112 27.0169 48.7112 26.2646C48.7112 13.8227 38.6267 3.73474 26.1779 3.73474H26.1744Z" fill="#FFFDFC"/>
<path style="mix-blend-mode:multiply" opacity="0.37" d="M29.482 48.4131C36.6926 47.3592 42.7454 42.8664 46.0388 36.675C46.1012 36.5606 46.1774 36.4566 46.2329 36.3422C46.739 35.3472 47.1897 34.3142 47.5502 33.2395C47.6438 32.9622 47.7444 32.6918 47.8241 32.4075C47.9697 31.9083 48.0945 31.3987 48.2054 30.8856L34.623 17.3032L32.0334 16.1904L30.5185 22.9435L19.6193 28.7987L17.6537 29.5544L12.1348 31.4334L29.1734 48.4408C29.267 48.4304 29.3606 48.4235 29.4508 48.4131C29.4612 48.4131 29.4681 48.4131 29.4785 48.4131H29.482Z" fill="url(#paint0_linear_1208_36238)"/>
<path d="M32.6906 18.8633C33.0442 17.026 34.9024 18.1838 34.9024 18.1838C34.9024 17.3726 33.6786 16.6654 33.6786 16.6654C32.8917 15.1054 32.181 15.3585 31.564 15.3897C28.9154 15.5353 29.0333 19.4318 29.0333 19.4318C29.0645 23.4878 25.8613 24.2574 25.8613 24.2574C21.7221 27.1486 19.5104 27.3012 19.5104 27.3012C12.7712 27.5889 13.1352 28.4833 13.1352 28.4833C13.1594 28.8369 16.1789 29.5406 16.1789 29.5406L12.0293 31.4404C12.2165 32.2065 15.2741 31.163 15.2741 31.163C19.0978 29.5406 22.1658 31.0521 22.1658 31.0521C22.8072 31.274 23.6773 31.5374 24.388 31.742C25.0848 31.943 25.6256 32.0921 25.6256 32.0921C25.161 33.0732 26.0901 34.2414 26.0901 34.2414C26.5061 34.394 26.9568 35.4097 26.9568 35.4097C27.144 36.0129 25.9133 35.6628 25.9133 35.6628C25.1714 35.4236 25.2338 36.0025 25.2338 36.0025C25.3725 35.8014 25.7261 35.85 25.7261 35.85V36.0372C25.8266 36.3908 27.0088 35.9505 27.0088 35.9505C27.248 36.415 27.8512 36.2382 27.8512 36.2382C28.6173 36.6404 29.1962 36.5641 29.1962 36.5641C29.2448 36.363 29.6122 36.6265 29.6122 36.6265C29.6226 36.3284 29.3938 36.311 29.3557 36.311H30.7181C30.784 36.0406 31.0509 36.1238 31.1826 36.1828C31.2277 36.2036 31.2589 36.2209 31.2589 36.2209C31.2589 36.1134 31.2312 36.0406 31.1826 35.9921C31.0024 35.8084 30.5656 36.006 30.5656 36.006L28.8565 35.8916C29.1581 35.7772 29.1581 35.5518 29.1581 35.5518C28.9189 35.6524 28.0904 35.7044 28.0904 35.7044C27.813 35.642 27.5357 34.7233 27.5357 34.7233C27.4768 34.6748 27.4213 34.6262 27.3728 34.5708C27.6432 34.5326 27.9621 34.4148 27.9621 34.4148C28.1389 34.758 28.5861 34.6297 28.5861 34.6297C29.1546 34.9278 29.581 34.8724 29.581 34.8724C29.6192 34.7233 29.8896 34.9174 29.8896 34.9174C29.8965 34.6956 29.7301 34.6852 29.6989 34.6852H29.6954H30.7112C30.7597 34.4841 30.9573 34.5465 31.0544 34.5916V34.4529C30.9226 34.3177 30.5968 34.4633 30.5968 34.4633L29.3314 34.3801C29.5533 34.2969 29.5533 34.127 29.5533 34.127C29.3765 34.1998 28.7629 34.238 28.7629 34.238C28.5584 34.1929 28.3538 33.5134 28.3538 33.5134C27.6466 32.9449 28.0661 31.9465 28.3261 31.4681C33.2176 30.2998 34.0773 27.6028 34.0773 27.6028C34.9821 26.119 33.6752 21.8932 33.6752 21.8932C32.4445 19.1753 32.6941 18.8494 32.6941 18.8494L32.6906 18.8633ZM27.1509 34.2137C27.1509 34.2137 27.137 34.2102 27.1266 34.2068C26.9498 33.7977 26.988 33.3262 27.1093 32.8998C27.1994 33.0628 27.2826 33.1633 27.2826 33.1633C27.5912 33.2742 27.924 34.03 27.924 34.03C28.0626 34.4772 27.1509 34.2137 27.1509 34.2137Z" fill="#0293A7"/>
<defs>
<linearGradient id="paint0_linear_1208_36238" x1="51.4814" y1="51.9214" x2="8.90037" y2="10.4947" gradientUnits="userSpaceOnUse">
<stop stop-color="white"/>
<stop offset="0.09" stop-color="#F7F7F7"/>
<stop offset="0.22" stop-color="#E4E4E4"/>
<stop offset="0.37" stop-color="#C3C3C3"/>
<stop offset="0.54" stop-color="#969696"/>
<stop offset="0.73" stop-color="#5C5C5C"/>
<stop offset="0.94" stop-color="#171717"/>
<stop offset="1"/>
</linearGradient>
</defs>
</svg>
