<svg width="100" height="100" viewBox="0 0 100 100" fill="none" xmlns="http://www.w3.org/2000/svg">
<path d="M50.3345 6.2206C26.4078 6.2206 7.00781 25.6206 7.00781 49.5473C7.00781 71.8339 23.8345 90.1873 45.4811 92.5939C46.2745 92.6873 47.0678 92.7473 47.8811 92.8006C48.6945 92.8539 49.5078 92.8673 50.3345 92.8673C50.7011 92.8673 51.0545 92.8406 51.4145 92.8339C51.9878 92.8139 52.5611 92.8073 53.1278 92.7739C53.7811 92.7339 54.4211 92.6406 55.0611 92.5739C55.3945 92.5339 55.7278 92.5006 56.0611 92.4673C56.2411 92.4473 56.4211 92.4339 56.5945 92.4139C56.6145 92.4139 56.6278 92.4139 56.6478 92.4139C70.5145 90.3873 82.1545 81.7473 88.4878 69.8406C88.6078 69.6206 88.7545 69.4206 88.8611 69.2006C89.8345 67.2873 90.7011 65.3006 91.3945 63.2339C91.5745 62.7006 91.7678 62.1806 91.9212 61.6339C92.2011 60.6739 92.4411 59.6939 92.6545 58.7073C92.6878 58.5406 92.7345 58.3739 92.7678 58.2073C92.8145 57.9606 92.8878 57.7206 92.9412 57.4739C93.1612 56.2673 93.3345 55.0539 93.4612 53.8139C93.5945 52.4139 93.6745 50.9939 93.6745 49.5473C93.6745 25.6206 74.2812 6.2206 50.3411 6.2206H50.3345Z" fill="#0293A7"/>
<path style="mix-blend-mode:multiply" opacity="0.37" d="M56.694 92.1405C70.5607 90.1138 82.2007 81.4738 88.534 69.5671C88.654 69.3471 88.8007 69.1471 88.9073 68.9271C89.8807 67.0138 90.7473 65.0271 91.4407 62.9605C91.6207 62.4271 91.814 61.9071 91.9673 61.3605C92.2473 60.4005 92.4873 59.4205 92.7007 58.4338L66.5807 32.3138L61.6007 30.1738L58.6873 43.1605L37.7273 54.4205L33.9473 55.8738L23.334 59.4871L56.1007 92.1938C56.2807 92.1738 56.4607 92.1605 56.634 92.1405C56.654 92.1405 56.6673 92.1405 56.6873 92.1405H56.694Z" fill="url(#paint0_linear_1041_49250)"/>
<path d="M62.8671 35.3139C63.5471 31.7806 67.1205 34.0072 67.1205 34.0072C67.1205 32.4472 64.7671 31.0873 64.7671 31.0873C63.2538 28.0873 61.8871 28.5739 60.7005 28.6339C55.6071 28.9139 55.8338 36.4073 55.8338 36.4073C55.8938 44.2073 49.7338 45.6873 49.7338 45.6873C41.7738 51.2472 37.5205 51.5406 37.5205 51.5406C24.5605 52.0939 25.2605 53.8139 25.2605 53.8139C25.3071 54.4939 31.1138 55.8472 31.1138 55.8472L23.1338 59.5006C23.4938 60.9739 29.3738 58.9672 29.3738 58.9672C36.7271 55.8472 42.6271 58.7539 42.6271 58.7539C43.8605 59.1806 45.5338 59.6873 46.9005 60.0806C48.2405 60.4673 49.2805 60.7539 49.2805 60.7539C48.3871 62.6406 50.1738 64.8873 50.1738 64.8873C50.9738 65.1806 51.8405 67.1339 51.8405 67.1339C52.2005 68.2939 49.8338 67.6206 49.8338 67.6206C48.4071 67.1606 48.5271 68.2739 48.5271 68.2739C48.7938 67.8873 49.4738 67.9806 49.4738 67.9806V68.3406C49.6671 69.0206 51.9405 68.1739 51.9405 68.1739C52.4005 69.0673 53.5605 68.7272 53.5605 68.7272C55.0338 69.5006 56.1471 69.3539 56.1471 69.3539C56.2405 68.9673 56.9471 69.4739 56.9471 69.4739C56.9671 68.9006 56.5271 68.8673 56.4538 68.8673H59.0738C59.2005 68.3473 59.7138 68.5073 59.9671 68.6206C60.0538 68.6606 60.1138 68.6939 60.1138 68.6939C60.1138 68.4873 60.0605 68.3472 59.9671 68.2539C59.6205 67.9006 58.7805 68.2806 58.7805 68.2806L55.4938 68.0606C56.0738 67.8406 56.0738 67.4072 56.0738 67.4072C55.6138 67.6006 54.0205 67.7006 54.0205 67.7006C53.4871 67.5806 52.9538 65.8139 52.9538 65.8139C52.8405 65.7206 52.7338 65.6273 52.6405 65.5206C53.1605 65.4473 53.7738 65.2206 53.7738 65.2206C54.1138 65.8806 54.9738 65.6339 54.9738 65.6339C56.0671 66.2072 56.8871 66.1006 56.8871 66.1006C56.9605 65.8139 57.4805 66.1872 57.4805 66.1872C57.4938 65.7606 57.1738 65.7406 57.1138 65.7406H57.1071H59.0605C59.1538 65.3539 59.5338 65.4739 59.7205 65.5606V65.2939C59.4671 65.0339 58.8405 65.3139 58.8405 65.3139L56.4071 65.1539C56.8338 64.9939 56.8338 64.6673 56.8338 64.6673C56.4938 64.8073 55.3138 64.8806 55.3138 64.8806C54.9205 64.7939 54.5271 63.4873 54.5271 63.4873C53.1671 62.3939 53.9738 60.4739 54.4738 59.5539C63.8805 57.3073 65.5338 52.1206 65.5338 52.1206C67.2738 49.2673 64.7605 41.1406 64.7605 41.1406C62.3938 35.9139 62.8738 35.2873 62.8738 35.2873L62.8671 35.3139ZM52.2138 64.8339C52.2138 64.8339 52.1871 64.8273 52.1671 64.8206C51.8271 64.0339 51.9005 63.1273 52.1338 62.3073C52.3071 62.6206 52.4671 62.8139 52.4671 62.8139C53.0605 63.0273 53.7005 64.4806 53.7005 64.4806C53.9671 65.3406 52.2138 64.8339 52.2138 64.8339Z" fill="white"/>
<defs>
<linearGradient id="paint0_linear_1041_49250" x1="99.0007" y1="98.8871" x2="17.114" y2="19.2205" gradientUnits="userSpaceOnUse">
<stop stop-color="white"/>
<stop offset="0.09" stop-color="#F7F7F7"/>
<stop offset="0.22" stop-color="#E4E4E4"/>
<stop offset="0.37" stop-color="#C3C3C3"/>
<stop offset="0.54" stop-color="#969696"/>
<stop offset="0.73" stop-color="#5C5C5C"/>
<stop offset="0.94" stop-color="#171717"/>
<stop offset="1"/>
</linearGradient>
</defs>
</svg>
