<svg width="100" height="100" viewBox="0 0 100 100" fill="none" xmlns="http://www.w3.org/2000/svg">
<path d="M49.2531 6.2662C25.3398 6.2662 5.95312 25.6595 5.95312 49.5662C5.95312 71.8462 22.7731 90.1796 44.3998 92.5929C45.7331 92.7396 47.0865 92.8196 48.4531 92.8462C48.7198 92.8462 48.9865 92.8662 49.2531 92.8662C50.1931 92.8662 51.1198 92.8262 52.0465 92.7662C52.5931 92.7329 53.1265 92.6529 53.6731 92.5995C55.4531 92.4195 57.1865 92.1062 58.8998 91.7129C72.4798 88.6262 83.6198 79.1795 89.0131 66.6329C89.6931 65.0529 90.3064 63.4395 90.7998 61.7662C91.0065 61.0729 91.1398 60.3529 91.3131 59.6395C91.4798 58.9195 91.6865 58.2129 91.8265 57.4795C92.0465 56.2795 92.2331 55.0595 92.3531 53.8262C92.4865 52.4262 92.5598 51.0062 92.5598 49.5662C92.5598 25.6529 73.1731 6.2662 49.2598 6.2662H49.2531Z" fill="#0293A7"/>
<path style="mix-blend-mode:multiply" opacity="0.37" d="M89.0066 66.6397L67.7133 45.3463L64.7399 46.9463L60.7799 49.2797H55.7666L36.1799 29.693H30.2666L26.4199 35.1797L29.6799 42.2863L38.1799 49.6263L37.7133 57.313L35.7199 61.153V68.5463L58.8866 91.713C72.4666 88.6263 83.6066 79.1797 88.9999 66.633L89.0066 66.6397Z" fill="url(#paint0_linear_1041_49252)"/>
<path d="M67.98 45.8394C68.2267 45.2594 66.4467 44.8728 66.4467 44.8728C65.3667 43.7861 63.2867 43.6994 63.2867 43.6994L62.28 42.0128L61.9867 44.4061L60.3333 42.2928C60.3333 42.2928 59.8267 45.7061 59.76 47.6928C59.6933 49.6794 55.1 48.8594 55.1 48.8594C47.8267 44.4594 37.14 45.8728 37.14 45.8728C34.1867 44.3394 32.3933 42.8528 31.3 41.4261C31.1333 41.1928 30.9733 40.9594 30.82 40.7328C26.62 34.4594 29.12 31.9261 30.26 31.1794C30.4067 31.0528 30.56 30.9728 30.7333 30.9194C31.9533 30.5528 33.7467 31.8394 34.58 32.0128C38.02 32.7328 36.7467 30.0928 36.1667 29.6861C32.4867 27.1061 30.5733 27.7794 29.1533 28.8261C21.6667 34.3194 27.3467 41.6461 30.1067 44.3994C30.9267 45.2128 33.6533 47.3528 33.6533 47.3528C31.74 52.3261 34.2533 58.0194 34.2533 58.0194C33.6867 63.0928 34.32 66.1528 35.42 67.6328C35.6067 68.1794 35.7133 68.5394 35.7133 68.5394C35.7533 68.8194 36.0267 68.9661 36.3933 69.0394C36.4467 69.0794 36.5333 69.0794 36.6467 69.0794C36.84 69.0994 37.0533 69.1061 37.2667 69.0994H37.28C37.9133 69.2194 38.52 69.7394 38.6267 69.1661C38.64 69.0994 38.6467 69.0261 38.6467 68.9594C38.7733 68.9394 38.8467 68.9261 38.8467 68.9261C39.1133 67.6661 37.5067 67.5661 37.5067 67.5661C36.8267 67.1928 36.3667 62.7061 36.3667 62.7061C36.3667 62.7061 39.4733 61.4394 41.08 57.5528C41.42 57.5928 45.4867 57.7461 45.4867 57.7461C50.9533 59.8928 45.2867 63.6261 47.2067 65.6861C48.2067 66.7594 49.0067 66.7661 49.5467 66.5328C50.0333 66.6728 50.4467 66.8728 50.5067 66.4194C50.5733 65.8994 50.2067 65.4194 49.6667 65.2661C48.7133 63.6594 50.5133 60.7061 50.5133 60.7061C51.4267 58.9061 52.9667 59.7928 52.9667 59.7928C54.8 63.5861 58.1867 67.2461 59.86 68.9261C59.86 68.9261 59.4867 70.6128 63.16 70.1661C63.58 69.4528 63.5067 69.1528 63.2533 69.0461C62.8467 68.2794 61.32 66.8728 60.8933 67.1461C60.5067 66.4394 59.9467 65.3928 59.4267 64.4194C59.24 63.9061 58.7333 62.2061 59.36 60.3728C60.0933 59.0261 60.18 57.6394 60.18 57.6394C63.72 49.3061 66.5533 48.8661 66.5533 48.8661C69.3133 48.3328 67.7267 46.4061 67.9667 45.8261L67.98 45.8394Z" fill="#F0EFEE"/>
<defs>
<linearGradient id="paint0_linear_1041_49252" x1="88.5132" y1="94.593" x2="20.0399" y2="23.8997" gradientUnits="userSpaceOnUse">
<stop stop-color="white"/>
<stop offset="0.09" stop-color="#F7F7F7"/>
<stop offset="0.22" stop-color="#E4E4E4"/>
<stop offset="0.37" stop-color="#C3C3C3"/>
<stop offset="0.54" stop-color="#969696"/>
<stop offset="0.73" stop-color="#5C5C5C"/>
<stop offset="0.94" stop-color="#171717"/>
<stop offset="1"/>
</linearGradient>
</defs>
</svg>
