<svg width="100" height="100" viewBox="0 0 53 53" fill="none" xmlns="http://www.w3.org/2000/svg">
<path d="M26.098 4.03552C13.6631 4.03552 3.58203 14.1201 3.58203 26.5515C3.58203 38.1371 12.3284 47.6705 23.5743 48.9254C24.2676 49.0017 24.9714 49.0433 25.682 49.0571C25.8207 49.0571 25.9594 49.0675 26.098 49.0675C26.5868 49.0675 27.0687 49.0467 27.5506 49.0155C27.8348 48.9982 28.1122 48.9566 28.3964 48.9289C29.322 48.8353 30.2234 48.6723 31.1143 48.4678C38.1759 46.8627 43.9687 41.9505 46.7732 35.4262C47.1268 34.6046 47.4458 33.7657 47.7023 32.8955C47.8098 32.535 47.8791 32.1606 47.9692 31.7897C48.0559 31.4153 48.1634 31.0478 48.2362 30.6665C48.3506 30.0425 48.4476 29.4081 48.51 28.7667C48.5794 28.0387 48.6175 27.3003 48.6175 26.5515C48.6175 14.1166 38.5364 4.03552 26.1015 4.03552H26.098Z" fill="#FFFDFC"/>
<path style="mix-blend-mode:multiply" opacity="0.37" d="M46.7697 35.4297L35.6971 24.3571L34.151 25.1891L32.0918 26.4025H29.4849L19.2998 16.2174H16.2249L14.2246 19.0705L15.9198 22.7659L20.3398 26.5827L20.0971 30.5798L19.0606 32.5766V36.4211L31.1073 48.4678C38.1689 46.8627 43.9617 41.9505 46.7662 35.4262L46.7697 35.4297Z" fill="url(#paint0_linear_1208_36234)"/>
<path d="M35.836 24.6136C35.9643 24.312 35.0387 24.1109 35.0387 24.1109C34.4771 23.5459 33.3955 23.5008 33.3955 23.5008L32.872 22.6237L32.7195 23.8683L31.8597 22.7693C31.8597 22.7693 31.5963 24.5443 31.5616 25.5773C31.5269 26.6104 29.1384 26.184 29.1384 26.184C25.3563 23.896 19.7992 24.6309 19.7992 24.6309C18.2635 23.8336 17.3309 23.0605 16.7624 22.3187C16.6757 22.1973 16.5925 22.076 16.5128 21.9581C14.3288 18.696 15.6288 17.3787 16.2216 16.9904C16.2979 16.9245 16.3776 16.8829 16.4677 16.8552C17.1021 16.6645 18.0347 17.3336 18.468 17.4237C20.2568 17.7981 19.5947 16.4253 19.2931 16.2139C17.3795 14.8723 16.3845 15.2224 15.6461 15.7667C11.7531 18.6232 14.7067 22.4331 16.1419 23.8648C16.5683 24.2877 17.9861 25.4005 17.9861 25.4005C16.9912 27.9867 18.2981 30.9472 18.2981 30.9472C18.0035 33.5853 18.3328 35.1765 18.9048 35.9461C19.0019 36.2304 19.0573 36.4176 19.0573 36.4176C19.0781 36.5632 19.2203 36.6395 19.4109 36.6776C19.4387 36.6984 19.4837 36.6984 19.5427 36.6984C19.6432 36.7088 19.7541 36.7123 19.8651 36.7088H19.872C20.2013 36.7712 20.5168 37.0416 20.5723 36.7435C20.5792 36.7088 20.5827 36.6707 20.5827 36.636C20.6485 36.6256 20.6867 36.6187 20.6867 36.6187C20.8253 35.9635 19.9899 35.9115 19.9899 35.9115C19.6363 35.7173 19.3971 33.3843 19.3971 33.3843C19.3971 33.3843 21.0125 32.7256 21.848 30.7045C22.0248 30.7253 24.1395 30.8051 24.1395 30.8051C26.9821 31.9213 24.0355 33.8627 25.0339 34.9339C25.5539 35.492 25.9699 35.4955 26.2507 35.3741C26.5037 35.4469 26.7187 35.5509 26.7499 35.3152C26.7845 35.0448 26.5939 34.7952 26.3131 34.7155C25.8173 33.88 26.7533 32.3443 26.7533 32.3443C27.2283 31.4083 28.0291 31.8693 28.0291 31.8693C28.9824 33.8419 30.7435 35.7451 31.6136 36.6187C31.6136 36.6187 31.4195 37.4957 33.3296 37.2635C33.548 36.8925 33.5099 36.7365 33.3781 36.6811C33.1667 36.2824 32.3728 35.5509 32.1509 35.6931C31.9499 35.3256 31.6587 34.7813 31.3883 34.2752C31.2912 34.0083 31.0277 33.1243 31.3536 32.1709C31.7349 31.4707 31.78 30.7496 31.78 30.7496C33.6208 26.4163 35.0941 26.1875 35.0941 26.1875C36.5293 25.9101 35.7043 24.9083 35.8291 24.6067L35.836 24.6136Z" fill="#0293A7"/>
<defs>
<linearGradient id="paint0_linear_1208_36234" x1="46.5131" y1="49.9654" x2="10.907" y2="13.2049" gradientUnits="userSpaceOnUse">
<stop stop-color="white"/>
<stop offset="0.09" stop-color="#F7F7F7"/>
<stop offset="0.22" stop-color="#E4E4E4"/>
<stop offset="0.37" stop-color="#C3C3C3"/>
<stop offset="0.54" stop-color="#969696"/>
<stop offset="0.73" stop-color="#5C5C5C"/>
<stop offset="0.94" stop-color="#171717"/>
<stop offset="1"/>
</linearGradient>
</defs>
</svg>
