<svg width="100" height="100" viewBox="0 0 100 100" fill="none" xmlns="http://www.w3.org/2000/svg">
<path d="M50.0745 6.26631C26.5678 6.26631 7.50781 25.3263 7.50781 48.8396C7.50781 70.7396 24.0345 88.7663 45.3011 91.1396C45.7745 91.193 46.2545 91.2263 46.7278 91.2596C47.5745 91.3196 48.4278 91.373 49.2811 91.3863C49.5411 91.3863 49.8078 91.4063 50.0678 91.4063C50.6078 91.4063 51.1545 91.3796 51.6878 91.353C51.9411 91.3396 52.1945 91.3397 52.4411 91.3263C52.5678 91.3196 52.6878 91.3196 52.8145 91.313C70.7411 90.1796 85.6278 77.9263 90.7278 61.3796C90.7878 61.1996 90.8545 61.0263 90.9145 60.8396C90.9411 60.7196 90.9745 60.593 91.0078 60.473C91.3611 59.2063 91.6812 57.933 91.9212 56.6263C92.1412 55.4463 92.3145 54.2463 92.4411 53.033C92.4411 53.0196 92.4411 53.0063 92.4411 52.993C92.5745 51.6263 92.6412 50.2463 92.6412 48.8396C92.6412 25.333 73.5878 6.26631 50.0678 6.26631H50.0745Z" fill="#0293A7"/>
<path style="mix-blend-mode:multiply" opacity="0.37" d="M50.075 91.4129C50.615 91.4129 51.1617 91.3862 51.695 91.3595C51.9484 91.3462 52.2017 91.3462 52.4484 91.3329C52.575 91.3262 52.695 91.3262 52.8217 91.3195C70.7484 90.1862 85.635 77.9329 90.735 61.3862C90.795 61.2062 90.8617 61.0329 90.9217 60.8462C90.9484 60.7262 90.9817 60.5995 91.015 60.4795C91.3684 59.2129 91.6884 57.9395 91.9284 56.6329C92.1484 55.4529 92.3217 54.2529 92.4484 53.0395C92.4484 53.0262 92.4484 53.0129 92.4484 52.9995L75.4017 35.9529L60.7217 41.2595L33.875 50.7529L31.075 49.8462L28.0017 55.8129L23.415 63.2662L26.7684 66.6195L26.4284 70.9662L46.7284 91.2662C47.575 91.3262 48.4284 91.3795 49.2817 91.3929C49.5417 91.3929 49.8084 91.4129 50.0684 91.4129H50.075Z" fill="url(#paint0_linear_1041_49253)"/>
<path d="M75.4017 36.5864C75.4017 36.5864 76.4084 35.6598 73.8351 35.7798C71.7884 35.8731 71.9017 35.1798 71.6084 34.6331V34.4531C71.6084 34.1398 71.3551 33.8931 71.0484 33.8931C70.9951 33.8931 70.9417 33.9064 70.8884 33.9198C70.0884 33.2731 68.0817 32.0064 65.5551 33.0864C65.5551 33.0864 63.3417 33.8131 59.8084 37.6331C59.8084 37.6331 58.4417 39.7664 55.0217 41.7731C55.0217 41.7731 52.6884 41.7731 48.6684 43.7398C48.6684 43.7398 33.7151 46.1931 32.2617 47.6398C32.2617 47.6398 29.9684 48.4064 28.3217 52.9864C28.3217 52.9864 29.0017 53.5864 23.4151 62.4731C23.4151 62.4731 22.3284 65.0864 25.8684 60.7864C25.8684 60.7864 28.7151 58.0198 29.4284 54.5264C29.4351 54.4931 29.4417 54.4664 29.4484 54.4331C30.1217 50.9531 31.3417 51.4398 31.9151 50.7664C31.6884 51.0331 30.1417 53.0464 30.7351 56.4864C31.5151 58.7131 29.1684 61.7531 29.1684 61.7531C29.1684 61.7531 27.7617 64.6464 26.0351 65.6531L26.4351 70.9598H28.9684C28.9684 70.9598 30.9751 70.9998 28.6884 69.1931C28.6884 69.1931 26.6817 69.2731 28.7284 67.0664C28.7284 67.0664 32.3084 62.2798 34.8817 60.3531C34.8817 60.3531 37.4151 58.6664 38.3817 55.3664C38.3817 55.3664 43.3351 54.9131 46.6484 55.2464C47.2951 55.3264 47.9017 55.4331 48.4684 55.5731C49.7617 55.8864 50.8417 56.3264 51.7417 56.8131C52.6884 57.3331 53.4351 57.9064 54.0084 58.4398C54.5417 59.0531 55.3551 60.4731 55.3284 63.4664C55.3151 64.5064 55.4084 65.9331 55.8217 67.5931C56.0884 68.6731 56.2751 69.3931 56.4084 69.8731C56.4084 69.8731 56.5551 69.7864 56.4484 70.1798C56.4084 70.3331 56.2951 71.2531 56.9151 70.8131H58.3351L59.3551 70.9731L59.4151 70.8131C59.5617 70.8464 59.4284 71.2398 59.4217 71.2598C59.3484 71.7398 61.3017 70.8798 62.0084 71.3198C62.1417 71.3864 62.3151 71.4264 62.5084 71.4264C62.7951 71.4264 63.0484 71.3331 63.1884 71.1998C63.1884 71.1998 63.1151 71.1398 63.1151 71.1464C63.1151 71.1331 63.2151 71.1798 63.2151 71.1664C63.2684 71.1064 63.3017 71.0331 63.3017 70.9598C63.3017 70.9198 63.2884 70.8798 63.2751 70.8464C63.4617 69.3198 62.2417 69.5798 62.2417 69.5798C61.6817 69.7398 60.9484 69.2998 60.8751 69.1398C60.7417 68.8131 60.6151 68.4598 60.5217 68.0798C60.0817 66.2731 60.0417 56.8264 61.0417 55.8998C61.0417 55.8998 63.4151 53.2464 63.8951 47.0931C63.8951 47.0931 64.9884 42.2598 67.2484 41.1931C67.3217 41.2131 70.6084 41.9664 72.5217 41.3598C72.7951 41.5531 73.0484 41.6198 73.0484 41.6198C75.7151 42.4264 75.1417 38.6198 75.0284 37.9464C75.0284 37.9464 75.0284 37.9331 75.0284 37.9264C75.0284 37.9264 75.8351 37.2464 75.3884 36.5998L75.4017 36.5864ZM58.1417 69.0464C58.0084 68.7198 57.8817 68.3664 57.7884 67.9864C57.4417 66.5664 57.3417 60.4331 57.8017 57.4198C58.0884 58.5464 58.5884 60.8131 58.2284 61.6731C58.2284 61.6731 57.6617 64.1264 58.5484 67.6598C58.7417 68.4264 58.8884 69.0264 59.0084 69.4931C58.5817 69.4131 58.1884 69.1531 58.1351 69.0398L58.1417 69.0464Z" fill="#F0EFEE"/>
<defs>
<linearGradient id="paint0_linear_1041_49253" x1="92.3417" y1="90.9062" x2="36.1217" y2="41.8262" gradientUnits="userSpaceOnUse">
<stop stop-color="white"/>
<stop offset="0.09" stop-color="#F7F7F7"/>
<stop offset="0.22" stop-color="#E4E4E4"/>
<stop offset="0.37" stop-color="#C3C3C3"/>
<stop offset="0.54" stop-color="#969696"/>
<stop offset="0.73" stop-color="#5C5C5C"/>
<stop offset="0.94" stop-color="#171717"/>
<stop offset="1"/>
</linearGradient>
</defs>
</svg>
