<svg width="100" height="100" viewBox="0 0 100 100" fill="none" xmlns="http://www.w3.org/2000/svg">
<path d="M93.1854 49.2732C93.1854 52.0932 92.9187 54.8532 92.3854 57.5198C92.3654 57.6598 92.332 57.7932 92.3054 57.9332C92.2787 58.0932 92.2454 58.2398 92.2121 58.3932C92.1854 58.5532 92.152 58.6865 92.1187 58.8332C92.092 58.9532 92.0654 59.0598 92.0387 59.1798C91.9787 59.4332 91.9187 59.6998 91.8454 59.9598C91.7587 60.3132 91.6654 60.6732 91.5654 61.0198C88.4387 72.0732 80.992 81.3065 71.1854 86.8065C69.852 87.5665 68.472 88.2398 67.0654 88.8332C66.952 88.8865 66.832 88.9332 66.7187 88.9798C65.8587 89.3398 64.992 89.6732 64.1054 89.9665C63.4454 90.2065 62.772 90.4132 62.092 90.6065C61.9054 90.6598 61.7254 90.7132 61.5387 90.7598C60.3987 91.0798 59.232 91.3465 58.0587 91.5598C55.5054 92.0332 52.8787 92.2798 50.1854 92.2798C26.4387 92.2798 7.17871 73.0265 7.17871 49.2798C7.17871 25.5332 26.432 6.26649 50.1787 6.26649C73.9254 6.26649 93.1854 25.5198 93.1854 49.2732Z" fill="#0293A7"/>
<path style="mix-blend-mode:multiply" opacity="0.18" d="M92.3855 57.5197C92.3655 57.6597 92.3322 57.7931 92.3055 57.9331C92.2788 58.0931 92.2455 58.2397 92.2122 58.3931C92.1855 58.5531 92.1522 58.6864 92.1188 58.8331C92.0922 58.9531 92.0655 59.0597 92.0388 59.1797C91.9788 59.4331 91.9188 59.6997 91.8455 59.9597C91.7588 60.3131 91.6655 60.6731 91.5655 61.0197C88.4388 72.0731 80.9922 81.3064 71.1855 86.8064C69.8522 87.5664 68.4722 88.2397 67.0655 88.8331C66.9522 88.8864 66.8322 88.9331 66.7188 88.9797C65.8588 89.3397 64.9922 89.6731 64.1055 89.9664C63.4455 90.2064 62.7722 90.4131 62.0922 90.6064C61.9055 90.6597 61.7255 90.7131 61.5388 90.7597L26.6455 55.8664L36.5922 45.8664L54.8655 42.1731L62.1322 49.4397L72.4988 37.6197L92.3988 57.5197H92.3855Z" fill="url(#paint0_linear_1041_49254)"/>
<path d="M47.2116 59.8533C47.2116 59.8533 43.4049 59.06 44.8849 63.0534C45.3316 64.2467 45.1716 65.62 44.3649 66.6067C44.3516 66.62 44.3382 66.64 44.3249 66.6534C43.4049 67.74 41.6249 67.3933 41.1649 66.0467C40.4182 63.88 38.8182 60.3267 36.4182 60.74C35.7049 60.86 34.9849 60.9 34.2782 60.74C32.6716 60.3867 30.1982 59.52 29.5849 57.44C29.5849 57.44 24.0182 56.88 27.3582 51.6867C27.3582 51.6867 33.4849 44.2667 37.5649 44.08C37.5649 44.08 36.4116 40.2733 37.1849 37.3067C37.8849 34.6133 41.5316 34.0667 43.0049 36.4267C44.2049 38.3467 46.8382 40.66 52.5782 40.7467C53.5516 40.76 54.4582 41.2867 54.8649 42.1733C55.4049 43.3667 55.0249 44.9333 49.8182 45.3733C49.8182 45.3733 51.4916 45.7667 53.0116 46.5533C54.2782 47.2067 55.8316 46.92 56.7116 45.7933C58.6182 43.36 62.0916 39.66 66.6982 37.7667C66.6982 37.7667 67.5916 37.3467 68.8049 36.5133C70.1049 35.62 71.9316 36.14 72.4916 37.62C72.6316 37.9933 72.8049 38.3867 73.0182 38.7733C74.0916 40.7533 73.2316 43.2333 71.1382 44.0533C70.6182 44.26 70.0916 44.48 69.5849 44.72C66.5849 46.1333 65.9582 50.1333 68.3982 52.38C70.2316 54.0667 72.6582 55.9267 74.9716 56.5467C76.4516 56.9467 76.8916 58.8333 75.7849 59.9C75.7182 59.9667 75.6516 60.0267 75.5782 60.0933C72.3716 63.0533 67.4316 63.0734 64.0716 60.2934C62.6782 59.14 61.0982 57.4667 59.4516 55.02C59.4516 55.02 56.3916 50.8533 54.7449 52.28C53.9516 52.9667 54.3249 54.28 55.3382 54.5534C57.1849 55.06 59.9982 56.4334 58.7116 60.0334C58.7116 60.0334 54.8116 64.3 47.2049 59.8467L47.2116 59.8533Z" fill="white"/>
<defs>
<linearGradient id="paint0_linear_1041_49254" x1="69.5522" y1="73.5531" x2="53.7855" y2="47.0797" gradientUnits="userSpaceOnUse">
<stop stop-color="white"/>
<stop offset="1"/>
</linearGradient>
</defs>
</svg>
