<svg width="100" height="100" viewBox="0 0 100 100" fill="none" xmlns="http://www.w3.org/2000/svg">
<path d="M48.4811 8.45377C25.3611 8.45377 6.62109 27.1938 6.62109 50.3138C6.62109 71.8538 22.8811 89.5804 43.7878 91.9138C45.0078 92.0471 46.2478 92.1138 47.4944 92.1338C47.5678 92.1405 47.6344 92.1538 47.7078 92.1538C47.9678 92.1604 48.2278 92.1805 48.4811 92.1805C49.3878 92.1805 50.2878 92.1405 51.1811 92.0804C51.7078 92.0471 52.2278 91.9738 52.7478 91.9138C54.0211 91.7871 55.2678 91.5804 56.5011 91.3404C57.2078 91.2004 57.9011 91.0338 58.5944 90.8604C71.9744 87.5471 82.7744 77.8138 87.5878 65.0938C87.7878 64.5604 88.0011 64.0338 88.1811 63.4871C88.3344 63.0271 88.5011 62.5738 88.6478 62.1071C88.8211 61.4871 88.9478 60.8604 89.0944 60.2338C89.1144 60.1671 89.1211 60.1138 89.1344 60.0538C89.3011 59.3604 89.5078 58.6738 89.6344 57.9605C89.8478 56.7938 90.0211 55.6204 90.1411 54.4271C90.2744 53.0738 90.3411 51.7004 90.3411 50.3071C90.3411 27.1871 71.6011 8.44711 48.4811 8.44711V8.45377Z" fill="#0293A7"/>
<path style="mix-blend-mode:multiply" opacity="0.3" d="M68.707 50.1801L69.1604 50.5401C69.087 50.4068 68.927 50.2868 68.707 50.1801Z" fill="url(#paint0_linear_1041_49255)"/>
<path style="mix-blend-mode:multiply" opacity="0.3" d="M30.6201 58.38C31.5401 60.7933 33.2601 62.6133 35.4734 64.06C35.4934 64.08 35.5268 64.0867 35.5468 64.1L30.6201 58.38Z" fill="url(#paint1_linear_1041_49255)"/>
<path style="mix-blend-mode:multiply" opacity="0.3" d="M30.6735 52.8466C30.8335 52.5733 31.0535 52.3333 31.3001 52.0066C30.9468 52.08 30.6535 52.1133 30.3735 52.2C28.4935 52.7466 26.7001 52.5333 24.9668 51.8133L30.6201 58.38C30.4401 57.9066 30.2801 57.4133 30.1668 56.8933C29.8601 55.4933 29.9268 54.12 30.6735 52.8466Z" fill="url(#paint2_linear_1041_49255)"/>
<path style="mix-blend-mode:multiply" opacity="0.3" d="M69.1602 50.5401C69.2869 50.7401 69.2202 50.9667 68.9135 51.1867C68.0869 51.7801 67.5602 52.5867 67.0069 53.4067C66.3269 54.3934 65.4335 55.1867 64.4269 55.9134C65.1002 56.7334 65.8602 57.3801 66.7135 57.9334C67.2935 58.3134 67.8735 58.7001 68.4469 59.0934C68.6202 59.2134 68.7802 59.3667 68.9202 59.5267C69.2335 59.8667 69.2469 60.0201 69.0002 60.4001C69.3269 60.6534 69.6602 60.8934 69.9669 61.1667C70.4669 61.6201 70.4602 61.8534 70.0202 62.2601C70.1002 62.5001 70.2869 62.8267 70.2135 62.9001C70.0535 63.0734 69.7469 63.2267 69.5269 63.1934C68.3469 63.0467 67.1535 62.9201 66.0069 62.6334C63.7335 62.0801 61.6469 61.0801 59.7802 59.6467C59.6802 59.5734 59.4802 59.5334 59.3602 59.5734C57.3069 60.3267 55.1735 60.4267 53.0202 60.3534C51.5535 60.3001 50.0669 60.2734 48.6202 60.0601C47.0735 59.8334 45.5535 59.4201 44.0402 59.0334C43.5202 58.9001 43.0402 58.6134 42.5135 58.3801C42.4002 58.6934 42.5269 58.8867 42.8002 59.0267C43.3935 59.3334 43.4002 59.3334 43.3335 60.0134C43.2935 60.3867 43.4069 60.6801 43.7335 60.8667C44.2335 61.1601 44.4669 61.5934 44.4669 62.1601C44.4669 62.5867 44.6735 62.8734 45.0402 63.0601C45.4935 63.2867 45.6869 63.6467 45.6869 64.1601C45.6802 64.7801 45.9935 65.2734 46.4802 65.6267C47.3202 66.2467 47.8069 67.1201 48.3069 67.9934C48.3402 68.0534 48.3802 68.1134 48.3802 68.1801C48.4002 68.3667 48.4602 68.6001 48.3802 68.7334C48.3202 68.8201 48.0269 68.8267 47.8735 68.7734C47.2735 68.5801 46.6802 68.3667 46.1002 68.1267C44.5669 67.4801 43.1002 66.7001 41.7135 65.7734C39.1669 64.0734 37.1002 61.9534 35.8402 59.1201C35.8135 59.0601 35.7669 59.0134 35.7335 58.9534C35.6935 58.9667 35.6469 58.9801 35.6002 58.9934C35.6669 59.2267 35.6802 59.5067 35.8135 59.6867C36.2069 60.2334 36.2402 60.7801 36.0069 61.4001C35.9469 61.5667 35.9802 61.8267 36.0602 62.0001C36.2602 62.4067 36.5335 62.7801 36.7269 63.1867C36.8535 63.4601 36.9202 63.7667 36.9602 64.0667C37.0002 64.3334 36.8269 64.4934 36.5669 64.4267C36.2202 64.3401 35.8469 64.2734 35.5469 64.1001L58.5869 90.8667C80.4802 84.8001 87.5802 65.1001 87.5802 65.1001L69.1602 50.5401Z" fill="url(#paint3_linear_1041_49255)"/>
<path d="M64.7471 55.9073C65.4204 56.734 66.1804 57.374 67.0271 57.9273C67.6137 58.3073 68.1871 58.694 68.7604 59.094C68.9337 59.214 69.0937 59.3673 69.2337 59.5207C69.5471 59.8673 69.5537 60.0207 69.3137 60.394C69.6404 60.6473 69.9737 60.8873 70.2804 61.1673C70.7804 61.6207 70.7671 61.854 70.3337 62.254C70.4137 62.494 70.6004 62.8207 70.5271 62.894C70.3671 63.0673 70.0604 63.2207 69.8337 63.1873C68.6537 63.0407 67.4604 62.9073 66.3137 62.6273C64.0404 62.0673 61.9604 61.0673 60.0937 59.6407C59.9937 59.5607 59.7937 59.5207 59.6737 59.5673C57.6204 60.3207 55.4804 60.4207 53.3337 60.3407C51.8604 60.2873 50.3804 60.2673 48.927 60.0473C47.387 59.8207 45.867 59.4073 44.347 59.0207C43.827 58.8873 43.347 58.6007 42.827 58.374C42.707 58.6873 42.8404 58.8807 43.107 59.014C43.7004 59.3207 43.707 59.3207 43.6404 60.0007C43.6004 60.374 43.7204 60.6673 44.0404 60.854C44.5404 61.1473 44.7804 61.5807 44.7804 62.1473C44.7804 62.574 44.987 62.8607 45.347 63.0407C45.8004 63.274 45.9937 63.634 45.9937 64.1473C45.9937 64.7673 46.3004 65.2607 46.787 65.614C47.627 66.2273 48.1137 67.1073 48.6137 67.9807C48.647 68.0407 48.687 68.1007 48.6937 68.1673C48.7071 68.354 48.7737 68.5873 48.6937 68.7207C48.6404 68.8073 48.3404 68.814 48.187 68.7607C47.587 68.5673 46.9937 68.354 46.4137 68.114C44.8804 67.4673 43.4137 66.6873 42.027 65.7673C39.4804 64.0673 37.4137 61.9473 36.147 59.114C36.1204 59.054 36.0804 59.0073 36.047 58.954C36.0004 58.9673 35.9604 58.9807 35.9137 58.994C35.9804 59.2273 35.987 59.5007 36.127 59.6873C36.527 60.234 36.5537 60.7807 36.3204 61.394C36.2537 61.5673 36.2937 61.8207 36.3737 61.994C36.567 62.4007 36.847 62.774 37.0404 63.1873C37.167 63.4607 37.2337 63.7673 37.2737 64.0673C37.307 64.3273 37.1404 64.4873 36.8737 64.4273C36.5004 64.334 36.0937 64.2673 35.7804 64.0607C33.1337 62.3273 31.1737 60.0673 30.4737 56.894C30.167 55.494 30.2337 54.1207 30.9804 52.8473C31.1404 52.574 31.3537 52.334 31.6004 52.0073C31.2537 52.074 30.9604 52.114 30.6737 52.194C28.5537 52.814 26.5337 52.4607 24.6004 51.5073C23.767 51.1007 23.2137 50.4273 23.047 49.4807C23.027 49.3473 22.9737 49.2207 22.9337 49.094C22.847 48.8007 22.6937 48.5873 22.3404 48.614C22.2337 48.6207 22.127 48.574 22.0204 48.5673C21.627 48.5473 21.4404 48.3073 21.5137 47.954C21.6604 47.2473 21.7804 46.5273 22.047 45.8673C23.027 43.4673 25.3537 42.4273 27.9737 43.1673C29.147 43.5007 30.187 44.114 31.1804 44.8007C31.8404 45.254 32.547 45.5873 33.347 45.7207C33.4204 45.734 33.5004 45.734 33.607 45.7407C33.5604 45.374 33.487 45.034 33.4737 44.694C33.4604 44.1873 33.5604 44.1207 34.0537 44.2207C34.767 44.3673 35.3804 44.1073 35.9337 43.714C38.867 41.6007 42.1804 40.3873 45.6604 39.5673C49.087 38.7607 52.427 39.0273 55.727 40.2473C58.2337 41.174 60.6471 42.254 62.6471 44.0607C63.7737 45.0807 64.8204 46.2073 65.8737 47.3007C66.5271 47.974 67.1004 48.7207 67.7671 49.3807C68.1071 49.7207 68.5537 49.9673 68.9937 50.1807C69.5671 50.4607 69.7004 50.8273 69.2004 51.1873C68.3737 51.7807 67.8471 52.5873 67.2937 53.4007C66.6204 54.3873 65.7271 55.1873 64.7204 55.9073H64.7471Z" fill="#F0EFEE"/>
<defs>
<linearGradient id="paint0_linear_1041_49255" x1="69.1937" y1="50.6668" x2="68.6004" y2="49.9401" gradientUnits="userSpaceOnUse">
<stop stop-color="white"/>
<stop offset="0.09" stop-color="#F7F7F7"/>
<stop offset="0.22" stop-color="#E4E4E4"/>
<stop offset="0.37" stop-color="#C3C3C3"/>
<stop offset="0.54" stop-color="#969696"/>
<stop offset="0.73" stop-color="#5C5C5C"/>
<stop offset="0.94" stop-color="#171717"/>
<stop offset="1"/>
</linearGradient>
<linearGradient id="paint1_linear_1041_49255" x1="36.3068" y1="65.58" x2="28.3468" y2="55.9133" gradientUnits="userSpaceOnUse">
<stop stop-color="white"/>
<stop offset="0.09" stop-color="#F7F7F7"/>
<stop offset="0.22" stop-color="#E4E4E4"/>
<stop offset="0.37" stop-color="#C3C3C3"/>
<stop offset="0.54" stop-color="#969696"/>
<stop offset="0.73" stop-color="#5C5C5C"/>
<stop offset="0.94" stop-color="#171717"/>
<stop offset="1"/>
</linearGradient>
<linearGradient id="paint2_linear_1041_49255" x1="33.5001" y1="58.42" x2="24.3668" y2="47.3333" gradientUnits="userSpaceOnUse">
<stop stop-color="white"/>
<stop offset="0.09" stop-color="#F7F7F7"/>
<stop offset="0.22" stop-color="#E4E4E4"/>
<stop offset="0.37" stop-color="#C3C3C3"/>
<stop offset="0.54" stop-color="#969696"/>
<stop offset="0.73" stop-color="#5C5C5C"/>
<stop offset="0.94" stop-color="#171717"/>
<stop offset="1"/>
</linearGradient>
<linearGradient id="paint3_linear_1041_49255" x1="81.5202" y1="88.8334" x2="36.2202" y2="33.8201" gradientUnits="userSpaceOnUse">
<stop stop-color="white"/>
<stop offset="0.09" stop-color="#F7F7F7"/>
<stop offset="0.22" stop-color="#E4E4E4"/>
<stop offset="0.37" stop-color="#C3C3C3"/>
<stop offset="0.54" stop-color="#969696"/>
<stop offset="0.73" stop-color="#5C5C5C"/>
<stop offset="0.94" stop-color="#171717"/>
<stop offset="1"/>
</linearGradient>
</defs>
</svg>
