<svg width="8" height="15" viewBox="0 0 8 15" fill="none" xmlns="http://www.w3.org/2000/svg">
<path d="M5.47396 7.5L0.293766 2.28533C0.103137 2.08664 -0.00234481 1.82053 3.95606e-05 1.54432C0.00242394 1.2681 0.112484 1.00388 0.306514 0.808554C0.500544 0.613232 0.763021 0.50244 1.03741 0.50004C1.3118 0.49764 1.57615 0.603823 1.77352 0.795721L7.6936 6.7552C7.88979 6.95275 8 7.22066 8 7.5C8 7.77934 7.88979 8.04725 7.6936 8.2448L1.77352 14.2043C1.57615 14.3962 1.3118 14.5024 1.03741 14.5C0.763021 14.4976 0.500544 14.3868 0.306514 14.1914C0.112484 13.9961 0.00242394 13.7319 3.95606e-05 13.4557C-0.00234481 13.1795 0.103137 12.9134 0.293766 12.7147L5.47396 7.5Z" fill="#DE6B35"/>
</svg>
