<svg width="16" height="17" viewBox="0 0 16 17" fill="none" xmlns="http://www.w3.org/2000/svg">
<path fill-rule="evenodd" clip-rule="evenodd" d="M4.64511 2.14592C4.59854 2.19236 4.5616 2.24754 4.53639 2.30828C4.51119 2.36903 4.49821 2.43415 4.49821 2.49992C4.49821 2.56568 4.51119 2.63081 4.53639 2.69155C4.5616 2.7523 4.59854 2.80747 4.64511 2.85392L10.2921 8.49992L4.64511 14.1459C4.55122 14.2398 4.49848 14.3671 4.49848 14.4999C4.49848 14.6327 4.55122 14.76 4.64511 14.8539C4.73899 14.9478 4.86633 15.0005 4.99911 15.0005C5.13188 15.0005 5.25922 14.9478 5.35311 14.8539L11.3531 8.85392C11.3997 8.80747 11.4366 8.7523 11.4618 8.69155C11.487 8.63081 11.5 8.56568 11.5 8.49992C11.5 8.43415 11.487 8.36903 11.4618 8.30828C11.4366 8.24754 11.3997 8.19236 11.3531 8.14592L5.35311 2.14592C5.30666 2.09935 5.25148 2.06241 5.19074 2.0372C5.12999 2.012 5.06487 1.99902 4.99911 1.99902C4.93334 1.99902 4.86822 2.012 4.80747 2.0372C4.74673 2.06241 4.69155 2.09935 4.64511 2.14592Z" fill="#94390F"/>
</svg>
