<svg width="50" height="50" viewBox="0 0 50 50" fill="none" xmlns="http://www.w3.org/2000/svg">
<g clip-path="url(#clip0_1884_36905)">
<path d="M25 50C38.8071 50 50 38.8071 50 25C50 11.1929 38.8071 0 25 0C11.1929 0 0 11.1929 0 25C0 38.8071 11.1929 50 25 50Z" fill="#0293A7"/>
<path d="M42.7457 32.5896C42.7337 32.5535 42.4227 31.6875 41.2904 31.3181C39.5704 30.7545 37.0052 31.6119 33.6667 33.8645C33.3282 32.8336 32.6306 32.2116 32.0275 31.8507C31.3935 31.4693 30.6409 31.258 29.8488 31.2356L25.1821 31.105C24.39 31.0827 23.6186 30.8937 22.9519 30.5604C19.1564 28.6617 15.7079 30.1016 14.4089 30.8026V29.0312C14.4089 28.8404 14.2543 28.6841 14.0619 28.6841H9.34708C9.15636 28.6841 9 28.8387 9 29.0312V40.6789C9 40.8696 9.15464 41.026 9.34708 41.026H14.0619C14.2526 41.026 14.4089 40.8714 14.4089 40.6789V40.1325L15.988 39.0947C17.0481 38.3885 18.2268 38.9538 18.2749 38.9779C18.2938 38.9865 18.3127 38.9951 18.3333 39.0002L24.0292 40.6669C25.5619 41.0604 26.8368 41.203 27.8832 41.203C30.4588 41.203 31.6375 40.3353 31.811 40.1944L42.6117 32.9934C42.7423 32.9057 42.799 32.7408 42.7474 32.5913L42.7457 32.5896ZM31.4107 39.6239C31.4003 39.6308 31.3883 39.6411 31.378 39.648C31.3574 39.6652 29.3282 41.3061 24.2131 39.9951L18.555 38.3387C18.323 38.2305 16.9124 37.6428 15.6065 38.5123L14.4107 39.2975V31.5965C15.1804 31.1377 18.7698 29.2373 22.6443 31.1738C23.4124 31.5587 24.2612 31.7666 25.1667 31.7906L29.8333 31.9212C30.5052 31.9401 31.1426 32.1188 31.6735 32.4384C32.6289 33.0123 33.1357 33.8937 33.1804 35.0604H25.7818C25.5911 35.0604 25.4347 35.215 25.4347 35.4075C25.4347 35.5999 25.5893 35.7545 25.7818 35.7545H33.1924C33.3763 35.7545 33.5567 35.6789 33.6856 35.5449C33.8144 35.4126 33.8814 35.2373 33.8746 35.0535C33.8694 34.8903 33.8557 34.7339 33.835 34.5844C37.8711 31.8147 39.988 31.6274 41.0533 31.9642C41.5464 32.1205 41.823 32.392 41.9639 32.5861L31.4141 39.6205L31.4107 39.6239Z" fill="white" stroke="white" stroke-miterlimit="10"/>
<path d="M21.648 26.9624C21.0277 26.9624 20.4281 26.8559 19.9092 26.6067C18.8232 26.0827 18.1067 25.1325 17.8387 23.8576C17.4796 22.1497 18.0191 20.0311 19.1531 18.7029C19.4641 18.337 19.8164 18.0139 20.1583 17.7012C20.4573 17.4263 20.739 17.1686 20.9968 16.8816C21.3215 16.5225 21.6171 16.1084 21.9023 15.7098C22.4538 14.9366 23.026 14.1376 23.8662 13.6136C25.5672 12.5534 28.0294 13.0895 29.1325 14.7631C29.3593 15.1067 29.5243 15.4778 29.6841 15.8352C29.8215 16.1411 29.9504 16.4315 30.1136 16.7012C30.4298 17.2218 30.8645 17.6548 31.3267 18.1136C31.6428 18.428 31.9693 18.7528 32.2579 19.1101C32.959 19.9813 33.2889 21.0328 33.2098 22.1514C33.0999 23.7201 32.2012 25.2081 30.8645 26.0345C29.6806 26.7665 28.3164 26.8748 27.0226 26.337C26.8903 26.282 26.7614 26.2201 26.636 26.1617C26.2734 25.9899 25.9315 25.8266 25.6033 25.861C25.3782 25.8833 25.1514 26.0002 24.9126 26.1239L24.8439 26.1583C23.9366 26.6222 22.7579 26.9624 21.648 26.9624Z" fill="white"/>
<path d="M29.2369 12.7682C28.9173 12.7682 28.6046 12.6995 28.328 12.5603C27.7025 12.2442 27.273 11.6926 27.0822 10.9658C26.7558 9.71839 27.1922 8.15997 27.7919 7.26478C28.2953 6.5122 29.0788 6.12904 29.8847 6.23729C30.7094 6.34897 31.3778 6.94176 31.6733 7.8232C31.8829 8.45206 31.9603 9.23042 31.8847 9.9555C31.7902 10.8747 31.4104 11.6617 30.8176 12.1754C30.3692 12.562 29.7936 12.7682 29.2386 12.7682H29.2369Z" fill="white"/>
<path d="M33.4126 17.7012C32.8971 17.7012 32.3954 17.5139 31.9865 17.1548C31.3336 16.5792 31.0552 15.6978 31.2631 14.8542C31.5191 13.8129 32.4813 12.7975 33.3009 12.3301C33.8576 12.0139 34.7202 11.9091 35.3009 12.428C35.6153 12.7098 35.8336 13.0947 35.9452 13.5706C36.2373 14.8112 35.7391 16.459 34.8559 17.1703C34.6514 17.3353 34.4349 17.4624 34.2133 17.5483C33.9487 17.6497 33.6789 17.6995 33.4126 17.6995V17.7012Z" fill="white"/>
<path d="M22.7478 12.8457C22.4712 12.8457 22.1894 12.7959 21.9231 12.6911C21.1224 12.3749 20.5571 11.7495 20.2873 10.8818C19.9334 9.74436 20.1567 8.29591 20.8423 7.27873C20.9609 7.10347 21.1499 6.84917 21.4179 6.6722C21.8062 6.41446 22.3114 6.3423 22.8062 6.47116C23.2083 6.57598 23.588 6.8045 23.9368 7.14986C24.1653 7.37495 24.3629 7.65673 24.5279 7.98491C25.1602 9.25123 25.1533 10.9179 24.509 11.9454C24.1516 12.5176 23.4626 12.8475 22.7495 12.8475L22.7478 12.8457Z" fill="white"/>
<path d="M17.9763 17.2201C17.1928 17.2201 16.5519 16.8249 16.1567 16.093C15.5279 14.928 15.631 13.0483 16.3767 12.0706C16.4866 11.9263 16.6275 11.7665 16.8371 11.6754C17.0107 11.5998 17.1894 11.5912 17.3268 11.593C18.1963 11.5998 19.0262 12.0139 19.6018 12.7287C20.1945 13.4641 20.4282 14.3937 20.2426 15.2768C20.198 15.4933 20.1207 15.7064 20.0158 15.9108C19.6258 16.6617 18.9093 17.1617 18.1447 17.215C18.088 17.2184 18.0313 17.2201 17.9763 17.2201Z" fill="white"/>
<path d="M27.8796 21.0139C27.8796 20.3421 27.6064 19.7991 26.316 19.4383V18.0671C26.5995 18.2012 26.7129 18.4434 26.7576 18.6926H27.7473C27.6837 18.0603 27.2765 17.4297 26.316 17.263V16.5654H25.4242V17.2441C24.4552 17.361 23.9449 17.9383 23.9449 18.7063C23.9449 19.3747 24.2748 19.8403 25.4242 20.1616V21.7682C25.0634 21.6582 24.8332 21.4108 24.7438 21.0104H23.7559C23.8624 21.8077 24.3882 22.428 25.426 22.5586V23.483H26.3177V22.5568C27.3521 22.4194 27.8813 21.818 27.8813 21.0156L27.8796 21.0139ZM24.95 18.5981C24.95 18.2871 25.1218 18.0843 25.426 18.0019V19.184C25.0669 19.0414 24.95 18.8781 24.95 18.5964V18.5981ZM26.3177 21.794V20.4177C26.7438 20.5912 26.8779 20.7974 26.8779 21.129C26.8779 21.4606 26.7077 21.6994 26.3177 21.794Z" fill="#0293A7"/>
</g>
<defs>
<clipPath id="clip0_1884_36905">
<rect width="50" height="50" fill="white"/>
</clipPath>
</defs>
</svg>
