<?xml version="1.0" encoding="UTF-8"?>
<svg id="house" xmlns="http://www.w3.org/2000/svg" viewBox="0 0 280 278">
  <defs>
    <style>
      .cls-1 {
        fill: none;
        stroke: #de6b35;
        stroke-linecap: round;
        stroke-miterlimit: 10;
        stroke-width: 30px;
      }
    </style>
  </defs>
  <path class="cls-1" d="m260.04,129.88v104.34c0,15.89-12.01,28.78-26.83,28.78h-48.75c-5.27,0-9.54-4.27-9.54-9.54v-70.59c0-4.74-3.84-8.57-8.57-8.57h-52.68c-4.73,0-8.58,3.83-8.58,8.57v70.59c0,5.27-4.27,9.54-9.54,9.54h-48.75c-14.81,0-26.83-12.89-26.83-28.78v-107.1c0-7.64,2.83-14.96,7.86-20.35L119.75,23.43c10.47-11.25,27.46-11.25,37.93,0l94.5,86.1c5.04,5.4,7.86,12.71,7.86,20.35Z"/>
</svg>