<?xml version="1.0" encoding="UTF-8"?>
<svg id="paw-orange" xmlns="http://www.w3.org/2000/svg" viewBox="0 0 280 278">
  <defs>
    <style>
      .cls-1 {
        stroke-width: 30px;
      }

      .cls-1, .cls-2 {
        fill: none;
        stroke: #de6b35;
        stroke-miterlimit: 10;
      }

      .cls-2 {
        stroke-width: 18px;
      }
    </style>
  </defs>
  <circle class="cls-2" cx="246.1" cy="112.61" r="24.9"/>
  <circle class="cls-2" cx="185.64" cy="52.75" r="24.9"/>
  <circle class="cls-2" cx="94.36" cy="52.75" r="24.9"/>
  <circle class="cls-2" cx="33.9" cy="112.61" r="24.9"/>
  <path class="cls-1" d="m201.56,164.92c-7.58-2.87-11.17-8.44-15.28-20.33-.01-.02-.01-.03-.01-.03-5.46-20.45-24.11-35.51-46.27-35.51s-39.46,13.99-45.63,33.31c-.03.11-.07.23-.1.33-4.96,15.44-9.88,19.39-14.92,21.8l-.78.37c-15.13,7.19-25.58,22.61-25.58,40.47,0,24.73,20.06,44.79,44.79,44.79,9.8,0,18.88-3.15,26.25-8.5,13.01-8.1,23.82-4.34,31.94-.01,8.33,4.95,16.49,8.24,26.25,8.51,24.73.68,44.79-20.06,44.79-44.79,0-17.81-9.84-34.5-25.46-40.42Z"/>
</svg>