<?xml version="1.0" encoding="UTF-8"?>
<svg id="paw-orange" xmlns="http://www.w3.org/2000/svg" viewBox="0 0 280 278">
  <defs>
    <style>
      .cls-1 {
        stroke-miterlimit: 10;
        stroke-width: 18px;
      }

      .cls-1, .cls-2 {
        fill: none;
        stroke: #de6b35;
      }

      .cls-2 {
        stroke-linejoin: round;
        stroke-width: 30px;
      }
    </style>
  </defs>
  <circle class="cls-1" cx="246.1" cy="112.61" r="24.9"/>
  <circle class="cls-1" cx="185.64" cy="52.75" r="24.9"/>
  <circle class="cls-1" cx="94.36" cy="52.75" r="24.9"/>
  <circle class="cls-1" cx="33.9" cy="112.61" r="24.9"/>
  <path class="cls-2" d="m227.01,205.34c0,24.73-20.06,44.79-44.79,44.79-9.8,0-18.88-3.15-26.25-8.49-13.01-8.1-23.82-4.34-31.94-.01-8.33,4.95-16.5,8.24-26.25,8.5-24.73.69-44.79-20.06-44.79-44.79,0-17.81,9.88-34.4,25.45-40.42,7.56-2.92,11.18-8.44,15.28-20.33.01-.02.01-.03.01-.03,5.46-20.45,24.11-35.5,46.27-35.5s39.46,13.99,45.63,33.31c.03.11.07.23.1.33,4.96,15.44,9.88,19.39,14.92,21.8l.79.37c15.12,7.19,25.57,22.61,25.57,40.47Z"/>
</svg>