<svg width="50" height="50" viewBox="0 0 50 50" fill="none" xmlns="http://www.w3.org/2000/svg">
<g clip-path="url(#clip0_1884_36921)">
<path d="M25 50C38.8071 50 50 38.8071 50 25C50 11.1929 38.8071 0 25 0C11.1929 0 0 11.1929 0 25C0 38.8071 11.1929 50 25 50Z" fill="#0293A7"/>
<path d="M41.9603 14.7335L32.419 8.37271C32.2661 8.249 31.2249 7.48096 28.9499 7.48096C28.0255 7.48096 26.9001 7.6081 25.5462 7.95518L20.5135 9.42769C20.4963 9.43285 20.4792 9.43972 20.462 9.44831C20.419 9.46893 19.3778 9.96893 18.4414 9.34522L17.0462 8.42941V7.94659C17.0462 7.77821 16.9087 7.64075 16.7403 7.64075H12.5754C12.407 7.64075 12.2695 7.77821 12.2695 7.94659V18.237C12.2695 18.4054 12.407 18.5428 12.5754 18.5428H16.7403C16.9087 18.5428 17.0462 18.4054 17.0462 18.237V16.6717C18.1939 17.2902 21.2403 18.5634 24.5943 16.8865C25.1836 16.5909 25.8658 16.4243 26.5651 16.4054L30.6888 16.2902C31.3881 16.2713 32.053 16.0823 32.6132 15.7456C33.1458 15.426 33.7609 14.8761 34.0616 13.9655C37.0118 15.9552 39.2764 16.7112 40.797 16.2146C41.797 15.8865 42.0719 15.1236 42.0822 15.0909C42.1286 14.9586 42.0788 14.8126 41.962 14.7353L41.9603 14.7335ZM40.5822 15.6373C39.6407 15.9346 37.7712 15.7696 34.206 13.3212C34.2231 13.1889 34.2352 13.0514 34.2403 12.9071C34.2455 12.7438 34.1871 12.5909 34.0719 12.4724C33.9585 12.3555 33.8005 12.2885 33.6372 12.2885H27.0908C26.9225 12.2885 26.785 12.426 26.785 12.5944C26.785 12.7627 26.9225 12.9002 27.0908 12.9002H33.6269C33.5874 13.9311 33.1407 14.7095 32.2953 15.2164C31.8245 15.4981 31.2627 15.6562 30.6699 15.6734L26.5462 15.7885C25.7472 15.8109 24.9981 15.9947 24.3176 16.3332C20.895 18.0445 17.7231 16.3658 17.0444 15.9603V9.15965L18.1011 9.85381C19.2541 10.6219 20.5015 10.103 20.706 10.0067L25.7042 8.54281C30.2231 7.38474 32.017 8.83491 32.0341 8.84865C32.0427 8.85553 32.053 8.86412 32.0633 8.87099L41.3846 15.0841C41.2592 15.2559 41.017 15.4964 40.5805 15.6339L40.5822 15.6373Z" fill="white" stroke="white" stroke-miterlimit="10"/>
<path d="M41.1749 26.2114C41.0959 25.4107 40.4223 24.8076 39.6096 24.8076H34.0495C33.888 23.9777 33.424 23.2732 32.668 22.7114C30.0031 20.732 24.7642 21.1856 24.7179 21.1942C23.3965 21.4193 22.1783 21.933 21.0976 22.72C20.3794 23.2423 19.7711 23.9055 19.2866 24.6942L11.3398 37.6289L24.9086 45.7045L24.9326 45.6633L25.0014 45.7045L25.7935 44.1719L29.2247 38.2337L29.2333 38.2165C30.5701 35.433 31.9429 34.8059 32.6423 34.6805C33.1938 34.5808 33.6457 34.4726 34.0649 34.3368L36.5993 33.5155C37.412 33.2526 38.1113 32.7458 38.6199 32.0499C40.4498 29.5516 41.3089 27.5877 41.1732 26.2114H41.1749ZM38.2041 31.744C37.7591 32.3506 37.1491 32.7921 36.4412 33.0224L33.9069 33.8437C33.5117 33.9726 33.0804 34.0756 32.5529 34.1702C31.7574 34.3128 30.2075 34.9983 28.7728 37.9811L26.1663 42.4915L13.3278 35.3763L19.7264 24.9622C20.1749 24.2337 20.7385 23.6186 21.4 23.1358C22.4154 22.3952 23.5615 21.9124 24.8038 21.7011C24.9704 21.6736 26.2883 21.5911 27.833 21.7354C29.2196 21.866 31.1319 22.2114 32.3605 23.1238C33.0666 23.6478 33.4756 24.311 33.5735 25.0946L33.601 25.3214H38.333C38.5203 25.8368 39.1457 27.2698 40.4292 27.7973C40.1216 28.7337 39.4704 30.0138 38.2041 31.7406V31.744Z" fill="white" stroke="white" stroke-miterlimit="10"/>
<path d="M24.5233 23.0225L24.0233 23.1513L25.6435 29.4658C25.8051 30.0912 25.7105 30.7458 25.3858 31.2613C24.9459 31.9589 24.2776 32.1926 23.3961 31.9537L18.7157 29.3472L18.4648 29.7991L23.1727 32.4194L23.1985 32.4348L23.2277 32.4434C23.525 32.5259 23.793 32.5637 24.037 32.5637C24.9563 32.5637 25.5078 32.0379 25.8222 31.5379C26.2226 30.9022 26.3394 30.1015 26.1435 29.3386L24.5233 23.0242V23.0225Z" fill="white"/>
<path d="M28.6678 25.5499C29.0236 25.5499 29.3121 25.2614 29.3121 24.9056C29.3121 24.5497 29.0236 24.2612 28.6678 24.2612C28.3119 24.2612 28.0234 24.5497 28.0234 24.9056C28.0234 25.2614 28.3119 25.5499 28.6678 25.5499Z" fill="white" stroke="white" stroke-miterlimit="10"/>
</g>
<defs>
<clipPath id="clip0_1884_36921">
<rect width="50" height="50" fill="white"/>
</clipPath>
</defs>
</svg>
