<svg width="50" height="50" viewBox="0 0 50 50" fill="none" xmlns="http://www.w3.org/2000/svg">
<g clip-path="url(#clip0_1884_36933)">
<path d="M25 50C38.8071 50 50 38.8071 50 25C50 11.1929 38.8071 0 25 0C11.1929 0 0 11.1929 0 25C0 38.8071 11.1929 50 25 50Z" fill="#0293A7"/>
<path d="M28.0713 31.6478C28.4991 32.1788 28.6589 32.7939 28.6159 33.3918C28.5008 35.0413 26.8462 36.5568 25.0592 35.8162C24.7362 35.6822 24.4183 35.4674 24.0713 35.5035C23.8754 35.5241 23.6967 35.6221 23.5214 35.7114C22.7259 36.1186 21.4854 36.3953 20.6383 35.988C18.9407 35.1702 19.1709 32.6478 20.2379 31.3987C20.585 30.9898 21.0232 30.6667 21.3823 30.2681C21.9785 29.6083 22.3702 28.7406 23.1245 28.2698C24.0816 27.6736 25.4905 27.9812 26.1108 28.9227C26.3582 29.2973 26.4854 29.7389 26.7173 30.1238C27.0695 30.7063 27.6434 31.1186 28.0695 31.6478H28.0713Z" fill="white"/>
<path d="M26.363 25.6823C25.083 25.0345 25.4318 23.0654 26.0624 22.1256C26.7531 21.0946 28.095 21.3111 28.485 22.4778C28.6448 22.9572 28.6758 23.5156 28.6311 23.952C28.5727 24.5087 28.3493 25.0654 27.9266 25.4314C27.5039 25.7974 26.863 25.9348 26.3648 25.6823H26.363Z" fill="white"/>
<path d="M31.6514 26.7217C31.849 27.5602 31.4968 28.6805 30.9315 29.1341C30.8078 29.2337 30.6703 29.3179 30.5226 29.3746C29.4332 29.7956 28.4092 28.7612 28.6755 27.6753C28.8404 27.0052 29.471 26.3025 30.0655 25.964C30.4332 25.7544 30.9367 25.7234 31.2511 26.0052C31.4556 26.1873 31.5844 26.4382 31.6514 26.72V26.7217Z" fill="white"/>
<path d="M23.194 22.6291C23.6013 23.4435 23.6391 24.6016 23.1923 25.3164C22.8727 25.8284 22.1476 25.9899 21.5858 25.7683C20.1597 25.2064 20.1597 23.2374 20.9019 22.1343C20.9999 21.9899 21.1133 21.8508 21.2576 21.7545C21.4947 21.5965 21.804 21.5673 22.0806 21.6394C22.3573 21.7116 22.6013 21.8765 22.804 22.0776C22.9569 22.2288 23.0875 22.4178 23.194 22.6291Z" fill="white"/>
<path d="M19.9928 27.8748C19.9636 28.0157 19.9138 28.1515 19.8468 28.2803C19.6131 28.7305 19.1715 29.0741 18.6681 29.1102C17.0048 29.2271 16.8451 26.6669 17.5787 25.7047C17.644 25.6188 17.7196 25.5346 17.8193 25.49C17.9 25.4556 17.9894 25.4487 18.077 25.4504C19.2987 25.4607 20.242 26.6858 19.9928 27.8748Z" fill="white"/>
<path d="M42.2927 24.3007L24.8752 7.19937C24.6828 7.01037 24.3752 7.01037 24.1828 7.19937L6.33569 24.5533C6.13294 24.7509 6.13638 25.0757 6.34085 25.2698L8.70511 27.4949C8.89583 27.6753 9.1948 27.6753 9.38552 27.4949L9.40614 27.4743L9.73604 39.2028C9.7515 39.7509 10.1931 40.1805 10.7429 40.1805H37.6673C38.2223 40.1805 38.6742 39.7286 38.6742 39.1736V27.0413L39.114 27.4708C39.3082 27.6598 39.6175 27.6598 39.8099 27.4691L42.2927 25.0052C42.4886 24.8111 42.4886 24.4932 42.291 24.299L42.2927 24.3007ZM37.6536 39.1599H10.7584L10.4216 27.3918L24.5092 14.2011L37.6553 26.7956V39.1599H37.6536Z" fill="white"/>
<path d="M32.623 11.6103V9.2168H36.5698V15.3766L32.623 11.6103Z" fill="white"/>
</g>
<defs>
<clipPath id="clip0_1884_36933">
<rect width="50" height="50" fill="white"/>
</clipPath>
</defs>
</svg>
