<svg width="70" height="33" viewBox="0 0 70 33" fill="none" xmlns="http://www.w3.org/2000/svg">
<path d="M70 11.64L58.4798 10.8532L64.9213 1.26981L70 11.64ZM35.6082 2.52037L36.0645 3.41018L35.6082 2.52037ZM21.9812 30.0913L21.5379 30.9876L21.9812 30.0913ZM42.7461 23.7287L43.6224 24.2104L42.7461 23.7287ZM17.8715 15.4575L18.4269 16.289L17.8715 15.4575ZM66.8981 10.822C66.3821 10.5036 65.7973 10.1509 65.1534 9.77498L66.1617 8.04772C66.8207 8.43243 67.4195 8.79357 67.9483 9.1199L66.8981 10.822ZM63.3887 8.77289C62.8203 8.45906 62.2217 8.13717 61.5974 7.81228L62.5205 6.03809C63.1604 6.37105 63.7735 6.70075 64.3554 7.02202L63.3887 8.77289ZM59.7843 6.8984C59.189 6.60816 58.5767 6.3194 57.9505 6.03565L58.776 4.21393C59.4204 4.50592 60.0497 4.80274 60.6608 5.10071L59.7843 6.8984ZM56.0941 5.22838C55.4764 4.97128 54.849 4.72192 54.2147 4.48332L54.9188 2.61137C55.5762 2.85863 56.225 3.11655 56.8626 3.38193L56.0941 5.22838ZM52.3149 3.80992C51.6776 3.59827 51.0364 3.40013 50.3938 3.21831L50.9384 1.29387C51.6117 1.4844 52.2816 1.69145 52.9453 1.91185L52.3149 3.80992ZM48.4529 2.72204C47.7981 2.5732 47.1452 2.4444 46.4966 2.33848L46.819 0.364634C47.5112 0.477679 48.2045 0.614561 48.8962 0.771787L48.4529 2.72204ZM44.5326 2.08915C43.8679 2.03027 43.2119 1.99958 42.5674 2L42.5661 4.70877e-06C43.2747 -0.000461459 43.9902 0.0332815 44.7091 0.0969423L44.5326 2.08915ZM40.6261 2.10242C39.976 2.17318 39.3428 2.28157 38.7294 2.43066L38.257 0.487235C38.9611 0.316114 39.6802 0.193559 40.4097 0.114164L40.6261 2.10242ZM36.9221 3.01488C36.6304 3.13498 36.3445 3.2666 36.0645 3.41018L35.1518 1.63056C35.4823 1.46107 35.8187 1.3063 36.1605 1.16556L36.9221 3.01488ZM36.0645 3.41018C35.7808 3.55569 35.4943 3.70948 35.2057 3.87116L34.2282 2.12628C34.5373 1.95315 34.8454 1.78773 35.1518 1.63056L36.0645 3.41018ZM33.5255 4.88545C32.9838 5.23538 32.4394 5.6088 31.8957 6.00304L30.7216 4.3839C31.293 3.96961 31.867 3.57582 32.4402 3.20552L33.5255 4.88545ZM30.3225 7.2036C29.8111 7.61351 29.304 8.03943 28.804 8.47897L27.4835 6.97687C28.0059 6.51757 28.5363 6.07214 29.0717 5.64304L30.3225 7.2036ZM27.3438 9.82141C26.8665 10.2802 26.3995 10.7497 25.9456 11.2276L24.4955 9.8501C24.9706 9.34998 25.459 8.85903 25.9577 8.3796L27.3438 9.82141ZM24.6162 12.6949C24.1808 13.1996 23.7626 13.7102 23.3644 14.224L21.7835 12.9991C22.204 12.4563 22.6446 11.9186 23.1019 11.3885L24.6162 12.6949ZM22.2063 15.8125C21.8287 16.3654 21.4782 16.9181 21.1582 17.4675L19.4301 16.4608C19.776 15.867 20.1523 15.2739 20.5547 14.6846L22.2063 15.8125ZM20.2553 19.1821C19.9732 19.7843 19.7348 20.3757 19.5436 20.9521L17.6453 20.3224C17.864 19.6631 18.1327 18.9987 18.4441 18.3338L20.2553 19.1821ZM19.0941 22.7594C18.9944 23.3901 18.9655 23.9876 19.0086 24.5482L17.0145 24.7018C16.9578 23.9652 16.998 23.2101 17.1186 22.4471L19.0941 22.7594ZM19.3923 26.2096C19.6007 26.7156 19.8954 27.1915 20.2898 27.6326L18.7988 28.9657C18.2544 28.3568 17.8381 27.6879 17.543 26.9711L19.3923 26.2096ZM21.6299 28.7499C21.8738 28.9047 22.1382 29.0533 22.4245 29.1949L21.5379 30.9876C21.1918 30.8165 20.8653 30.6334 20.5583 30.4386L21.6299 28.7499ZM22.4245 29.1949C22.707 29.3346 22.9918 29.4646 23.2783 29.5851L22.5033 31.4288C22.1791 31.2925 21.8571 31.1455 21.5379 30.9876L22.4245 29.1949ZM25.0468 30.2026C25.6536 30.3729 26.265 30.5032 26.8777 30.5946L26.5826 32.5727C25.8876 32.469 25.1941 32.3212 24.5063 32.1282L25.0468 30.2026ZM28.7424 30.7537C29.3693 30.7675 29.9939 30.7416 30.6125 30.677L30.8201 32.6662C30.1183 32.7395 29.4095 32.7689 28.6982 32.7532L28.7424 30.7537ZM32.4579 30.3657C33.0663 30.2231 33.6645 30.0422 34.2486 29.8243L34.9478 31.6981C34.2842 31.9457 33.605 32.151 32.9144 32.3129L32.4579 30.3657ZM35.9554 29.0602C36.5057 28.7702 37.0382 28.4447 37.549 28.0846L38.7012 29.7194C38.1195 30.1294 37.5135 30.4999 36.8876 30.8296L35.9554 29.0602ZM39.0023 26.912C39.4573 26.4932 39.8879 26.0423 40.2907 25.5604L41.8253 26.843C41.3662 27.3922 40.8754 27.9062 40.3568 28.3835L39.0023 26.912ZM41.3929 24.0527C41.5592 23.7912 41.7183 23.5226 41.8697 23.2471L43.6224 24.2104C43.4504 24.5234 43.2696 24.8286 43.0804 25.1261L41.3929 24.0527ZM41.8697 23.2471C42.0288 22.9576 42.1628 22.6768 42.2736 22.405L44.1256 23.1601C43.9839 23.5077 43.8162 23.8578 43.6224 24.2104L41.8697 23.2471ZM42.6975 20.6762C42.7395 20.0796 42.6619 19.5248 42.4837 19.0065L44.375 18.3562C44.6408 19.1291 44.7533 19.9528 44.6926 20.8166L42.6975 20.6762ZM41.6241 17.5066C41.2604 17.0653 40.8072 16.6462 40.2702 16.2551L41.4476 14.6384C42.0997 15.1133 42.6815 15.6449 43.1675 16.2347L41.6241 17.5066ZM38.6167 15.2702C38.0529 14.9937 37.4429 14.744 36.7945 14.5235L37.4384 12.63C38.1598 12.8753 38.8496 13.1569 39.4972 13.4744L38.6167 15.2702ZM34.8741 13.9819C34.2354 13.8355 33.5746 13.715 32.8981 13.6217L33.1714 11.6404C33.9038 11.7415 34.6226 11.8724 35.321 12.0324L34.8741 13.9819ZM30.8899 13.4278C30.2217 13.3902 29.5462 13.3784 28.8694 13.3935L28.825 11.3939C29.5543 11.3778 30.282 11.3904 31.0023 11.4309L30.8899 13.4278ZM26.8546 13.5181C26.183 13.5868 25.5167 13.6828 24.8614 13.8066L24.4899 11.8414C25.2029 11.7067 25.9253 11.6027 26.6511 11.5285L26.8546 13.5181ZM22.9108 14.2692C22.263 14.456 21.6343 14.6729 21.0307 14.9202L20.2726 13.0694C20.9471 12.7931 21.6441 12.553 22.3564 12.3475L22.9108 14.2692ZM19.2579 15.7774C18.9719 15.9397 18.6946 16.1102 18.4269 16.289L17.3161 14.6259C17.6257 14.4191 17.9444 14.2232 18.271 14.0378L19.2579 15.7774ZM18.4269 16.289C18.2004 16.4403 17.9514 16.6192 17.6818 16.8243L16.4712 15.2323C16.7656 15.0084 17.0483 14.8047 17.3161 14.6259L18.4269 16.289ZM16.1995 18.0337C15.7396 18.4293 15.2539 18.8625 14.7495 19.3249L13.3981 17.8506C13.9147 17.377 14.4164 16.9294 14.8952 16.5175L16.1995 18.0337ZM13.3238 20.6604C12.8615 21.1016 12.3913 21.5579 11.9177 22.0232L10.5159 20.5968C10.9954 20.1255 11.4726 19.6625 11.9427 19.2137L13.3238 20.6604ZM10.527 23.4061C10.0642 23.8711 9.6032 24.3391 9.14851 24.8044L7.71809 23.4065C8.17656 22.9374 8.6418 22.4651 9.10923 21.9954L10.527 23.4061ZM7.78077 26.215C7.3138 26.7002 6.85947 27.1757 6.42334 27.635L4.97314 26.2577C5.41205 25.7955 5.86945 25.3167 6.33975 24.8281L7.78077 26.215ZM5.07154 29.0671C4.5832 29.5876 4.133 30.0707 3.73185 30.5033L2.26539 29.1433C2.66892 28.7082 3.12178 28.2222 3.61302 27.6986L5.07154 29.0671ZM2.39489 31.954C2.18544 32.1827 2.02187 32.3622 1.91081 32.4844C1.85529 32.5454 1.81289 32.5922 1.78445 32.6235C1.77023 32.6392 1.75951 32.6511 1.75237 32.6589C1.7488 32.6629 1.74613 32.6658 1.74437 32.6678C1.74349 32.6688 1.74284 32.6695 1.74242 32.6699C1.74221 32.6702 1.74206 32.6703 1.74196 32.6704C1.74191 32.6705 1.74187 32.6705 1.74186 32.6706C1.74185 32.6706 1.74184 32.6706 1.74184 32.6706C1.74184 32.6706 1.74184 32.6706 1.74184 32.6706C1.74184 32.6706 1.74184 32.6706 1 32C0.258156 31.3294 0.258163 31.3294 0.258171 31.3294C0.258171 31.3294 0.258179 31.3294 0.258186 31.3294C0.258194 31.3294 0.258209 31.3294 0.258232 31.3293C0.25827 31.3293 0.258324 31.3292 0.258392 31.3292C0.258522 31.329 0.25872 31.3288 0.258965 31.3285C0.259468 31.328 0.260201 31.3272 0.261154 31.3261C0.263069 31.324 0.2659 31.3209 0.26963 31.3167C0.277084 31.3085 0.288139 31.2963 0.302689 31.2803C0.331787 31.2482 0.37487 31.2007 0.431099 31.1388C0.543564 31.0152 0.708641 30.834 0.919693 30.6035L2.39489 31.954Z" fill="black"/>
</svg>
