<svg width="70" height="33" viewBox="0 0 70 33" fill="none" xmlns="http://www.w3.org/2000/svg">
<path d="M0 11.64L11.5202 10.8532L5.07869 1.26981L0 11.64ZM34.3918 2.52037L33.9355 3.41018L34.3918 2.52037ZM48.0188 30.0913L48.4621 30.9876L48.0188 30.0913ZM27.2539 23.7287L26.3776 24.2104L27.2539 23.7287ZM52.1285 15.4575L51.5731 16.289L52.1285 15.4575ZM3.10188 10.822C3.61791 10.5036 4.20265 10.1509 4.84659 9.77498L3.83832 8.04772C3.17929 8.43243 2.58054 8.79357 2.05166 9.1199L3.10188 10.822ZM6.61129 8.77289C7.17971 8.45906 7.77828 8.13717 8.40265 7.81228L7.47946 6.03809C6.83959 6.37105 6.2265 6.70075 5.64461 7.02202L6.61129 8.77289ZM10.2157 6.8984C10.811 6.60816 11.4233 6.3194 12.0495 6.03565L11.224 4.21393C10.5796 4.50592 9.95031 4.80274 9.3392 5.10071L10.2157 6.8984ZM13.9059 5.22838C14.5236 4.97128 15.151 4.72192 15.7853 4.48332L15.0812 2.61137C14.4238 2.85863 13.775 3.11655 13.1374 3.38193L13.9059 5.22838ZM17.6851 3.80992C18.3224 3.59827 18.9636 3.40013 19.6062 3.21831L19.0616 1.29387C18.3883 1.4844 17.7184 1.69145 17.0547 1.91185L17.6851 3.80992ZM21.5471 2.72204C22.2019 2.5732 22.8548 2.4444 23.5034 2.33848L23.181 0.364634C22.4888 0.477679 21.7955 0.614561 21.1038 0.771787L21.5471 2.72204ZM25.4674 2.08915C26.1321 2.03027 26.7881 1.99958 27.4326 2L27.4339 4.70877e-06C26.7253 -0.000461459 26.0098 0.0332815 25.2909 0.0969423L25.4674 2.08915ZM29.3739 2.10242C30.024 2.17318 30.6572 2.28157 31.2706 2.43066L31.743 0.487235C31.0389 0.316114 30.3198 0.193559 29.5903 0.114164L29.3739 2.10242ZM33.0779 3.01488C33.3696 3.13498 33.6555 3.2666 33.9355 3.41018L34.8482 1.63056C34.5177 1.46107 34.1813 1.3063 33.8395 1.16556L33.0779 3.01488ZM33.9355 3.41018C34.2192 3.55569 34.5057 3.70948 34.7943 3.87116L35.7718 2.12628C35.4627 1.95315 35.1546 1.78773 34.8482 1.63056L33.9355 3.41018ZM36.4745 4.88545C37.0162 5.23538 37.5606 5.6088 38.1043 6.00304L39.2784 4.3839C38.707 3.96961 38.133 3.57582 37.5598 3.20552L36.4745 4.88545ZM39.6775 7.2036C40.1889 7.61351 40.696 8.03943 41.196 8.47897L42.5165 6.97687C41.9941 6.51757 41.4637 6.07214 40.9283 5.64304L39.6775 7.2036ZM42.6562 9.82141C43.1335 10.2802 43.6005 10.7497 44.0544 11.2276L45.5045 9.8501C45.0294 9.34998 44.541 8.85903 44.0423 8.3796L42.6562 9.82141ZM45.3838 12.6949C45.8192 13.1996 46.2374 13.7102 46.6356 14.224L48.2165 12.9991C47.796 12.4563 47.3554 11.9186 46.8981 11.3885L45.3838 12.6949ZM47.7937 15.8125C48.1713 16.3654 48.5218 16.9181 48.8418 17.4675L50.5699 16.4608C50.224 15.867 49.8477 15.2739 49.4453 14.6846L47.7937 15.8125ZM49.7447 19.1821C50.0268 19.7843 50.2652 20.3757 50.4564 20.9521L52.3547 20.3224C52.136 19.6631 51.8673 18.9987 51.5559 18.3338L49.7447 19.1821ZM50.9059 22.7594C51.0056 23.3901 51.0345 23.9876 50.9914 24.5482L52.9855 24.7018C53.0422 23.9652 53.002 23.2101 52.8814 22.4471L50.9059 22.7594ZM50.6077 26.2096C50.3993 26.7156 50.1046 27.1915 49.7102 27.6326L51.2012 28.9657C51.7456 28.3568 52.1619 27.6879 52.457 26.9711L50.6077 26.2096ZM48.3701 28.7499C48.1262 28.9047 47.8618 29.0533 47.5755 29.1949L48.4621 30.9876C48.8082 30.8165 49.1347 30.6334 49.4417 30.4386L48.3701 28.7499ZM47.5755 29.1949C47.293 29.3346 47.0082 29.4646 46.7217 29.5851L47.4967 31.4288C47.8209 31.2925 48.1429 31.1455 48.4621 30.9876L47.5755 29.1949ZM44.9532 30.2026C44.3464 30.3729 43.735 30.5032 43.1223 30.5946L43.4174 32.5727C44.1124 32.469 44.8059 32.3212 45.4937 32.1282L44.9532 30.2026ZM41.2576 30.7537C40.6307 30.7675 40.0061 30.7416 39.3875 30.677L39.1799 32.6662C39.8817 32.7395 40.5905 32.7689 41.3018 32.7532L41.2576 30.7537ZM37.5421 30.3657C36.9337 30.2231 36.3355 30.0422 35.7514 29.8243L35.0522 31.6981C35.7158 31.9457 36.395 32.151 37.0856 32.3129L37.5421 30.3657ZM34.0446 29.0602C33.4943 28.7702 32.9618 28.4447 32.451 28.0846L31.2988 29.7194C31.8805 30.1294 32.4865 30.4999 33.1124 30.8296L34.0446 29.0602ZM30.9977 26.912C30.5427 26.4932 30.1121 26.0423 29.7093 25.5604L28.1747 26.843C28.6338 27.3922 29.1246 27.9062 29.6432 28.3835L30.9977 26.912ZM28.6071 24.0527C28.4408 23.7912 28.2817 23.5226 28.1303 23.2471L26.3776 24.2104C26.5496 24.5234 26.7304 24.8286 26.9196 25.1261L28.6071 24.0527ZM28.1303 23.2471C27.9712 22.9576 27.8372 22.6768 27.7264 22.405L25.8744 23.1601C26.0161 23.5077 26.1838 23.8578 26.3776 24.2104L28.1303 23.2471ZM27.3025 20.6762C27.2605 20.0796 27.3381 19.5248 27.5163 19.0065L25.625 18.3562C25.3592 19.1291 25.2467 19.9528 25.3074 20.8166L27.3025 20.6762ZM28.3759 17.5066C28.7396 17.0653 29.1928 16.6462 29.7298 16.2551L28.5524 14.6384C27.9003 15.1133 27.3185 15.6449 26.8325 16.2347L28.3759 17.5066ZM31.3833 15.2702C31.9471 14.9937 32.5571 14.744 33.2055 14.5235L32.5616 12.63C31.8402 12.8753 31.1504 13.1569 30.5028 13.4744L31.3833 15.2702ZM35.1259 13.9819C35.7646 13.8355 36.4254 13.715 37.1019 13.6217L36.8286 11.6404C36.0962 11.7415 35.3774 11.8724 34.679 12.0324L35.1259 13.9819ZM39.1101 13.4278C39.7783 13.3902 40.4538 13.3784 41.1306 13.3935L41.175 11.3939C40.4457 11.3778 39.718 11.3904 38.9977 11.4309L39.1101 13.4278ZM43.1454 13.5181C43.817 13.5868 44.4833 13.6828 45.1386 13.8066L45.5101 11.8414C44.7971 11.7067 44.0747 11.6027 43.3489 11.5285L43.1454 13.5181ZM47.0892 14.2692C47.737 14.456 48.3657 14.6729 48.9693 14.9202L49.7274 13.0694C49.0529 12.7931 48.3559 12.553 47.6436 12.3475L47.0892 14.2692ZM50.7421 15.7774C51.0281 15.9397 51.3054 16.1102 51.5731 16.289L52.6839 14.6259C52.3743 14.4191 52.0556 14.2232 51.729 14.0378L50.7421 15.7774ZM51.5731 16.289C51.7996 16.4403 52.0486 16.6192 52.3182 16.8243L53.5288 15.2323C53.2344 15.0084 52.9517 14.8047 52.6839 14.6259L51.5731 16.289ZM53.8005 18.0337C54.2604 18.4293 54.7461 18.8625 55.2505 19.3249L56.6019 17.8506C56.0853 17.377 55.5836 16.9294 55.1048 16.5175L53.8005 18.0337ZM56.6762 20.6604C57.1385 21.1016 57.6087 21.5579 58.0823 22.0232L59.4841 20.5968C59.0046 20.1255 58.5274 19.6625 58.0573 19.2137L56.6762 20.6604ZM59.473 23.4061C59.9358 23.8711 60.3968 24.3391 60.8515 24.8044L62.2819 23.4065C61.8234 22.9374 61.3582 22.4651 60.8908 21.9954L59.473 23.4061ZM62.2192 26.215C62.6862 26.7002 63.1405 27.1757 63.5767 27.635L65.0269 26.2577C64.588 25.7955 64.1306 25.3167 63.6602 24.8281L62.2192 26.215ZM64.9285 29.0671C65.4168 29.5876 65.867 30.0707 66.2682 30.5033L67.7346 29.1433C67.3311 28.7082 66.8782 28.2222 66.387 27.6986L64.9285 29.0671ZM67.6051 31.954C67.8146 32.1827 67.9781 32.3622 68.0892 32.4844C68.1447 32.5454 68.1871 32.5922 68.2155 32.6235C68.2298 32.6392 68.2405 32.6511 68.2476 32.6589C68.2512 32.6629 68.2539 32.6658 68.2556 32.6678C68.2565 32.6688 68.2572 32.6695 68.2576 32.6699C68.2578 32.6702 68.2579 32.6703 68.258 32.6704C68.2581 32.6705 68.2581 32.6705 68.2581 32.6706C68.2581 32.6706 68.2582 32.6706 68.2582 32.6706C68.2582 32.6706 68.2582 32.6706 68.2582 32.6706C68.2582 32.6706 68.2582 32.6706 69 32C69.7418 31.3294 69.7418 31.3294 69.7418 31.3294C69.7418 31.3294 69.7418 31.3294 69.7418 31.3294C69.7418 31.3294 69.7418 31.3294 69.7418 31.3293C69.7417 31.3293 69.7417 31.3292 69.7416 31.3292C69.7415 31.329 69.7413 31.3288 69.741 31.3285C69.7405 31.328 69.7398 31.3272 69.7388 31.3261C69.7369 31.324 69.7341 31.3209 69.7304 31.3167C69.7229 31.3085 69.7119 31.2963 69.6973 31.2803C69.6682 31.2482 69.6251 31.2007 69.5689 31.1388C69.4564 31.0152 69.2914 30.834 69.0803 30.6035L67.6051 31.954Z" fill="black"/>
</svg>
